%TF.GenerationSoftware,KiCad,Pcbnew,9.0.0*%
%TF.CreationDate,2025-06-09T12:03:21+05:30*%
%TF.ProjectId,ESP32_DevKit_M1,45535033-325f-4446-9576-4b69745f4d31,rev?*%
%TF.SameCoordinates,Original*%
%TF.FileFunction,Profile,NP*%
%FSLAX46Y46*%
G04 Gerber Fmt 4.6, Leading zero omitted, Abs format (unit mm)*
G04 Created by KiCad (PCBNEW 9.0.0) date 2025-06-09 12:03:21*
%MOMM*%
%LPD*%
G01*
G04 APERTURE LIST*
%TA.AperFunction,Profile*%
%ADD10C,0.200000*%
%TD*%
%ADD11C,0.150000*%
%TA.AperFunction,Profile*%
%ADD12C,0.050000*%
%TD*%
%TA.AperFunction,Profile*%
%ADD13C,0.100000*%
%TD*%
G04 APERTURE END LIST*
D10*
X103575000Y-63275000D02*
X149075000Y-63275000D01*
X149075000Y-131275000D01*
X103575000Y-131275000D01*
X103575000Y-63275000D01*
D11*
X125325000Y-132638152D02*
X125325000Y-133304819D01*
X125086905Y-132257200D02*
X124848810Y-132971485D01*
X124848810Y-132971485D02*
X125467857Y-132971485D01*
X126325000Y-132304819D02*
X125848810Y-132304819D01*
X125848810Y-132304819D02*
X125801191Y-132781009D01*
X125801191Y-132781009D02*
X125848810Y-132733390D01*
X125848810Y-132733390D02*
X125944048Y-132685771D01*
X125944048Y-132685771D02*
X126182143Y-132685771D01*
X126182143Y-132685771D02*
X126277381Y-132733390D01*
X126277381Y-132733390D02*
X126325000Y-132781009D01*
X126325000Y-132781009D02*
X126372619Y-132876247D01*
X126372619Y-132876247D02*
X126372619Y-133114342D01*
X126372619Y-133114342D02*
X126325000Y-133209580D01*
X126325000Y-133209580D02*
X126277381Y-133257200D01*
X126277381Y-133257200D02*
X126182143Y-133304819D01*
X126182143Y-133304819D02*
X125944048Y-133304819D01*
X125944048Y-133304819D02*
X125848810Y-133257200D01*
X125848810Y-133257200D02*
X125801191Y-133209580D01*
X126801191Y-133209580D02*
X126848810Y-133257200D01*
X126848810Y-133257200D02*
X126801191Y-133304819D01*
X126801191Y-133304819D02*
X126753572Y-133257200D01*
X126753572Y-133257200D02*
X126801191Y-133209580D01*
X126801191Y-133209580D02*
X126801191Y-133304819D01*
X127753571Y-132304819D02*
X127277381Y-132304819D01*
X127277381Y-132304819D02*
X127229762Y-132781009D01*
X127229762Y-132781009D02*
X127277381Y-132733390D01*
X127277381Y-132733390D02*
X127372619Y-132685771D01*
X127372619Y-132685771D02*
X127610714Y-132685771D01*
X127610714Y-132685771D02*
X127705952Y-132733390D01*
X127705952Y-132733390D02*
X127753571Y-132781009D01*
X127753571Y-132781009D02*
X127801190Y-132876247D01*
X127801190Y-132876247D02*
X127801190Y-133114342D01*
X127801190Y-133114342D02*
X127753571Y-133209580D01*
X127753571Y-133209580D02*
X127705952Y-133257200D01*
X127705952Y-133257200D02*
X127610714Y-133304819D01*
X127610714Y-133304819D02*
X127372619Y-133304819D01*
X127372619Y-133304819D02*
X127277381Y-133257200D01*
X127277381Y-133257200D02*
X127229762Y-133209580D01*
D12*
X103575000Y-131775000D02*
X103575000Y-134586420D01*
X149075000Y-134586420D02*
X149075000Y-131775000D01*
X103575000Y-134000000D02*
X149075000Y-134000000D01*
X103575000Y-134000000D02*
X149075000Y-134000000D01*
X103575000Y-134000000D02*
X104701504Y-133413579D01*
X103575000Y-134000000D02*
X104701504Y-134586421D01*
X149075000Y-134000000D02*
X147948496Y-134586421D01*
X149075000Y-134000000D02*
X147948496Y-133413579D01*
X103575000Y-134000000D02*
X149075000Y-134000000D01*
X103575000Y-134000000D02*
X149075000Y-134000000D01*
X103575000Y-134000000D02*
X104701504Y-133413579D01*
X103575000Y-134000000D02*
X104701504Y-134586421D01*
X149075000Y-134000000D02*
X147948496Y-134586421D01*
X149075000Y-134000000D02*
X147948496Y-133413579D01*
D11*
X99804819Y-99089880D02*
X99804819Y-99280356D01*
X99804819Y-99280356D02*
X99852438Y-99375594D01*
X99852438Y-99375594D02*
X99900057Y-99423213D01*
X99900057Y-99423213D02*
X100042914Y-99518451D01*
X100042914Y-99518451D02*
X100233390Y-99566070D01*
X100233390Y-99566070D02*
X100614342Y-99566070D01*
X100614342Y-99566070D02*
X100709580Y-99518451D01*
X100709580Y-99518451D02*
X100757200Y-99470832D01*
X100757200Y-99470832D02*
X100804819Y-99375594D01*
X100804819Y-99375594D02*
X100804819Y-99185118D01*
X100804819Y-99185118D02*
X100757200Y-99089880D01*
X100757200Y-99089880D02*
X100709580Y-99042261D01*
X100709580Y-99042261D02*
X100614342Y-98994642D01*
X100614342Y-98994642D02*
X100376247Y-98994642D01*
X100376247Y-98994642D02*
X100281009Y-99042261D01*
X100281009Y-99042261D02*
X100233390Y-99089880D01*
X100233390Y-99089880D02*
X100185771Y-99185118D01*
X100185771Y-99185118D02*
X100185771Y-99375594D01*
X100185771Y-99375594D02*
X100233390Y-99470832D01*
X100233390Y-99470832D02*
X100281009Y-99518451D01*
X100281009Y-99518451D02*
X100376247Y-99566070D01*
X100233390Y-98423213D02*
X100185771Y-98518451D01*
X100185771Y-98518451D02*
X100138152Y-98566070D01*
X100138152Y-98566070D02*
X100042914Y-98613689D01*
X100042914Y-98613689D02*
X99995295Y-98613689D01*
X99995295Y-98613689D02*
X99900057Y-98566070D01*
X99900057Y-98566070D02*
X99852438Y-98518451D01*
X99852438Y-98518451D02*
X99804819Y-98423213D01*
X99804819Y-98423213D02*
X99804819Y-98232737D01*
X99804819Y-98232737D02*
X99852438Y-98137499D01*
X99852438Y-98137499D02*
X99900057Y-98089880D01*
X99900057Y-98089880D02*
X99995295Y-98042261D01*
X99995295Y-98042261D02*
X100042914Y-98042261D01*
X100042914Y-98042261D02*
X100138152Y-98089880D01*
X100138152Y-98089880D02*
X100185771Y-98137499D01*
X100185771Y-98137499D02*
X100233390Y-98232737D01*
X100233390Y-98232737D02*
X100233390Y-98423213D01*
X100233390Y-98423213D02*
X100281009Y-98518451D01*
X100281009Y-98518451D02*
X100328628Y-98566070D01*
X100328628Y-98566070D02*
X100423866Y-98613689D01*
X100423866Y-98613689D02*
X100614342Y-98613689D01*
X100614342Y-98613689D02*
X100709580Y-98566070D01*
X100709580Y-98566070D02*
X100757200Y-98518451D01*
X100757200Y-98518451D02*
X100804819Y-98423213D01*
X100804819Y-98423213D02*
X100804819Y-98232737D01*
X100804819Y-98232737D02*
X100757200Y-98137499D01*
X100757200Y-98137499D02*
X100709580Y-98089880D01*
X100709580Y-98089880D02*
X100614342Y-98042261D01*
X100614342Y-98042261D02*
X100423866Y-98042261D01*
X100423866Y-98042261D02*
X100328628Y-98089880D01*
X100328628Y-98089880D02*
X100281009Y-98137499D01*
X100281009Y-98137499D02*
X100233390Y-98232737D01*
X100709580Y-97613689D02*
X100757200Y-97566070D01*
X100757200Y-97566070D02*
X100804819Y-97613689D01*
X100804819Y-97613689D02*
X100757200Y-97661308D01*
X100757200Y-97661308D02*
X100709580Y-97613689D01*
X100709580Y-97613689D02*
X100804819Y-97613689D01*
X99900057Y-97185118D02*
X99852438Y-97137499D01*
X99852438Y-97137499D02*
X99804819Y-97042261D01*
X99804819Y-97042261D02*
X99804819Y-96804166D01*
X99804819Y-96804166D02*
X99852438Y-96708928D01*
X99852438Y-96708928D02*
X99900057Y-96661309D01*
X99900057Y-96661309D02*
X99995295Y-96613690D01*
X99995295Y-96613690D02*
X100090533Y-96613690D01*
X100090533Y-96613690D02*
X100233390Y-96661309D01*
X100233390Y-96661309D02*
X100804819Y-97232737D01*
X100804819Y-97232737D02*
X100804819Y-96613690D01*
X99804819Y-96280356D02*
X99804819Y-95613690D01*
X99804819Y-95613690D02*
X100804819Y-96042261D01*
X99804819Y-94756547D02*
X99804819Y-95232737D01*
X99804819Y-95232737D02*
X100281009Y-95280356D01*
X100281009Y-95280356D02*
X100233390Y-95232737D01*
X100233390Y-95232737D02*
X100185771Y-95137499D01*
X100185771Y-95137499D02*
X100185771Y-94899404D01*
X100185771Y-94899404D02*
X100233390Y-94804166D01*
X100233390Y-94804166D02*
X100281009Y-94756547D01*
X100281009Y-94756547D02*
X100376247Y-94708928D01*
X100376247Y-94708928D02*
X100614342Y-94708928D01*
X100614342Y-94708928D02*
X100709580Y-94756547D01*
X100709580Y-94756547D02*
X100757200Y-94804166D01*
X100757200Y-94804166D02*
X100804819Y-94899404D01*
X100804819Y-94899404D02*
X100804819Y-95137499D01*
X100804819Y-95137499D02*
X100757200Y-95232737D01*
X100757200Y-95232737D02*
X100709580Y-95280356D01*
D12*
X103075000Y-131275000D02*
X100913580Y-131275000D01*
X100913580Y-63000000D02*
X101500000Y-63000000D01*
X101500000Y-131275000D02*
X101500000Y-63000000D01*
X101500000Y-131275000D02*
X101500000Y-63000000D01*
X101500000Y-131275000D02*
X100913579Y-130148496D01*
X101500000Y-131275000D02*
X102086421Y-130148496D01*
X101500000Y-63000000D02*
X102086421Y-64126504D01*
X101500000Y-63000000D02*
X100913579Y-64126504D01*
X101500000Y-131275000D02*
X101500000Y-63000000D01*
X101500000Y-131275000D02*
X101500000Y-63000000D01*
X101500000Y-131275000D02*
X100913579Y-130148496D01*
X101500000Y-131275000D02*
X102086421Y-130148496D01*
X101500000Y-63000000D02*
X102086421Y-64126504D01*
X101500000Y-63000000D02*
X100913579Y-64126504D01*
D13*
%TO.C,J1*%
X128325000Y-129725000D02*
X129275000Y-129725000D01*
X129275000Y-128150000D02*
X129275000Y-129725000D01*
X130125000Y-128150000D02*
X130125000Y-129725000D01*
X130125000Y-129725000D02*
X134025000Y-129725000D01*
X134025000Y-128150000D02*
X134025000Y-129725000D01*
X134875000Y-128150000D02*
X134875000Y-129725000D01*
X134875000Y-129725000D02*
X135825000Y-129725000D01*
X129275000Y-128150000D02*
G75*
G02*
X130125000Y-128150000I425000J0D01*
G01*
X134025000Y-128150000D02*
G75*
G02*
X134875000Y-128150000I425000J0D01*
G01*
%TO.C,J2*%
X117025000Y-129900000D02*
X117975000Y-129900000D01*
X117975000Y-128325000D02*
X117975000Y-129900000D01*
X118825000Y-128325000D02*
X118825000Y-129900000D01*
X118825000Y-129900000D02*
X122725000Y-129900000D01*
X122725000Y-128325000D02*
X122725000Y-129900000D01*
X123575000Y-128325000D02*
X123575000Y-129900000D01*
X123575000Y-129900000D02*
X124525000Y-129900000D01*
X117975000Y-128325000D02*
G75*
G02*
X118825000Y-128325000I425000J0D01*
G01*
X122725000Y-128325000D02*
G75*
G02*
X123575000Y-128325000I425000J0D01*
G01*
%TD*%
M02*
