%TF.GenerationSoftware,KiCad,Pcbnew,9.0.0*%
%TF.CreationDate,2025-06-09T12:03:21+05:30*%
%TF.ProjectId,ESP32_DevKit_M1,45535033-325f-4446-9576-4b69745f4d31,rev?*%
%TF.SameCoordinates,Original*%
%TF.FileFunction,Copper,L2,Inr*%
%TF.FilePolarity,Positive*%
%FSLAX46Y46*%
G04 Gerber Fmt 4.6, Leading zero omitted, Abs format (unit mm)*
G04 Created by KiCad (PCBNEW 9.0.0) date 2025-06-09 12:03:21*
%MOMM*%
%LPD*%
G01*
G04 APERTURE LIST*
%TA.AperFunction,ComponentPad*%
%ADD10R,1.700000X1.700000*%
%TD*%
%TA.AperFunction,ComponentPad*%
%ADD11O,1.700000X1.700000*%
%TD*%
%TA.AperFunction,HeatsinkPad*%
%ADD12O,1.000000X1.900000*%
%TD*%
%TA.AperFunction,HeatsinkPad*%
%ADD13O,1.050000X1.250000*%
%TD*%
%TA.AperFunction,ViaPad*%
%ADD14C,0.600000*%
%TD*%
%TA.AperFunction,Conductor*%
%ADD15C,0.300000*%
%TD*%
G04 APERTURE END LIST*
D10*
%TO.N,ESP_3.3V*%
%TO.C,J3*%
X106575000Y-65995000D03*
D11*
%TO.N,/GPIO0*%
X106575000Y-68535000D03*
%TO.N,/GPIO1*%
X106575000Y-71075000D03*
%TO.N,/GPIO2*%
X106575000Y-73615000D03*
%TO.N,/GPIO3*%
X106575000Y-76155000D03*
%TO.N,/GPIO4*%
X106575000Y-78695000D03*
%TO.N,/GPIO5*%
X106575000Y-81235000D03*
%TO.N,/GPIO6*%
X106575000Y-83775000D03*
%TO.N,/GPIO7*%
X106575000Y-86315000D03*
%TO.N,/GPIO8*%
X106575000Y-88855000D03*
%TO.N,/GPIO9*%
X106575000Y-91395000D03*
%TO.N,/GPIO10*%
X106575000Y-93935000D03*
%TO.N,/GPIO11*%
X106575000Y-96475000D03*
%TO.N,/GPIO12*%
X106575000Y-99015000D03*
%TO.N,/GPIO13*%
X106575000Y-101555000D03*
%TO.N,/GPIO14*%
X106575000Y-104095000D03*
%TO.N,/GPIO15*%
X106575000Y-106635000D03*
%TO.N,/GPIO16*%
X106575000Y-109175000D03*
%TO.N,/GPIO17*%
X106575000Y-111715000D03*
%TO.N,/GPIO18*%
X106575000Y-114255000D03*
%TO.N,5V*%
X106575000Y-116795000D03*
%TO.N,GND*%
X106575000Y-119335000D03*
%TD*%
D10*
%TO.N,GND*%
%TO.C,J4*%
X146075000Y-65915000D03*
D11*
%TO.N,/CHIP_PU*%
X146075000Y-68455000D03*
%TO.N,/GPIO46*%
X146075000Y-70995000D03*
%TO.N,/GPIO45*%
X146075000Y-73535000D03*
%TO.N,/U0RXD*%
X146075000Y-76075000D03*
%TO.N,/U0TXD*%
X146075000Y-78615000D03*
%TO.N,/GPIO42*%
X146075000Y-81155000D03*
%TO.N,/GPIO41*%
X146075000Y-83695000D03*
%TO.N,/GPIO40*%
X146075000Y-86235000D03*
%TO.N,/GPIO39*%
X146075000Y-88775000D03*
%TO.N,/GPIO38*%
X146075000Y-91315000D03*
%TO.N,/GPIO37*%
X146075000Y-93855000D03*
%TO.N,/GPIO36*%
X146075000Y-96395000D03*
%TO.N,/GPIO35*%
X146075000Y-98935000D03*
%TO.N,/GPIO34*%
X146075000Y-101475000D03*
%TO.N,/GPIO33*%
X146075000Y-104015000D03*
%TO.N,/GPIO26*%
X146075000Y-106555000D03*
%TO.N,/GPIO21*%
X146075000Y-109095000D03*
%TO.N,/GPIO20*%
X146075000Y-111635000D03*
%TO.N,/GPIO19*%
X146075000Y-114175000D03*
%TO.N,/GPIO48*%
X146075000Y-116715000D03*
%TO.N,/GPIO47*%
X146075000Y-119255000D03*
%TD*%
D12*
%TO.N,GND*%
%TO.C,J1*%
X127900000Y-128275000D03*
D13*
X129850000Y-125275000D03*
X134300000Y-125275000D03*
D12*
X136250000Y-128275000D03*
%TD*%
%TO.N,GND*%
%TO.C,J2*%
X116600000Y-128450000D03*
D13*
X118550000Y-125450000D03*
X123000000Y-125450000D03*
D12*
X124950000Y-128450000D03*
%TD*%
D14*
%TO.N,GND*%
X137732555Y-128525000D03*
X118645240Y-118886221D03*
X117434709Y-80061451D03*
X110500000Y-101500000D03*
X135768994Y-121496737D03*
X114500000Y-117500000D03*
X130000000Y-111500000D03*
X128757667Y-120281672D03*
X115500000Y-123000000D03*
X119500000Y-101000000D03*
X134500000Y-119000000D03*
X109989903Y-67545618D03*
X119000000Y-116000000D03*
X111243719Y-112151463D03*
X120584786Y-86596602D03*
X138775006Y-106775006D03*
X140000000Y-67000000D03*
X134956511Y-80478512D03*
X115000000Y-128500000D03*
X124141675Y-119031765D03*
X132773643Y-112799408D03*
X121574065Y-118877971D03*
X134986158Y-64809911D03*
X126335415Y-112040085D03*
X127742518Y-115564463D03*
X137000000Y-116000000D03*
%TO.N,/CHIP_PU*%
X135737531Y-65826745D03*
X141000000Y-111000000D03*
X135388622Y-97376433D03*
X136500000Y-68000000D03*
%TO.N,Net-(U2-VBUS)*%
X136500000Y-113500000D03*
X134000000Y-117500000D03*
%TO.N,/GPIO0*%
X130000000Y-100000000D03*
X130000000Y-94000000D03*
X116000000Y-67500000D03*
X128500000Y-101500000D03*
X115000000Y-119000000D03*
%TO.N,/GPIO19*%
X122750093Y-121438309D03*
X126396383Y-80142502D03*
%TO.N,/GPIO20*%
X131000000Y-104000000D03*
X127268842Y-80198191D03*
X120000000Y-119000000D03*
X136500000Y-103000000D03*
%TO.N,/GPIO18*%
X121000000Y-100000000D03*
%TO.N,/GPIO15*%
X123003262Y-80367996D03*
%TO.N,/GPIO17*%
X124735806Y-80293744D03*
%TO.N,/GPIO14*%
X122136990Y-80417497D03*
%TO.N,/GPIO16*%
X123877785Y-80343246D03*
%TO.N,/GPIO13*%
X121299120Y-80462427D03*
%TO.N,/GPIO12*%
X120500000Y-80500000D03*
%TO.N,/U0TXD*%
X121779644Y-106216754D03*
%TO.N,/GPIO48*%
X143000000Y-102000000D03*
X133168266Y-80396196D03*
X117000000Y-89000000D03*
%TO.N,/GPIO33*%
X130684429Y-80328132D03*
%TO.N,/GPIO26*%
X128920947Y-80253880D03*
%TO.N,/U0RXD*%
X121799843Y-108836690D03*
%TO.N,/GPIO21*%
X128120944Y-80253880D03*
%TO.N,/DTR*%
X127507947Y-109297163D03*
X127000000Y-102769855D03*
%TO.N,5V*%
X126500000Y-113500000D03*
X137193017Y-111705392D03*
%TO.N,3.3V*%
X129252680Y-115591428D03*
X128888622Y-89789433D03*
X132665004Y-111395497D03*
X138724783Y-108794793D03*
X126784818Y-83044886D03*
X113795781Y-98784979D03*
X113849014Y-67235795D03*
%TO.N,ESP_3.3V*%
X117500000Y-67500000D03*
X142000000Y-66500000D03*
%TO.N,VBUS*%
X125500000Y-122500000D03*
X132900000Y-122500000D03*
%TD*%
D15*
%TO.N,/CHIP_PU*%
X136500000Y-96265055D02*
X135388622Y-97376433D01*
X136500000Y-68000000D02*
X136500000Y-96265055D01*
%TO.N,/GPIO0*%
X116651000Y-66849000D02*
X119349000Y-66849000D01*
X120538778Y-66852836D02*
X121185942Y-67500000D01*
X121185942Y-67500000D02*
X121192724Y-67500000D01*
X119352836Y-66852836D02*
X120538778Y-66852836D01*
X133819266Y-80126542D02*
X133819266Y-90180734D01*
X121192724Y-67500000D02*
X133819266Y-80126542D01*
X119349000Y-66849000D02*
X119352836Y-66852836D01*
X116000000Y-67500000D02*
X116651000Y-66849000D01*
X133819266Y-90180734D02*
X130000000Y-94000000D01*
%TO.N,/U0TXD*%
X120000000Y-112000000D02*
X120849000Y-112849000D01*
X145960000Y-78500000D02*
X146075000Y-78615000D01*
X120849000Y-112849000D02*
X130651000Y-112849000D01*
X121779644Y-106216754D02*
X121283246Y-106216754D01*
X131500000Y-105000000D02*
X140000000Y-96500000D01*
X140000000Y-80500000D02*
X142000000Y-78500000D01*
X121283246Y-106216754D02*
X120000000Y-107500000D01*
X142000000Y-78500000D02*
X145960000Y-78500000D01*
X140000000Y-96500000D02*
X140000000Y-80500000D01*
X130651000Y-112849000D02*
X131500000Y-112000000D01*
X131500000Y-112000000D02*
X131500000Y-105000000D01*
X120000000Y-107500000D02*
X120000000Y-112000000D01*
%TO.N,/GPIO48*%
X117000000Y-87500000D02*
X123000000Y-81500000D01*
X132064462Y-81500000D02*
X133168266Y-80396196D01*
X123000000Y-81500000D02*
X132064462Y-81500000D01*
X117000000Y-89000000D02*
X117000000Y-87500000D01*
%TO.N,/U0RXD*%
X121000000Y-109500000D02*
X121000000Y-110000000D01*
X121000000Y-110000000D02*
X121500000Y-110500000D01*
X121663310Y-108836690D02*
X121000000Y-109500000D01*
X125500000Y-108500000D02*
X138500000Y-95500000D01*
X145150000Y-77000000D02*
X146075000Y-76075000D01*
X125500000Y-109500000D02*
X125500000Y-108500000D01*
X121500000Y-110500000D02*
X124500000Y-110500000D01*
X124500000Y-110500000D02*
X125500000Y-109500000D01*
X138500000Y-79500000D02*
X141000000Y-77000000D01*
X138500000Y-95500000D02*
X138500000Y-79500000D01*
X121799843Y-108836690D02*
X121663310Y-108836690D01*
X141000000Y-77000000D02*
X145150000Y-77000000D01*
%TD*%
%TA.AperFunction,Conductor*%
%TO.N,3.3V*%
G36*
X134456667Y-63994685D02*
G01*
X134502422Y-64047489D01*
X134512366Y-64116647D01*
X134483341Y-64180203D01*
X134477309Y-64186681D01*
X134364371Y-64299618D01*
X134364368Y-64299622D01*
X134276767Y-64430725D01*
X134276760Y-64430738D01*
X134216422Y-64576409D01*
X134216419Y-64576421D01*
X134185658Y-64731064D01*
X134185658Y-64888757D01*
X134216419Y-65043400D01*
X134216422Y-65043412D01*
X134276760Y-65189083D01*
X134276767Y-65189096D01*
X134364368Y-65320199D01*
X134364371Y-65320203D01*
X134475865Y-65431697D01*
X134475869Y-65431700D01*
X134606972Y-65519301D01*
X134606985Y-65519308D01*
X134752656Y-65579646D01*
X134752661Y-65579648D01*
X134840592Y-65597138D01*
X134902501Y-65629522D01*
X134937075Y-65690238D01*
X134938017Y-65742943D01*
X134937031Y-65747900D01*
X134937031Y-65905591D01*
X134967792Y-66060234D01*
X134967795Y-66060246D01*
X135028133Y-66205917D01*
X135028140Y-66205930D01*
X135115741Y-66337033D01*
X135115744Y-66337037D01*
X135227238Y-66448531D01*
X135227242Y-66448534D01*
X135358345Y-66536135D01*
X135358358Y-66536142D01*
X135504029Y-66596480D01*
X135504034Y-66596482D01*
X135626394Y-66620821D01*
X135658684Y-66627244D01*
X135658687Y-66627245D01*
X135658689Y-66627245D01*
X135816375Y-66627245D01*
X135816376Y-66627244D01*
X135971028Y-66596482D01*
X136116710Y-66536139D01*
X136247820Y-66448534D01*
X136359320Y-66337034D01*
X136446925Y-66205924D01*
X136507268Y-66060242D01*
X136538031Y-65905587D01*
X136538031Y-65747903D01*
X136538031Y-65747900D01*
X136538030Y-65747898D01*
X136528403Y-65699500D01*
X136507268Y-65593248D01*
X136501634Y-65579646D01*
X136446928Y-65447572D01*
X136446921Y-65447559D01*
X136359320Y-65316456D01*
X136359317Y-65316452D01*
X136247823Y-65204958D01*
X136247819Y-65204955D01*
X136116716Y-65117354D01*
X136116703Y-65117347D01*
X135971032Y-65057009D01*
X135971020Y-65057006D01*
X135883098Y-65039517D01*
X135821187Y-65007132D01*
X135786613Y-64946416D01*
X135785674Y-64893699D01*
X135786658Y-64888754D01*
X135786658Y-64731066D01*
X135786657Y-64731064D01*
X135765474Y-64624573D01*
X135755895Y-64576414D01*
X135710659Y-64467203D01*
X135695555Y-64430738D01*
X135695548Y-64430725D01*
X135607947Y-64299622D01*
X135607944Y-64299618D01*
X135495007Y-64186681D01*
X135461522Y-64125358D01*
X135466506Y-64055666D01*
X135508378Y-63999733D01*
X135573842Y-63975316D01*
X135582688Y-63975000D01*
X148450500Y-63975000D01*
X148517539Y-63994685D01*
X148563294Y-64047489D01*
X148574500Y-64099000D01*
X148574500Y-130650500D01*
X148554815Y-130717539D01*
X148502011Y-130763294D01*
X148450500Y-130774500D01*
X104199500Y-130774500D01*
X104132461Y-130754815D01*
X104086706Y-130702011D01*
X104075500Y-130650500D01*
X104075500Y-128421153D01*
X114199500Y-128421153D01*
X114199500Y-128578846D01*
X114230261Y-128733489D01*
X114230264Y-128733501D01*
X114290602Y-128879172D01*
X114290609Y-128879185D01*
X114378210Y-129010288D01*
X114378213Y-129010292D01*
X114489707Y-129121786D01*
X114489711Y-129121789D01*
X114620814Y-129209390D01*
X114620827Y-129209397D01*
X114766498Y-129269735D01*
X114766503Y-129269737D01*
X114892176Y-129294735D01*
X114921153Y-129300499D01*
X114921156Y-129300500D01*
X114921158Y-129300500D01*
X115078844Y-129300500D01*
X115078845Y-129300499D01*
X115233497Y-129269737D01*
X115360647Y-129217070D01*
X115379172Y-129209397D01*
X115379172Y-129209396D01*
X115379179Y-129209394D01*
X115461920Y-129154107D01*
X115528597Y-129133230D01*
X115595977Y-129151714D01*
X115642668Y-129203693D01*
X115645372Y-129209757D01*
X115713366Y-129373911D01*
X115713371Y-129373920D01*
X115822860Y-129537781D01*
X115822863Y-129537785D01*
X115962214Y-129677136D01*
X115962218Y-129677139D01*
X116126079Y-129786628D01*
X116126092Y-129786635D01*
X116308160Y-129862049D01*
X116308165Y-129862051D01*
X116308169Y-129862051D01*
X116308170Y-129862052D01*
X116431663Y-129886617D01*
X116493574Y-129919002D01*
X116527245Y-129976139D01*
X116558608Y-130093186D01*
X116624500Y-130207314D01*
X116717686Y-130300500D01*
X116831814Y-130366392D01*
X116959108Y-130400500D01*
X116959110Y-130400500D01*
X118040890Y-130400500D01*
X118040892Y-130400500D01*
X118168186Y-130366392D01*
X118282314Y-130300500D01*
X118312319Y-130270495D01*
X118373642Y-130237010D01*
X118443334Y-130241994D01*
X118487681Y-130270495D01*
X118517686Y-130300500D01*
X118631814Y-130366392D01*
X118759108Y-130400500D01*
X118759110Y-130400500D01*
X122790890Y-130400500D01*
X122790892Y-130400500D01*
X122918186Y-130366392D01*
X123032314Y-130300500D01*
X123062319Y-130270495D01*
X123123642Y-130237010D01*
X123193334Y-130241994D01*
X123237681Y-130270495D01*
X123267686Y-130300500D01*
X123381814Y-130366392D01*
X123509108Y-130400500D01*
X123509110Y-130400500D01*
X124590890Y-130400500D01*
X124590892Y-130400500D01*
X124718186Y-130366392D01*
X124832314Y-130300500D01*
X124925500Y-130207314D01*
X124991392Y-130093186D01*
X125022754Y-129976138D01*
X125059118Y-129916481D01*
X125118337Y-129886617D01*
X125171288Y-129876083D01*
X125241835Y-129862051D01*
X125388888Y-129801140D01*
X125423907Y-129786635D01*
X125423907Y-129786634D01*
X125423914Y-129786632D01*
X125587782Y-129677139D01*
X125727139Y-129537782D01*
X125836632Y-129373914D01*
X125912051Y-129191835D01*
X125943190Y-129035292D01*
X125950500Y-128998543D01*
X125950500Y-128823543D01*
X126899499Y-128823543D01*
X126937947Y-129016829D01*
X126937950Y-129016839D01*
X127013364Y-129198907D01*
X127013371Y-129198920D01*
X127122860Y-129362781D01*
X127122863Y-129362785D01*
X127262214Y-129502136D01*
X127262218Y-129502139D01*
X127426079Y-129611628D01*
X127426092Y-129611635D01*
X127584228Y-129677136D01*
X127608165Y-129687051D01*
X127608169Y-129687051D01*
X127608170Y-129687052D01*
X127731663Y-129711617D01*
X127793574Y-129744002D01*
X127827245Y-129801139D01*
X127858608Y-129918186D01*
X127924500Y-130032314D01*
X128017686Y-130125500D01*
X128131814Y-130191392D01*
X128259108Y-130225500D01*
X128259110Y-130225500D01*
X129340890Y-130225500D01*
X129340892Y-130225500D01*
X129468186Y-130191392D01*
X129582314Y-130125500D01*
X129612319Y-130095495D01*
X129673642Y-130062010D01*
X129743334Y-130066994D01*
X129787681Y-130095495D01*
X129817686Y-130125500D01*
X129931814Y-130191392D01*
X130059108Y-130225500D01*
X130059110Y-130225500D01*
X134090890Y-130225500D01*
X134090892Y-130225500D01*
X134218186Y-130191392D01*
X134332314Y-130125500D01*
X134362319Y-130095495D01*
X134423642Y-130062010D01*
X134493334Y-130066994D01*
X134537681Y-130095495D01*
X134567686Y-130125500D01*
X134681814Y-130191392D01*
X134809108Y-130225500D01*
X134809110Y-130225500D01*
X135890890Y-130225500D01*
X135890892Y-130225500D01*
X136018186Y-130191392D01*
X136132314Y-130125500D01*
X136225500Y-130032314D01*
X136291392Y-129918186D01*
X136322754Y-129801138D01*
X136359118Y-129741481D01*
X136418337Y-129711617D01*
X136471288Y-129701083D01*
X136541835Y-129687051D01*
X136723914Y-129611632D01*
X136887782Y-129502139D01*
X137027139Y-129362782D01*
X137118252Y-129226420D01*
X137171862Y-129181617D01*
X137241187Y-129172910D01*
X137290244Y-129192211D01*
X137353369Y-129234390D01*
X137353382Y-129234397D01*
X137452615Y-129275500D01*
X137499058Y-129294737D01*
X137653708Y-129325499D01*
X137653711Y-129325500D01*
X137653713Y-129325500D01*
X137811399Y-129325500D01*
X137811400Y-129325499D01*
X137966052Y-129294737D01*
X138111734Y-129234394D01*
X138242844Y-129146789D01*
X138354344Y-129035289D01*
X138441949Y-128904179D01*
X138502292Y-128758497D01*
X138533055Y-128603842D01*
X138533055Y-128446158D01*
X138533055Y-128446155D01*
X138533054Y-128446153D01*
X138502293Y-128291510D01*
X138502292Y-128291503D01*
X138478409Y-128233843D01*
X138441952Y-128145827D01*
X138441945Y-128145814D01*
X138354344Y-128014711D01*
X138354341Y-128014707D01*
X138242847Y-127903213D01*
X138242843Y-127903210D01*
X138111740Y-127815609D01*
X138111727Y-127815602D01*
X137966056Y-127755264D01*
X137966044Y-127755261D01*
X137811400Y-127724500D01*
X137811397Y-127724500D01*
X137653713Y-127724500D01*
X137653710Y-127724500D01*
X137499065Y-127755261D01*
X137499058Y-127755263D01*
X137414305Y-127790368D01*
X137344836Y-127797836D01*
X137282357Y-127766560D01*
X137246705Y-127706471D01*
X137245237Y-127699998D01*
X137212052Y-127533170D01*
X137212051Y-127533169D01*
X137212051Y-127533165D01*
X137200438Y-127505128D01*
X137136635Y-127351092D01*
X137136628Y-127351079D01*
X137027139Y-127187218D01*
X137027136Y-127187214D01*
X136887785Y-127047863D01*
X136887781Y-127047860D01*
X136723920Y-126938371D01*
X136723907Y-126938364D01*
X136541839Y-126862950D01*
X136541829Y-126862947D01*
X136348543Y-126824500D01*
X136348541Y-126824500D01*
X136151459Y-126824500D01*
X136151457Y-126824500D01*
X135958170Y-126862947D01*
X135958160Y-126862950D01*
X135776092Y-126938364D01*
X135776079Y-126938371D01*
X135612218Y-127047860D01*
X135612214Y-127047863D01*
X135472863Y-127187214D01*
X135472860Y-127187218D01*
X135363371Y-127351079D01*
X135363366Y-127351088D01*
X135316225Y-127464899D01*
X135272384Y-127519302D01*
X135206090Y-127541367D01*
X135138391Y-127524088D01*
X135113983Y-127505127D01*
X135039975Y-127431119D01*
X135039967Y-127431113D01*
X134888391Y-127329833D01*
X134888387Y-127329831D01*
X134719962Y-127260068D01*
X134719952Y-127260065D01*
X134541156Y-127224500D01*
X134541154Y-127224500D01*
X134358846Y-127224500D01*
X134358844Y-127224500D01*
X134180047Y-127260065D01*
X134180037Y-127260068D01*
X134011612Y-127329831D01*
X134011608Y-127329833D01*
X133860032Y-127431113D01*
X133860024Y-127431119D01*
X133731119Y-127560024D01*
X133731113Y-127560032D01*
X133629833Y-127711608D01*
X133629831Y-127711612D01*
X133560068Y-127880037D01*
X133560065Y-127880047D01*
X133524500Y-128058843D01*
X133524500Y-129100500D01*
X133504815Y-129167539D01*
X133452011Y-129213294D01*
X133400500Y-129224500D01*
X130749500Y-129224500D01*
X130682461Y-129204815D01*
X130636706Y-129152011D01*
X130625500Y-129100500D01*
X130625500Y-128058843D01*
X130589934Y-127880047D01*
X130589933Y-127880046D01*
X130589933Y-127880042D01*
X130563243Y-127815606D01*
X130520168Y-127711612D01*
X130520166Y-127711608D01*
X130418886Y-127560032D01*
X130418880Y-127560024D01*
X130289975Y-127431119D01*
X130289967Y-127431113D01*
X130138391Y-127329833D01*
X130138387Y-127329831D01*
X129969962Y-127260068D01*
X129969952Y-127260065D01*
X129791156Y-127224500D01*
X129791154Y-127224500D01*
X129608846Y-127224500D01*
X129608844Y-127224500D01*
X129430047Y-127260065D01*
X129430037Y-127260068D01*
X129261612Y-127329831D01*
X129261608Y-127329833D01*
X129110032Y-127431113D01*
X129110029Y-127431115D01*
X129036016Y-127505128D01*
X128974692Y-127538612D01*
X128905001Y-127533627D01*
X128849067Y-127491756D01*
X128833774Y-127464898D01*
X128786635Y-127351091D01*
X128786628Y-127351079D01*
X128677139Y-127187218D01*
X128677136Y-127187214D01*
X128537785Y-127047863D01*
X128537781Y-127047860D01*
X128373920Y-126938371D01*
X128373907Y-126938364D01*
X128191839Y-126862950D01*
X128191829Y-126862947D01*
X127998543Y-126824500D01*
X127998541Y-126824500D01*
X127801459Y-126824500D01*
X127801457Y-126824500D01*
X127608170Y-126862947D01*
X127608160Y-126862950D01*
X127426092Y-126938364D01*
X127426079Y-126938371D01*
X127262218Y-127047860D01*
X127262214Y-127047863D01*
X127122863Y-127187214D01*
X127122860Y-127187218D01*
X127013371Y-127351079D01*
X127013364Y-127351092D01*
X126937950Y-127533160D01*
X126937947Y-127533170D01*
X126899500Y-127726456D01*
X126899500Y-127726459D01*
X126899500Y-128823541D01*
X126899500Y-128823543D01*
X126899499Y-128823543D01*
X125950500Y-128823543D01*
X125950500Y-127901456D01*
X125950499Y-127901454D01*
X125919291Y-127744558D01*
X125913134Y-127713612D01*
X125912051Y-127708165D01*
X125906309Y-127694302D01*
X125836635Y-127526092D01*
X125836628Y-127526079D01*
X125727139Y-127362218D01*
X125727136Y-127362214D01*
X125587785Y-127222863D01*
X125587781Y-127222860D01*
X125423920Y-127113371D01*
X125423907Y-127113364D01*
X125241839Y-127037950D01*
X125241829Y-127037947D01*
X125048543Y-126999500D01*
X125048541Y-126999500D01*
X124851459Y-126999500D01*
X124851457Y-126999500D01*
X124658170Y-127037947D01*
X124658160Y-127037950D01*
X124476092Y-127113364D01*
X124476079Y-127113371D01*
X124312218Y-127222860D01*
X124312214Y-127222863D01*
X124172863Y-127362214D01*
X124172860Y-127362218D01*
X124063371Y-127526079D01*
X124063366Y-127526088D01*
X124016225Y-127639899D01*
X123972384Y-127694302D01*
X123906090Y-127716367D01*
X123838391Y-127699088D01*
X123813983Y-127680127D01*
X123739975Y-127606119D01*
X123739967Y-127606113D01*
X123588391Y-127504833D01*
X123588387Y-127504831D01*
X123419962Y-127435068D01*
X123419952Y-127435065D01*
X123241156Y-127399500D01*
X123241154Y-127399500D01*
X123058846Y-127399500D01*
X123058844Y-127399500D01*
X122880047Y-127435065D01*
X122880037Y-127435068D01*
X122711612Y-127504831D01*
X122711608Y-127504833D01*
X122560032Y-127606113D01*
X122560024Y-127606119D01*
X122431119Y-127735024D01*
X122431113Y-127735032D01*
X122329833Y-127886608D01*
X122329831Y-127886612D01*
X122260068Y-128055037D01*
X122260065Y-128055047D01*
X122224500Y-128233843D01*
X122224500Y-129275500D01*
X122204815Y-129342539D01*
X122152011Y-129388294D01*
X122100500Y-129399500D01*
X119449500Y-129399500D01*
X119382461Y-129379815D01*
X119336706Y-129327011D01*
X119325500Y-129275500D01*
X119325500Y-128233843D01*
X119289934Y-128055047D01*
X119289933Y-128055046D01*
X119289933Y-128055042D01*
X119289931Y-128055037D01*
X119220168Y-127886612D01*
X119220166Y-127886608D01*
X119118886Y-127735032D01*
X119118880Y-127735024D01*
X118989975Y-127606119D01*
X118989967Y-127606113D01*
X118838391Y-127504833D01*
X118838387Y-127504831D01*
X118669962Y-127435068D01*
X118669952Y-127435065D01*
X118491156Y-127399500D01*
X118491154Y-127399500D01*
X118308846Y-127399500D01*
X118308844Y-127399500D01*
X118130047Y-127435065D01*
X118130037Y-127435068D01*
X117961612Y-127504831D01*
X117961608Y-127504833D01*
X117810032Y-127606113D01*
X117810029Y-127606115D01*
X117736016Y-127680128D01*
X117674692Y-127713612D01*
X117605001Y-127708627D01*
X117549067Y-127666756D01*
X117533774Y-127639898D01*
X117486635Y-127526091D01*
X117486628Y-127526079D01*
X117377139Y-127362218D01*
X117377136Y-127362214D01*
X117237785Y-127222863D01*
X117237781Y-127222860D01*
X117073920Y-127113371D01*
X117073907Y-127113364D01*
X116891839Y-127037950D01*
X116891829Y-127037947D01*
X116698543Y-126999500D01*
X116698541Y-126999500D01*
X116501459Y-126999500D01*
X116501457Y-126999500D01*
X116308170Y-127037947D01*
X116308160Y-127037950D01*
X116126092Y-127113364D01*
X116126079Y-127113371D01*
X115962218Y-127222860D01*
X115962214Y-127222863D01*
X115822863Y-127362214D01*
X115822860Y-127362218D01*
X115713371Y-127526079D01*
X115713364Y-127526092D01*
X115637950Y-127708160D01*
X115637947Y-127708169D01*
X115629320Y-127751542D01*
X115596934Y-127813452D01*
X115536218Y-127848026D01*
X115466449Y-127844285D01*
X115438812Y-127830451D01*
X115379185Y-127790609D01*
X115379172Y-127790602D01*
X115233501Y-127730264D01*
X115233489Y-127730261D01*
X115078845Y-127699500D01*
X115078842Y-127699500D01*
X114921158Y-127699500D01*
X114921155Y-127699500D01*
X114766510Y-127730261D01*
X114766498Y-127730264D01*
X114620827Y-127790602D01*
X114620814Y-127790609D01*
X114489711Y-127878210D01*
X114489707Y-127878213D01*
X114378213Y-127989707D01*
X114378210Y-127989711D01*
X114290609Y-128120814D01*
X114290602Y-128120827D01*
X114230264Y-128266498D01*
X114230261Y-128266510D01*
X114199500Y-128421153D01*
X104075500Y-128421153D01*
X104075500Y-125248992D01*
X117524500Y-125248992D01*
X117524500Y-125651007D01*
X117563907Y-125849119D01*
X117563909Y-125849127D01*
X117641212Y-126035752D01*
X117641217Y-126035762D01*
X117753441Y-126203718D01*
X117896281Y-126346558D01*
X118064237Y-126458782D01*
X118064241Y-126458784D01*
X118064244Y-126458786D01*
X118250873Y-126536091D01*
X118448992Y-126575499D01*
X118448996Y-126575500D01*
X118448997Y-126575500D01*
X118651004Y-126575500D01*
X118651005Y-126575499D01*
X118849127Y-126536091D01*
X119035756Y-126458786D01*
X119203718Y-126346558D01*
X119346558Y-126203718D01*
X119458786Y-126035756D01*
X119536091Y-125849127D01*
X119575500Y-125651003D01*
X119575500Y-125248997D01*
X119575499Y-125248992D01*
X121974500Y-125248992D01*
X121974500Y-125651007D01*
X122013907Y-125849119D01*
X122013909Y-125849127D01*
X122091212Y-126035752D01*
X122091217Y-126035762D01*
X122203441Y-126203718D01*
X122346281Y-126346558D01*
X122514237Y-126458782D01*
X122514241Y-126458784D01*
X122514244Y-126458786D01*
X122700873Y-126536091D01*
X122898992Y-126575499D01*
X122898996Y-126575500D01*
X122898997Y-126575500D01*
X123101004Y-126575500D01*
X123101005Y-126575499D01*
X123299127Y-126536091D01*
X123485756Y-126458786D01*
X123653718Y-126346558D01*
X123796558Y-126203718D01*
X123908786Y-126035756D01*
X123986091Y-125849127D01*
X124025500Y-125651003D01*
X124025500Y-125248997D01*
X123990690Y-125073992D01*
X128824500Y-125073992D01*
X128824500Y-125476007D01*
X128863907Y-125674119D01*
X128863909Y-125674127D01*
X128941212Y-125860752D01*
X128941217Y-125860762D01*
X129053441Y-126028718D01*
X129196281Y-126171558D01*
X129364237Y-126283782D01*
X129364241Y-126283784D01*
X129364244Y-126283786D01*
X129550873Y-126361091D01*
X129748992Y-126400499D01*
X129748996Y-126400500D01*
X129748997Y-126400500D01*
X129951004Y-126400500D01*
X129951005Y-126400499D01*
X130149127Y-126361091D01*
X130335756Y-126283786D01*
X130503718Y-126171558D01*
X130646558Y-126028718D01*
X130758786Y-125860756D01*
X130836091Y-125674127D01*
X130875500Y-125476003D01*
X130875500Y-125073997D01*
X130875499Y-125073992D01*
X133274500Y-125073992D01*
X133274500Y-125476007D01*
X133313907Y-125674119D01*
X133313909Y-125674127D01*
X133391212Y-125860752D01*
X133391217Y-125860762D01*
X133503441Y-126028718D01*
X133646281Y-126171558D01*
X133814237Y-126283782D01*
X133814241Y-126283784D01*
X133814244Y-126283786D01*
X134000873Y-126361091D01*
X134198992Y-126400499D01*
X134198996Y-126400500D01*
X134198997Y-126400500D01*
X134401004Y-126400500D01*
X134401005Y-126400499D01*
X134599127Y-126361091D01*
X134785756Y-126283786D01*
X134953718Y-126171558D01*
X135096558Y-126028718D01*
X135208786Y-125860756D01*
X135286091Y-125674127D01*
X135325500Y-125476003D01*
X135325500Y-125073997D01*
X135286091Y-124875873D01*
X135208786Y-124689244D01*
X135208784Y-124689241D01*
X135208782Y-124689237D01*
X135096558Y-124521281D01*
X134953718Y-124378441D01*
X134785762Y-124266217D01*
X134785752Y-124266212D01*
X134599127Y-124188909D01*
X134599119Y-124188907D01*
X134401007Y-124149500D01*
X134401003Y-124149500D01*
X134198997Y-124149500D01*
X134198992Y-124149500D01*
X134000880Y-124188907D01*
X134000872Y-124188909D01*
X133814247Y-124266212D01*
X133814237Y-124266217D01*
X133646281Y-124378441D01*
X133503441Y-124521281D01*
X133391217Y-124689237D01*
X133391212Y-124689247D01*
X133313909Y-124875872D01*
X133313907Y-124875880D01*
X133274500Y-125073992D01*
X130875499Y-125073992D01*
X130836091Y-124875873D01*
X130758786Y-124689244D01*
X130758784Y-124689241D01*
X130758782Y-124689237D01*
X130646558Y-124521281D01*
X130503718Y-124378441D01*
X130335762Y-124266217D01*
X130335752Y-124266212D01*
X130149127Y-124188909D01*
X130149119Y-124188907D01*
X129951007Y-124149500D01*
X129951003Y-124149500D01*
X129748997Y-124149500D01*
X129748992Y-124149500D01*
X129550880Y-124188907D01*
X129550872Y-124188909D01*
X129364247Y-124266212D01*
X129364237Y-124266217D01*
X129196281Y-124378441D01*
X129053441Y-124521281D01*
X128941217Y-124689237D01*
X128941212Y-124689247D01*
X128863909Y-124875872D01*
X128863907Y-124875880D01*
X128824500Y-125073992D01*
X123990690Y-125073992D01*
X123986091Y-125050873D01*
X123908786Y-124864244D01*
X123908784Y-124864241D01*
X123908782Y-124864237D01*
X123796558Y-124696281D01*
X123653718Y-124553441D01*
X123485762Y-124441217D01*
X123485752Y-124441212D01*
X123299127Y-124363909D01*
X123299119Y-124363907D01*
X123101007Y-124324500D01*
X123101003Y-124324500D01*
X122898997Y-124324500D01*
X122898992Y-124324500D01*
X122700880Y-124363907D01*
X122700872Y-124363909D01*
X122514247Y-124441212D01*
X122514237Y-124441217D01*
X122346281Y-124553441D01*
X122203441Y-124696281D01*
X122091217Y-124864237D01*
X122091212Y-124864247D01*
X122013909Y-125050872D01*
X122013907Y-125050880D01*
X121974500Y-125248992D01*
X119575499Y-125248992D01*
X119536091Y-125050873D01*
X119458786Y-124864244D01*
X119458784Y-124864241D01*
X119458782Y-124864237D01*
X119346558Y-124696281D01*
X119203718Y-124553441D01*
X119035762Y-124441217D01*
X119035752Y-124441212D01*
X118849127Y-124363909D01*
X118849119Y-124363907D01*
X118651007Y-124324500D01*
X118651003Y-124324500D01*
X118448997Y-124324500D01*
X118448992Y-124324500D01*
X118250880Y-124363907D01*
X118250872Y-124363909D01*
X118064247Y-124441212D01*
X118064237Y-124441217D01*
X117896281Y-124553441D01*
X117753441Y-124696281D01*
X117641217Y-124864237D01*
X117641212Y-124864247D01*
X117563909Y-125050872D01*
X117563907Y-125050880D01*
X117524500Y-125248992D01*
X104075500Y-125248992D01*
X104075500Y-122921153D01*
X114699500Y-122921153D01*
X114699500Y-123078846D01*
X114730261Y-123233489D01*
X114730264Y-123233501D01*
X114790602Y-123379172D01*
X114790609Y-123379185D01*
X114878210Y-123510288D01*
X114878213Y-123510292D01*
X114989707Y-123621786D01*
X114989711Y-123621789D01*
X115120814Y-123709390D01*
X115120827Y-123709397D01*
X115266498Y-123769735D01*
X115266503Y-123769737D01*
X115421153Y-123800499D01*
X115421156Y-123800500D01*
X115421158Y-123800500D01*
X115578844Y-123800500D01*
X115578845Y-123800499D01*
X115733497Y-123769737D01*
X115879179Y-123709394D01*
X116010289Y-123621789D01*
X116121789Y-123510289D01*
X116209394Y-123379179D01*
X116269737Y-123233497D01*
X116300500Y-123078842D01*
X116300500Y-122921158D01*
X116300500Y-122921155D01*
X116300499Y-122921153D01*
X116269738Y-122766510D01*
X116269737Y-122766503D01*
X116256062Y-122733489D01*
X116209397Y-122620827D01*
X116209390Y-122620814D01*
X116121790Y-122489712D01*
X116121784Y-122489705D01*
X116053232Y-122421153D01*
X124699500Y-122421153D01*
X124699500Y-122578846D01*
X124730261Y-122733489D01*
X124730264Y-122733501D01*
X124790602Y-122879172D01*
X124790609Y-122879185D01*
X124878210Y-123010288D01*
X124878213Y-123010292D01*
X124989707Y-123121786D01*
X124989711Y-123121789D01*
X125120814Y-123209390D01*
X125120827Y-123209397D01*
X125266498Y-123269735D01*
X125266503Y-123269737D01*
X125421153Y-123300499D01*
X125421156Y-123300500D01*
X125421158Y-123300500D01*
X125578844Y-123300500D01*
X125578845Y-123300499D01*
X125733497Y-123269737D01*
X125879179Y-123209394D01*
X126010289Y-123121789D01*
X126121789Y-123010289D01*
X126209394Y-122879179D01*
X126269737Y-122733497D01*
X126300500Y-122578842D01*
X126300500Y-122421158D01*
X126300500Y-122421155D01*
X126300499Y-122421153D01*
X132099500Y-122421153D01*
X132099500Y-122578846D01*
X132130261Y-122733489D01*
X132130264Y-122733501D01*
X132190602Y-122879172D01*
X132190609Y-122879185D01*
X132278210Y-123010288D01*
X132278213Y-123010292D01*
X132389707Y-123121786D01*
X132389711Y-123121789D01*
X132520814Y-123209390D01*
X132520827Y-123209397D01*
X132666498Y-123269735D01*
X132666503Y-123269737D01*
X132821153Y-123300499D01*
X132821156Y-123300500D01*
X132821158Y-123300500D01*
X132978844Y-123300500D01*
X132978845Y-123300499D01*
X133133497Y-123269737D01*
X133279179Y-123209394D01*
X133410289Y-123121789D01*
X133521789Y-123010289D01*
X133609394Y-122879179D01*
X133669737Y-122733497D01*
X133700500Y-122578842D01*
X133700500Y-122421158D01*
X133700500Y-122421155D01*
X133700499Y-122421153D01*
X133674531Y-122290606D01*
X133669737Y-122266503D01*
X133658266Y-122238809D01*
X133609397Y-122120827D01*
X133609390Y-122120814D01*
X133521789Y-121989711D01*
X133521786Y-121989707D01*
X133410292Y-121878213D01*
X133410288Y-121878210D01*
X133279185Y-121790609D01*
X133279172Y-121790602D01*
X133133501Y-121730264D01*
X133133489Y-121730261D01*
X132978845Y-121699500D01*
X132978842Y-121699500D01*
X132821158Y-121699500D01*
X132821155Y-121699500D01*
X132666510Y-121730261D01*
X132666498Y-121730264D01*
X132520827Y-121790602D01*
X132520814Y-121790609D01*
X132389711Y-121878210D01*
X132389707Y-121878213D01*
X132278213Y-121989707D01*
X132278210Y-121989711D01*
X132190609Y-122120814D01*
X132190602Y-122120827D01*
X132130264Y-122266498D01*
X132130261Y-122266510D01*
X132099500Y-122421153D01*
X126300499Y-122421153D01*
X126274531Y-122290606D01*
X126269737Y-122266503D01*
X126258266Y-122238809D01*
X126209397Y-122120827D01*
X126209390Y-122120814D01*
X126121789Y-121989711D01*
X126121786Y-121989707D01*
X126010292Y-121878213D01*
X126010288Y-121878210D01*
X125879185Y-121790609D01*
X125879172Y-121790602D01*
X125733501Y-121730264D01*
X125733489Y-121730261D01*
X125578845Y-121699500D01*
X125578842Y-121699500D01*
X125421158Y-121699500D01*
X125421155Y-121699500D01*
X125266510Y-121730261D01*
X125266498Y-121730264D01*
X125120827Y-121790602D01*
X125120814Y-121790609D01*
X124989711Y-121878210D01*
X124989707Y-121878213D01*
X124878213Y-121989707D01*
X124878210Y-121989711D01*
X124790609Y-122120814D01*
X124790602Y-122120827D01*
X124730264Y-122266498D01*
X124730261Y-122266510D01*
X124699500Y-122421153D01*
X116053232Y-122421153D01*
X116010292Y-122378213D01*
X116010288Y-122378210D01*
X115879185Y-122290609D01*
X115879172Y-122290602D01*
X115733501Y-122230264D01*
X115733489Y-122230261D01*
X115578845Y-122199500D01*
X115578842Y-122199500D01*
X115421158Y-122199500D01*
X115421155Y-122199500D01*
X115266510Y-122230261D01*
X115266498Y-122230264D01*
X115120827Y-122290602D01*
X115120814Y-122290609D01*
X114989711Y-122378210D01*
X114989707Y-122378213D01*
X114878213Y-122489707D01*
X114878210Y-122489711D01*
X114790609Y-122620814D01*
X114790602Y-122620827D01*
X114730264Y-122766498D01*
X114730261Y-122766510D01*
X114699500Y-122921153D01*
X104075500Y-122921153D01*
X104075500Y-121359462D01*
X121949593Y-121359462D01*
X121949593Y-121517155D01*
X121980354Y-121671798D01*
X121980357Y-121671810D01*
X122040695Y-121817481D01*
X122040702Y-121817494D01*
X122128303Y-121948597D01*
X122128306Y-121948601D01*
X122239800Y-122060095D01*
X122239804Y-122060098D01*
X122370907Y-122147699D01*
X122370920Y-122147706D01*
X122495964Y-122199500D01*
X122516596Y-122208046D01*
X122628278Y-122230261D01*
X122671246Y-122238808D01*
X122671249Y-122238809D01*
X122671251Y-122238809D01*
X122828937Y-122238809D01*
X122828938Y-122238808D01*
X122983590Y-122208046D01*
X123129272Y-122147703D01*
X123260382Y-122060098D01*
X123371882Y-121948598D01*
X123459487Y-121817488D01*
X123519830Y-121671806D01*
X123550593Y-121517151D01*
X123550593Y-121417890D01*
X134968494Y-121417890D01*
X134968494Y-121575583D01*
X134999255Y-121730226D01*
X134999258Y-121730238D01*
X135059596Y-121875909D01*
X135059603Y-121875922D01*
X135147204Y-122007025D01*
X135147207Y-122007029D01*
X135258701Y-122118523D01*
X135258705Y-122118526D01*
X135389808Y-122206127D01*
X135389821Y-122206134D01*
X135468707Y-122238809D01*
X135535497Y-122266474D01*
X135656796Y-122290602D01*
X135690147Y-122297236D01*
X135690150Y-122297237D01*
X135690152Y-122297237D01*
X135847838Y-122297237D01*
X135847839Y-122297236D01*
X136002491Y-122266474D01*
X136115160Y-122219804D01*
X136148166Y-122206134D01*
X136148166Y-122206133D01*
X136148173Y-122206131D01*
X136279283Y-122118526D01*
X136390783Y-122007026D01*
X136478388Y-121875916D01*
X136538731Y-121730234D01*
X136569494Y-121575579D01*
X136569494Y-121417895D01*
X136569494Y-121417892D01*
X136569493Y-121417890D01*
X136538732Y-121263247D01*
X136538731Y-121263240D01*
X136538729Y-121263235D01*
X136478391Y-121117564D01*
X136478384Y-121117551D01*
X136390783Y-120986448D01*
X136390780Y-120986444D01*
X136279286Y-120874950D01*
X136279282Y-120874947D01*
X136148179Y-120787346D01*
X136148166Y-120787339D01*
X136002495Y-120727001D01*
X136002483Y-120726998D01*
X135847839Y-120696237D01*
X135847836Y-120696237D01*
X135690152Y-120696237D01*
X135690149Y-120696237D01*
X135535504Y-120726998D01*
X135535492Y-120727001D01*
X135389821Y-120787339D01*
X135389808Y-120787346D01*
X135258705Y-120874947D01*
X135258701Y-120874950D01*
X135147207Y-120986444D01*
X135147204Y-120986448D01*
X135059603Y-121117551D01*
X135059596Y-121117564D01*
X134999258Y-121263235D01*
X134999255Y-121263247D01*
X134968494Y-121417890D01*
X123550593Y-121417890D01*
X123550593Y-121359467D01*
X123550593Y-121359464D01*
X123550592Y-121359462D01*
X123519830Y-121204812D01*
X123483691Y-121117564D01*
X123459490Y-121059136D01*
X123459483Y-121059123D01*
X123371882Y-120928020D01*
X123371879Y-120928016D01*
X123260385Y-120816522D01*
X123260381Y-120816519D01*
X123129278Y-120728918D01*
X123129265Y-120728911D01*
X122983594Y-120668573D01*
X122983582Y-120668570D01*
X122828938Y-120637809D01*
X122828935Y-120637809D01*
X122671251Y-120637809D01*
X122671248Y-120637809D01*
X122516603Y-120668570D01*
X122516591Y-120668573D01*
X122370920Y-120728911D01*
X122370907Y-120728918D01*
X122239804Y-120816519D01*
X122239800Y-120816522D01*
X122128306Y-120928016D01*
X122128303Y-120928020D01*
X122040702Y-121059123D01*
X122040695Y-121059136D01*
X121980357Y-121204807D01*
X121980354Y-121204819D01*
X121949593Y-121359462D01*
X104075500Y-121359462D01*
X104075500Y-65097135D01*
X105224500Y-65097135D01*
X105224500Y-66892870D01*
X105224501Y-66892876D01*
X105230908Y-66952483D01*
X105281202Y-67087328D01*
X105281206Y-67087335D01*
X105367452Y-67202544D01*
X105367455Y-67202547D01*
X105482664Y-67288793D01*
X105482671Y-67288797D01*
X105614082Y-67337810D01*
X105670016Y-67379681D01*
X105694433Y-67445145D01*
X105679582Y-67513418D01*
X105658431Y-67541673D01*
X105544889Y-67655215D01*
X105419951Y-67827179D01*
X105323444Y-68016585D01*
X105257753Y-68218760D01*
X105224500Y-68428713D01*
X105224500Y-68641286D01*
X105245082Y-68771239D01*
X105257754Y-68851243D01*
X105297449Y-68973412D01*
X105323444Y-69053414D01*
X105419951Y-69242820D01*
X105544890Y-69414786D01*
X105695213Y-69565109D01*
X105867182Y-69690050D01*
X105875946Y-69694516D01*
X105926742Y-69742491D01*
X105943536Y-69810312D01*
X105920998Y-69876447D01*
X105875946Y-69915484D01*
X105867182Y-69919949D01*
X105695213Y-70044890D01*
X105544890Y-70195213D01*
X105419951Y-70367179D01*
X105323444Y-70556585D01*
X105257753Y-70758760D01*
X105224500Y-70968713D01*
X105224500Y-71181286D01*
X105245082Y-71311239D01*
X105257754Y-71391243D01*
X105297449Y-71513412D01*
X105323444Y-71593414D01*
X105419951Y-71782820D01*
X105544890Y-71954786D01*
X105695213Y-72105109D01*
X105867182Y-72230050D01*
X105875946Y-72234516D01*
X105926742Y-72282491D01*
X105943536Y-72350312D01*
X105920998Y-72416447D01*
X105875946Y-72455484D01*
X105867182Y-72459949D01*
X105695213Y-72584890D01*
X105544890Y-72735213D01*
X105419951Y-72907179D01*
X105323444Y-73096585D01*
X105257753Y-73298760D01*
X105224500Y-73508713D01*
X105224500Y-73721286D01*
X105245082Y-73851239D01*
X105257754Y-73931243D01*
X105297449Y-74053412D01*
X105323444Y-74133414D01*
X105419951Y-74322820D01*
X105544890Y-74494786D01*
X105695213Y-74645109D01*
X105867182Y-74770050D01*
X105875946Y-74774516D01*
X105926742Y-74822491D01*
X105943536Y-74890312D01*
X105920998Y-74956447D01*
X105875946Y-74995484D01*
X105867182Y-74999949D01*
X105695213Y-75124890D01*
X105544890Y-75275213D01*
X105419951Y-75447179D01*
X105323444Y-75636585D01*
X105257753Y-75838760D01*
X105224500Y-76048713D01*
X105224500Y-76261286D01*
X105250197Y-76423535D01*
X105257754Y-76471243D01*
X105297449Y-76593412D01*
X105323444Y-76673414D01*
X105419951Y-76862820D01*
X105544890Y-77034786D01*
X105695213Y-77185109D01*
X105867182Y-77310050D01*
X105875946Y-77314516D01*
X105926742Y-77362491D01*
X105943536Y-77430312D01*
X105920998Y-77496447D01*
X105875946Y-77535484D01*
X105867182Y-77539949D01*
X105695213Y-77664890D01*
X105544890Y-77815213D01*
X105419951Y-77987179D01*
X105323444Y-78176585D01*
X105257753Y-78378760D01*
X105224500Y-78588713D01*
X105224500Y-78801286D01*
X105245082Y-78931239D01*
X105257754Y-79011243D01*
X105316444Y-79191872D01*
X105323444Y-79213414D01*
X105419951Y-79402820D01*
X105544890Y-79574786D01*
X105695213Y-79725109D01*
X105867182Y-79850050D01*
X105875946Y-79854516D01*
X105926742Y-79902491D01*
X105943536Y-79970312D01*
X105920998Y-80036447D01*
X105875946Y-80075484D01*
X105867182Y-80079949D01*
X105695213Y-80204890D01*
X105544890Y-80355213D01*
X105419951Y-80527179D01*
X105323444Y-80716585D01*
X105257753Y-80918760D01*
X105229000Y-81100301D01*
X105224500Y-81128713D01*
X105224500Y-81341287D01*
X105234534Y-81404644D01*
X105245082Y-81471239D01*
X105257754Y-81551243D01*
X105297449Y-81673412D01*
X105323444Y-81753414D01*
X105419951Y-81942820D01*
X105544890Y-82114786D01*
X105695213Y-82265109D01*
X105867182Y-82390050D01*
X105875946Y-82394516D01*
X105926742Y-82442491D01*
X105943536Y-82510312D01*
X105920998Y-82576447D01*
X105875946Y-82615484D01*
X105867182Y-82619949D01*
X105695213Y-82744890D01*
X105544890Y-82895213D01*
X105419951Y-83067179D01*
X105323444Y-83256585D01*
X105257753Y-83458760D01*
X105224500Y-83668713D01*
X105224500Y-83881286D01*
X105245082Y-84011239D01*
X105257754Y-84091243D01*
X105297449Y-84213412D01*
X105323444Y-84293414D01*
X105419951Y-84482820D01*
X105544890Y-84654786D01*
X105695213Y-84805109D01*
X105867182Y-84930050D01*
X105875946Y-84934516D01*
X105926742Y-84982491D01*
X105943536Y-85050312D01*
X105920998Y-85116447D01*
X105875946Y-85155484D01*
X105867182Y-85159949D01*
X105695213Y-85284890D01*
X105544890Y-85435213D01*
X105419951Y-85607179D01*
X105323444Y-85796585D01*
X105257753Y-85998760D01*
X105224500Y-86208713D01*
X105224500Y-86421286D01*
X105245082Y-86551239D01*
X105257754Y-86631243D01*
X105297449Y-86753412D01*
X105323444Y-86833414D01*
X105419951Y-87022820D01*
X105544890Y-87194786D01*
X105695213Y-87345109D01*
X105867182Y-87470050D01*
X105875946Y-87474516D01*
X105926742Y-87522491D01*
X105943536Y-87590312D01*
X105920998Y-87656447D01*
X105875946Y-87695484D01*
X105867182Y-87699949D01*
X105695213Y-87824890D01*
X105544890Y-87975213D01*
X105419951Y-88147179D01*
X105323444Y-88336585D01*
X105257753Y-88538760D01*
X105224500Y-88748713D01*
X105224500Y-88961286D01*
X105245082Y-89091239D01*
X105257754Y-89171243D01*
X105297449Y-89293412D01*
X105323444Y-89373414D01*
X105419951Y-89562820D01*
X105544890Y-89734786D01*
X105695213Y-89885109D01*
X105867182Y-90010050D01*
X105875946Y-90014516D01*
X105926742Y-90062491D01*
X105943536Y-90130312D01*
X105920998Y-90196447D01*
X105875946Y-90235484D01*
X105867182Y-90239949D01*
X105695213Y-90364890D01*
X105544890Y-90515213D01*
X105419951Y-90687179D01*
X105323444Y-90876585D01*
X105257753Y-91078760D01*
X105224500Y-91288713D01*
X105224500Y-91501286D01*
X105245082Y-91631239D01*
X105257754Y-91711243D01*
X105297449Y-91833412D01*
X105323444Y-91913414D01*
X105419951Y-92102820D01*
X105544890Y-92274786D01*
X105695213Y-92425109D01*
X105867182Y-92550050D01*
X105875946Y-92554516D01*
X105926742Y-92602491D01*
X105943536Y-92670312D01*
X105920998Y-92736447D01*
X105875946Y-92775484D01*
X105867182Y-92779949D01*
X105695213Y-92904890D01*
X105544890Y-93055213D01*
X105419951Y-93227179D01*
X105323444Y-93416585D01*
X105257753Y-93618760D01*
X105224500Y-93828713D01*
X105224500Y-94041286D01*
X105254943Y-94233500D01*
X105257754Y-94251243D01*
X105297449Y-94373412D01*
X105323444Y-94453414D01*
X105419951Y-94642820D01*
X105544890Y-94814786D01*
X105695213Y-94965109D01*
X105867182Y-95090050D01*
X105875946Y-95094516D01*
X105926742Y-95142491D01*
X105943536Y-95210312D01*
X105920998Y-95276447D01*
X105875946Y-95315484D01*
X105867182Y-95319949D01*
X105695213Y-95444890D01*
X105544890Y-95595213D01*
X105419951Y-95767179D01*
X105323444Y-95956585D01*
X105257753Y-96158760D01*
X105240630Y-96266872D01*
X105224500Y-96368713D01*
X105224500Y-96581287D01*
X105228525Y-96606697D01*
X105251957Y-96754646D01*
X105257754Y-96791243D01*
X105297857Y-96914668D01*
X105323444Y-96993414D01*
X105419951Y-97182820D01*
X105544890Y-97354786D01*
X105695213Y-97505109D01*
X105867182Y-97630050D01*
X105875946Y-97634516D01*
X105926742Y-97682491D01*
X105943536Y-97750312D01*
X105920998Y-97816447D01*
X105875946Y-97855484D01*
X105867182Y-97859949D01*
X105695213Y-97984890D01*
X105544890Y-98135213D01*
X105419951Y-98307179D01*
X105323444Y-98496585D01*
X105257753Y-98698760D01*
X105224500Y-98908713D01*
X105224500Y-99121286D01*
X105251317Y-99290606D01*
X105257754Y-99331243D01*
X105309242Y-99489707D01*
X105323444Y-99533414D01*
X105419951Y-99722820D01*
X105544890Y-99894786D01*
X105695213Y-100045109D01*
X105867182Y-100170050D01*
X105875946Y-100174516D01*
X105926742Y-100222491D01*
X105943536Y-100290312D01*
X105920998Y-100356447D01*
X105875946Y-100395484D01*
X105867182Y-100399949D01*
X105695213Y-100524890D01*
X105544890Y-100675213D01*
X105419951Y-100847179D01*
X105323444Y-101036585D01*
X105257753Y-101238760D01*
X105224500Y-101448713D01*
X105224500Y-101661286D01*
X105245082Y-101791239D01*
X105257754Y-101871243D01*
X105299628Y-102000118D01*
X105323444Y-102073414D01*
X105419951Y-102262820D01*
X105544890Y-102434786D01*
X105695213Y-102585109D01*
X105867182Y-102710050D01*
X105875946Y-102714516D01*
X105926742Y-102762491D01*
X105943536Y-102830312D01*
X105920998Y-102896447D01*
X105875946Y-102935484D01*
X105867182Y-102939949D01*
X105695213Y-103064890D01*
X105544890Y-103215213D01*
X105419951Y-103387179D01*
X105323444Y-103576585D01*
X105257753Y-103778760D01*
X105224500Y-103988713D01*
X105224500Y-104201286D01*
X105245082Y-104331239D01*
X105257754Y-104411243D01*
X105312654Y-104580208D01*
X105323444Y-104613414D01*
X105419951Y-104802820D01*
X105544890Y-104974786D01*
X105695213Y-105125109D01*
X105867182Y-105250050D01*
X105875946Y-105254516D01*
X105926742Y-105302491D01*
X105943536Y-105370312D01*
X105920998Y-105436447D01*
X105875946Y-105475484D01*
X105867182Y-105479949D01*
X105695213Y-105604890D01*
X105544890Y-105755213D01*
X105419951Y-105927179D01*
X105323444Y-106116585D01*
X105257753Y-106318760D01*
X105224500Y-106528713D01*
X105224500Y-106741286D01*
X105253779Y-106926151D01*
X105257754Y-106951243D01*
X105297449Y-107073412D01*
X105323444Y-107153414D01*
X105419951Y-107342820D01*
X105544890Y-107514786D01*
X105695213Y-107665109D01*
X105867182Y-107790050D01*
X105875946Y-107794516D01*
X105926742Y-107842491D01*
X105943536Y-107910312D01*
X105920998Y-107976447D01*
X105875946Y-108015484D01*
X105867182Y-108019949D01*
X105695213Y-108144890D01*
X105544890Y-108295213D01*
X105419951Y-108467179D01*
X105323444Y-108656585D01*
X105257753Y-108858760D01*
X105224500Y-109068713D01*
X105224500Y-109281286D01*
X105252564Y-109458479D01*
X105257754Y-109491243D01*
X105322251Y-109689744D01*
X105323444Y-109693414D01*
X105419951Y-109882820D01*
X105544890Y-110054786D01*
X105695213Y-110205109D01*
X105867182Y-110330050D01*
X105875946Y-110334516D01*
X105926742Y-110382491D01*
X105943536Y-110450312D01*
X105920998Y-110516447D01*
X105875946Y-110555484D01*
X105867182Y-110559949D01*
X105695213Y-110684890D01*
X105544890Y-110835213D01*
X105419951Y-111007179D01*
X105323444Y-111196585D01*
X105257753Y-111398760D01*
X105224500Y-111608713D01*
X105224500Y-111821286D01*
X105257753Y-112031239D01*
X105257753Y-112031241D01*
X105257754Y-112031243D01*
X105322433Y-112230305D01*
X105323444Y-112233414D01*
X105419951Y-112422820D01*
X105544890Y-112594786D01*
X105695213Y-112745109D01*
X105867182Y-112870050D01*
X105875946Y-112874516D01*
X105926742Y-112922491D01*
X105943536Y-112990312D01*
X105920998Y-113056447D01*
X105875946Y-113095484D01*
X105867182Y-113099949D01*
X105695213Y-113224890D01*
X105544890Y-113375213D01*
X105419951Y-113547179D01*
X105323444Y-113736585D01*
X105257753Y-113938760D01*
X105224500Y-114148713D01*
X105224500Y-114361286D01*
X105245082Y-114491239D01*
X105257754Y-114571243D01*
X105297449Y-114693412D01*
X105323444Y-114773414D01*
X105419951Y-114962820D01*
X105544890Y-115134786D01*
X105695213Y-115285109D01*
X105867182Y-115410050D01*
X105875946Y-115414516D01*
X105926742Y-115462491D01*
X105943536Y-115530312D01*
X105920998Y-115596447D01*
X105875946Y-115635484D01*
X105867182Y-115639949D01*
X105695213Y-115764890D01*
X105544890Y-115915213D01*
X105419951Y-116087179D01*
X105323444Y-116276585D01*
X105257753Y-116478760D01*
X105224500Y-116688713D01*
X105224500Y-116901286D01*
X105245082Y-117031239D01*
X105257754Y-117111243D01*
X105308201Y-117266503D01*
X105323444Y-117313414D01*
X105419951Y-117502820D01*
X105544890Y-117674786D01*
X105695213Y-117825109D01*
X105867182Y-117950050D01*
X105875946Y-117954516D01*
X105926742Y-118002491D01*
X105943536Y-118070312D01*
X105920998Y-118136447D01*
X105875946Y-118175484D01*
X105867182Y-118179949D01*
X105695213Y-118304890D01*
X105544890Y-118455213D01*
X105419951Y-118627179D01*
X105323444Y-118816585D01*
X105257753Y-119018760D01*
X105237171Y-119148713D01*
X105224500Y-119228713D01*
X105224500Y-119441287D01*
X105226478Y-119453774D01*
X105257193Y-119647706D01*
X105257754Y-119651243D01*
X105306576Y-119801502D01*
X105323444Y-119853414D01*
X105419951Y-120042820D01*
X105544890Y-120214786D01*
X105695213Y-120365109D01*
X105867179Y-120490048D01*
X105867181Y-120490049D01*
X105867184Y-120490051D01*
X106056588Y-120586557D01*
X106258757Y-120652246D01*
X106468713Y-120685500D01*
X106468714Y-120685500D01*
X106681286Y-120685500D01*
X106681287Y-120685500D01*
X106891243Y-120652246D01*
X107093412Y-120586557D01*
X107282816Y-120490051D01*
X107304789Y-120474086D01*
X107454786Y-120365109D01*
X107454788Y-120365106D01*
X107454792Y-120365104D01*
X107605104Y-120214792D01*
X107613798Y-120202825D01*
X127957167Y-120202825D01*
X127957167Y-120360518D01*
X127987928Y-120515161D01*
X127987931Y-120515173D01*
X128048269Y-120660844D01*
X128048276Y-120660857D01*
X128135877Y-120791960D01*
X128135880Y-120791964D01*
X128247374Y-120903458D01*
X128247378Y-120903461D01*
X128378481Y-120991062D01*
X128378494Y-120991069D01*
X128524165Y-121051407D01*
X128524170Y-121051409D01*
X128678820Y-121082171D01*
X128678823Y-121082172D01*
X128678825Y-121082172D01*
X128836511Y-121082172D01*
X128836512Y-121082171D01*
X128991164Y-121051409D01*
X129136846Y-120991066D01*
X129267956Y-120903461D01*
X129379456Y-120791961D01*
X129467061Y-120660851D01*
X129527404Y-120515169D01*
X129558167Y-120360514D01*
X129558167Y-120202830D01*
X129558167Y-120202827D01*
X129558166Y-120202825D01*
X129527405Y-120048182D01*
X129527404Y-120048175D01*
X129525186Y-120042820D01*
X129467064Y-119902499D01*
X129467057Y-119902486D01*
X129379456Y-119771383D01*
X129379453Y-119771379D01*
X129267959Y-119659885D01*
X129267955Y-119659882D01*
X129136852Y-119572281D01*
X129136839Y-119572274D01*
X128991168Y-119511936D01*
X128991156Y-119511933D01*
X128836512Y-119481172D01*
X128836509Y-119481172D01*
X128678825Y-119481172D01*
X128678822Y-119481172D01*
X128524177Y-119511933D01*
X128524165Y-119511936D01*
X128378494Y-119572274D01*
X128378481Y-119572281D01*
X128247378Y-119659882D01*
X128247374Y-119659885D01*
X128135880Y-119771379D01*
X128135877Y-119771383D01*
X128048276Y-119902486D01*
X128048269Y-119902499D01*
X127987931Y-120048170D01*
X127987928Y-120048182D01*
X127957167Y-120202825D01*
X107613798Y-120202825D01*
X107730051Y-120042816D01*
X107826557Y-119853412D01*
X107892246Y-119651243D01*
X107925500Y-119441287D01*
X107925500Y-119228713D01*
X107892246Y-119018757D01*
X107826557Y-118816588D01*
X107730051Y-118627184D01*
X107730049Y-118627181D01*
X107730048Y-118627179D01*
X107605109Y-118455213D01*
X107454786Y-118304890D01*
X107282820Y-118179951D01*
X107282115Y-118179591D01*
X107274054Y-118175485D01*
X107223259Y-118127512D01*
X107206463Y-118059692D01*
X107228999Y-117993556D01*
X107274054Y-117954515D01*
X107282816Y-117950051D01*
X107320749Y-117922491D01*
X107454786Y-117825109D01*
X107454788Y-117825106D01*
X107454792Y-117825104D01*
X107605104Y-117674792D01*
X107605106Y-117674788D01*
X107605109Y-117674786D01*
X107674815Y-117578842D01*
X107730051Y-117502816D01*
X107771660Y-117421153D01*
X113699500Y-117421153D01*
X113699500Y-117578846D01*
X113730261Y-117733489D01*
X113730264Y-117733501D01*
X113790602Y-117879172D01*
X113790609Y-117879185D01*
X113878210Y-118010288D01*
X113878213Y-118010292D01*
X113989707Y-118121786D01*
X113989711Y-118121789D01*
X114120814Y-118209390D01*
X114120827Y-118209397D01*
X114247894Y-118262029D01*
X114266503Y-118269737D01*
X114293423Y-118275091D01*
X114315624Y-118279508D01*
X114377535Y-118311892D01*
X114412109Y-118372608D01*
X114408370Y-118442377D01*
X114381706Y-118484697D01*
X114382076Y-118485001D01*
X114379661Y-118487942D01*
X114379123Y-118488798D01*
X114378212Y-118489708D01*
X114378210Y-118489711D01*
X114290609Y-118620814D01*
X114290602Y-118620827D01*
X114230264Y-118766498D01*
X114230261Y-118766510D01*
X114199500Y-118921153D01*
X114199500Y-119078846D01*
X114230261Y-119233489D01*
X114230264Y-119233501D01*
X114290602Y-119379172D01*
X114290609Y-119379185D01*
X114378210Y-119510288D01*
X114378213Y-119510292D01*
X114489707Y-119621786D01*
X114489711Y-119621789D01*
X114620814Y-119709390D01*
X114620827Y-119709397D01*
X114697516Y-119741162D01*
X114766503Y-119769737D01*
X114921153Y-119800499D01*
X114921156Y-119800500D01*
X114921158Y-119800500D01*
X115078844Y-119800500D01*
X115078845Y-119800499D01*
X115233497Y-119769737D01*
X115379179Y-119709394D01*
X115510289Y-119621789D01*
X115621789Y-119510289D01*
X115709394Y-119379179D01*
X115716806Y-119361286D01*
X115756578Y-119265266D01*
X115769737Y-119233497D01*
X115800500Y-119078842D01*
X115800500Y-118921158D01*
X115800500Y-118921155D01*
X115800499Y-118921153D01*
X115781469Y-118825478D01*
X115777868Y-118807374D01*
X117844740Y-118807374D01*
X117844740Y-118965067D01*
X117875501Y-119119710D01*
X117875504Y-119119722D01*
X117935842Y-119265393D01*
X117935849Y-119265406D01*
X118023450Y-119396509D01*
X118023453Y-119396513D01*
X118134947Y-119508007D01*
X118134951Y-119508010D01*
X118266054Y-119595611D01*
X118266067Y-119595618D01*
X118391828Y-119647709D01*
X118411743Y-119655958D01*
X118524918Y-119678470D01*
X118566393Y-119686720D01*
X118566396Y-119686721D01*
X118566398Y-119686721D01*
X118724084Y-119686721D01*
X118724085Y-119686720D01*
X118878737Y-119655958D01*
X119024419Y-119595615D01*
X119155529Y-119508010D01*
X119181264Y-119482274D01*
X119242585Y-119448790D01*
X119312277Y-119453774D01*
X119368211Y-119495644D01*
X119372046Y-119501063D01*
X119378211Y-119510290D01*
X119489707Y-119621786D01*
X119489711Y-119621789D01*
X119620814Y-119709390D01*
X119620827Y-119709397D01*
X119697516Y-119741162D01*
X119766503Y-119769737D01*
X119921153Y-119800499D01*
X119921156Y-119800500D01*
X119921158Y-119800500D01*
X120078844Y-119800500D01*
X120078845Y-119800499D01*
X120233497Y-119769737D01*
X120379179Y-119709394D01*
X120510289Y-119621789D01*
X120621789Y-119510289D01*
X120709394Y-119379179D01*
X120711240Y-119374721D01*
X120755081Y-119320318D01*
X120821374Y-119298252D01*
X120889074Y-119315530D01*
X120928904Y-119353282D01*
X120952275Y-119388259D01*
X120952278Y-119388263D01*
X121063772Y-119499757D01*
X121063776Y-119499760D01*
X121194879Y-119587361D01*
X121194892Y-119587368D01*
X121340563Y-119647706D01*
X121340568Y-119647708D01*
X121495218Y-119678470D01*
X121495221Y-119678471D01*
X121495223Y-119678471D01*
X121652909Y-119678471D01*
X121652910Y-119678470D01*
X121807562Y-119647708D01*
X121953244Y-119587365D01*
X122084354Y-119499760D01*
X122195854Y-119388260D01*
X122283459Y-119257150D01*
X122343802Y-119111468D01*
X122374565Y-118956813D01*
X122374565Y-118952918D01*
X123341175Y-118952918D01*
X123341175Y-119110611D01*
X123371936Y-119265254D01*
X123371939Y-119265266D01*
X123432277Y-119410937D01*
X123432284Y-119410950D01*
X123519885Y-119542053D01*
X123519888Y-119542057D01*
X123631382Y-119653551D01*
X123631386Y-119653554D01*
X123762489Y-119741155D01*
X123762502Y-119741162D01*
X123905759Y-119800500D01*
X123908178Y-119801502D01*
X124062828Y-119832264D01*
X124062831Y-119832265D01*
X124062833Y-119832265D01*
X124220519Y-119832265D01*
X124220520Y-119832264D01*
X124375172Y-119801502D01*
X124520854Y-119741159D01*
X124651964Y-119653554D01*
X124763464Y-119542054D01*
X124851069Y-119410944D01*
X124857047Y-119396513D01*
X124866073Y-119374722D01*
X124911412Y-119265262D01*
X124942175Y-119110607D01*
X124942175Y-118952923D01*
X124942175Y-118952920D01*
X124942174Y-118952918D01*
X124939357Y-118938757D01*
X124911412Y-118798268D01*
X124885864Y-118736588D01*
X124851072Y-118652592D01*
X124851065Y-118652579D01*
X124763464Y-118521476D01*
X124763461Y-118521472D01*
X124651967Y-118409978D01*
X124651963Y-118409975D01*
X124520860Y-118322374D01*
X124520847Y-118322367D01*
X124375176Y-118262029D01*
X124375164Y-118262026D01*
X124220520Y-118231265D01*
X124220517Y-118231265D01*
X124062833Y-118231265D01*
X124062830Y-118231265D01*
X123908185Y-118262026D01*
X123908173Y-118262029D01*
X123762502Y-118322367D01*
X123762489Y-118322374D01*
X123631386Y-118409975D01*
X123631382Y-118409978D01*
X123519888Y-118521472D01*
X123519885Y-118521476D01*
X123432284Y-118652579D01*
X123432277Y-118652592D01*
X123371939Y-118798263D01*
X123371936Y-118798275D01*
X123341175Y-118952918D01*
X122374565Y-118952918D01*
X122374565Y-118799129D01*
X122374565Y-118799126D01*
X122374564Y-118799124D01*
X122345442Y-118652719D01*
X122343802Y-118644474D01*
X122334002Y-118620814D01*
X122283462Y-118498798D01*
X122283455Y-118498785D01*
X122195854Y-118367682D01*
X122195851Y-118367678D01*
X122084357Y-118256184D01*
X122084353Y-118256181D01*
X121953250Y-118168580D01*
X121953237Y-118168573D01*
X121807566Y-118108235D01*
X121807554Y-118108232D01*
X121652910Y-118077471D01*
X121652907Y-118077471D01*
X121495223Y-118077471D01*
X121495220Y-118077471D01*
X121340575Y-118108232D01*
X121340563Y-118108235D01*
X121194892Y-118168573D01*
X121194879Y-118168580D01*
X121063776Y-118256181D01*
X121063772Y-118256184D01*
X120952278Y-118367678D01*
X120952275Y-118367682D01*
X120864674Y-118498785D01*
X120864666Y-118498800D01*
X120862818Y-118503262D01*
X120818971Y-118557661D01*
X120752675Y-118579718D01*
X120684977Y-118562432D01*
X120645160Y-118524687D01*
X120621792Y-118489715D01*
X120621786Y-118489707D01*
X120510292Y-118378213D01*
X120510288Y-118378210D01*
X120379185Y-118290609D01*
X120379172Y-118290602D01*
X120233501Y-118230264D01*
X120233489Y-118230261D01*
X120078845Y-118199500D01*
X120078842Y-118199500D01*
X119921158Y-118199500D01*
X119921155Y-118199500D01*
X119766510Y-118230261D01*
X119766498Y-118230264D01*
X119620827Y-118290602D01*
X119620814Y-118290609D01*
X119489711Y-118378210D01*
X119463974Y-118403947D01*
X119402650Y-118437431D01*
X119332959Y-118432445D01*
X119277026Y-118390573D01*
X119273192Y-118385155D01*
X119267029Y-118375932D01*
X119267026Y-118375928D01*
X119155532Y-118264434D01*
X119155528Y-118264431D01*
X119024425Y-118176830D01*
X119024412Y-118176823D01*
X118878741Y-118116485D01*
X118878729Y-118116482D01*
X118724085Y-118085721D01*
X118724082Y-118085721D01*
X118566398Y-118085721D01*
X118566395Y-118085721D01*
X118411750Y-118116482D01*
X118411738Y-118116485D01*
X118266067Y-118176823D01*
X118266054Y-118176830D01*
X118134951Y-118264431D01*
X118134947Y-118264434D01*
X118023453Y-118375928D01*
X118023450Y-118375932D01*
X117935849Y-118507035D01*
X117935842Y-118507048D01*
X117875504Y-118652719D01*
X117875501Y-118652731D01*
X117844740Y-118807374D01*
X115777868Y-118807374D01*
X115769738Y-118766508D01*
X115769737Y-118766507D01*
X115769737Y-118766503D01*
X115757345Y-118736585D01*
X115709397Y-118620827D01*
X115709390Y-118620814D01*
X115621789Y-118489711D01*
X115621786Y-118489707D01*
X115510292Y-118378213D01*
X115510288Y-118378210D01*
X115379185Y-118290609D01*
X115379172Y-118290602D01*
X115233501Y-118230264D01*
X115233491Y-118230261D01*
X115184374Y-118220491D01*
X115122463Y-118188106D01*
X115087889Y-118127389D01*
X115091630Y-118057620D01*
X115118296Y-118015304D01*
X115117924Y-118014999D01*
X115120357Y-118012033D01*
X115120891Y-118011186D01*
X115121789Y-118010289D01*
X115209394Y-117879179D01*
X115211326Y-117874516D01*
X115269735Y-117733501D01*
X115269737Y-117733497D01*
X115300500Y-117578842D01*
X115300500Y-117421158D01*
X115300500Y-117421155D01*
X115300499Y-117421153D01*
X133199500Y-117421153D01*
X133199500Y-117578846D01*
X133230261Y-117733489D01*
X133230264Y-117733501D01*
X133290602Y-117879172D01*
X133290609Y-117879185D01*
X133378210Y-118010288D01*
X133378213Y-118010292D01*
X133489707Y-118121786D01*
X133489711Y-118121789D01*
X133620814Y-118209390D01*
X133620827Y-118209397D01*
X133747894Y-118262029D01*
X133766503Y-118269737D01*
X133793423Y-118275091D01*
X133815624Y-118279508D01*
X133877535Y-118311892D01*
X133912109Y-118372608D01*
X133908370Y-118442377D01*
X133881706Y-118484697D01*
X133882076Y-118485001D01*
X133879661Y-118487942D01*
X133879123Y-118488798D01*
X133878212Y-118489708D01*
X133878210Y-118489711D01*
X133790609Y-118620814D01*
X133790602Y-118620827D01*
X133730264Y-118766498D01*
X133730261Y-118766510D01*
X133699500Y-118921153D01*
X133699500Y-119078846D01*
X133730261Y-119233489D01*
X133730264Y-119233501D01*
X133790602Y-119379172D01*
X133790609Y-119379185D01*
X133878210Y-119510288D01*
X133878213Y-119510292D01*
X133989707Y-119621786D01*
X133989711Y-119621789D01*
X134120814Y-119709390D01*
X134120827Y-119709397D01*
X134197516Y-119741162D01*
X134266503Y-119769737D01*
X134421153Y-119800499D01*
X134421156Y-119800500D01*
X134421158Y-119800500D01*
X134578844Y-119800500D01*
X134578845Y-119800499D01*
X134733497Y-119769737D01*
X134879179Y-119709394D01*
X135010289Y-119621789D01*
X135121789Y-119510289D01*
X135209394Y-119379179D01*
X135216806Y-119361286D01*
X135256578Y-119265266D01*
X135269737Y-119233497D01*
X135300500Y-119078842D01*
X135300500Y-118921158D01*
X135300500Y-118921155D01*
X135300499Y-118921153D01*
X135281468Y-118825478D01*
X135269737Y-118766503D01*
X135257345Y-118736585D01*
X135209397Y-118620827D01*
X135209390Y-118620814D01*
X135121789Y-118489711D01*
X135121786Y-118489707D01*
X135010292Y-118378213D01*
X135010288Y-118378210D01*
X134879185Y-118290609D01*
X134879172Y-118290602D01*
X134733501Y-118230264D01*
X134733491Y-118230261D01*
X134684374Y-118220491D01*
X134622463Y-118188106D01*
X134587889Y-118127389D01*
X134591630Y-118057620D01*
X134618296Y-118015304D01*
X134617924Y-118014999D01*
X134620357Y-118012033D01*
X134620891Y-118011186D01*
X134621789Y-118010289D01*
X134709394Y-117879179D01*
X134711326Y-117874516D01*
X134769735Y-117733501D01*
X134769737Y-117733497D01*
X134800500Y-117578842D01*
X134800500Y-117421158D01*
X134800500Y-117421155D01*
X134800499Y-117421153D01*
X134769738Y-117266510D01*
X134769737Y-117266503D01*
X134756031Y-117233414D01*
X134709397Y-117120827D01*
X134709390Y-117120814D01*
X134621789Y-116989711D01*
X134621786Y-116989707D01*
X134510292Y-116878213D01*
X134510288Y-116878210D01*
X134379185Y-116790609D01*
X134379172Y-116790602D01*
X134233501Y-116730264D01*
X134233489Y-116730261D01*
X134078845Y-116699500D01*
X134078842Y-116699500D01*
X133921158Y-116699500D01*
X133921155Y-116699500D01*
X133766510Y-116730261D01*
X133766498Y-116730264D01*
X133620827Y-116790602D01*
X133620814Y-116790609D01*
X133489711Y-116878210D01*
X133489707Y-116878213D01*
X133378213Y-116989707D01*
X133378210Y-116989711D01*
X133290609Y-117120814D01*
X133290602Y-117120827D01*
X133230264Y-117266498D01*
X133230261Y-117266510D01*
X133199500Y-117421153D01*
X115300499Y-117421153D01*
X115269738Y-117266510D01*
X115269737Y-117266503D01*
X115256031Y-117233414D01*
X115209397Y-117120827D01*
X115209390Y-117120814D01*
X115121789Y-116989711D01*
X115121786Y-116989707D01*
X115010292Y-116878213D01*
X115010288Y-116878210D01*
X114879185Y-116790609D01*
X114879172Y-116790602D01*
X114733501Y-116730264D01*
X114733489Y-116730261D01*
X114578845Y-116699500D01*
X114578842Y-116699500D01*
X114421158Y-116699500D01*
X114421155Y-116699500D01*
X114266510Y-116730261D01*
X114266498Y-116730264D01*
X114120827Y-116790602D01*
X114120814Y-116790609D01*
X113989711Y-116878210D01*
X113989707Y-116878213D01*
X113878213Y-116989707D01*
X113878210Y-116989711D01*
X113790609Y-117120814D01*
X113790602Y-117120827D01*
X113730264Y-117266498D01*
X113730261Y-117266510D01*
X113699500Y-117421153D01*
X107771660Y-117421153D01*
X107784091Y-117396755D01*
X107803446Y-117358771D01*
X107803447Y-117358769D01*
X107826554Y-117313417D01*
X107826557Y-117313412D01*
X107892246Y-117111243D01*
X107925500Y-116901287D01*
X107925500Y-116688713D01*
X107892246Y-116478757D01*
X107826557Y-116276588D01*
X107730051Y-116087184D01*
X107671928Y-116007184D01*
X107657957Y-115987954D01*
X107657955Y-115987952D01*
X107609423Y-115921153D01*
X118199500Y-115921153D01*
X118199500Y-116078846D01*
X118230261Y-116233489D01*
X118230264Y-116233501D01*
X118290602Y-116379172D01*
X118290609Y-116379185D01*
X118378210Y-116510288D01*
X118378213Y-116510292D01*
X118489707Y-116621786D01*
X118489711Y-116621789D01*
X118620814Y-116709390D01*
X118620827Y-116709397D01*
X118766498Y-116769735D01*
X118766503Y-116769737D01*
X118921153Y-116800499D01*
X118921156Y-116800500D01*
X118921158Y-116800500D01*
X119078844Y-116800500D01*
X119078845Y-116800499D01*
X119233497Y-116769737D01*
X119379179Y-116709394D01*
X119510289Y-116621789D01*
X119621789Y-116510289D01*
X119709394Y-116379179D01*
X119769737Y-116233497D01*
X119800500Y-116078842D01*
X119800500Y-115921158D01*
X119800500Y-115921155D01*
X119800499Y-115921153D01*
X119775994Y-115797960D01*
X119769737Y-115766503D01*
X119718708Y-115643307D01*
X119709397Y-115620827D01*
X119709390Y-115620814D01*
X119661018Y-115548420D01*
X119621789Y-115489711D01*
X119621786Y-115489707D01*
X119617695Y-115485616D01*
X126942018Y-115485616D01*
X126942018Y-115643309D01*
X126972779Y-115797952D01*
X126972782Y-115797964D01*
X127033120Y-115943635D01*
X127033127Y-115943648D01*
X127120728Y-116074751D01*
X127120731Y-116074755D01*
X127232225Y-116186249D01*
X127232229Y-116186252D01*
X127363332Y-116273853D01*
X127363345Y-116273860D01*
X127509016Y-116334198D01*
X127509021Y-116334200D01*
X127663671Y-116364962D01*
X127663674Y-116364963D01*
X127663676Y-116364963D01*
X127821362Y-116364963D01*
X127821363Y-116364962D01*
X127976015Y-116334200D01*
X128121697Y-116273857D01*
X128252807Y-116186252D01*
X128364307Y-116074752D01*
X128451912Y-115943642D01*
X128461225Y-115921158D01*
X128461227Y-115921153D01*
X136199500Y-115921153D01*
X136199500Y-116078846D01*
X136230261Y-116233489D01*
X136230264Y-116233501D01*
X136290602Y-116379172D01*
X136290609Y-116379185D01*
X136378210Y-116510288D01*
X136378213Y-116510292D01*
X136489707Y-116621786D01*
X136489711Y-116621789D01*
X136620814Y-116709390D01*
X136620827Y-116709397D01*
X136766498Y-116769735D01*
X136766503Y-116769737D01*
X136921153Y-116800499D01*
X136921156Y-116800500D01*
X136921158Y-116800500D01*
X137078844Y-116800500D01*
X137078845Y-116800499D01*
X137233497Y-116769737D01*
X137379179Y-116709394D01*
X137510289Y-116621789D01*
X137621789Y-116510289D01*
X137709394Y-116379179D01*
X137769737Y-116233497D01*
X137800500Y-116078842D01*
X137800500Y-115921158D01*
X137800500Y-115921155D01*
X137800499Y-115921153D01*
X137775994Y-115797960D01*
X137769737Y-115766503D01*
X137718708Y-115643307D01*
X137709397Y-115620827D01*
X137709390Y-115620814D01*
X137621789Y-115489711D01*
X137621786Y-115489707D01*
X137510292Y-115378213D01*
X137510288Y-115378210D01*
X137379185Y-115290609D01*
X137379172Y-115290602D01*
X137233501Y-115230264D01*
X137233489Y-115230261D01*
X137078845Y-115199500D01*
X137078842Y-115199500D01*
X136921158Y-115199500D01*
X136921155Y-115199500D01*
X136766510Y-115230261D01*
X136766498Y-115230264D01*
X136620827Y-115290602D01*
X136620814Y-115290609D01*
X136489711Y-115378210D01*
X136489707Y-115378213D01*
X136378213Y-115489707D01*
X136378210Y-115489711D01*
X136290609Y-115620814D01*
X136290602Y-115620827D01*
X136230264Y-115766498D01*
X136230261Y-115766510D01*
X136199500Y-115921153D01*
X128461227Y-115921153D01*
X128483404Y-115867614D01*
X128512253Y-115797964D01*
X128512255Y-115797960D01*
X128543018Y-115643305D01*
X128543018Y-115485621D01*
X128543018Y-115485618D01*
X128543017Y-115485616D01*
X128536640Y-115453556D01*
X128512255Y-115330966D01*
X128495539Y-115290609D01*
X128451915Y-115185290D01*
X128451908Y-115185277D01*
X128364307Y-115054174D01*
X128364304Y-115054170D01*
X128252810Y-114942676D01*
X128252806Y-114942673D01*
X128121703Y-114855072D01*
X128121690Y-114855065D01*
X127976019Y-114794727D01*
X127976007Y-114794724D01*
X127821363Y-114763963D01*
X127821360Y-114763963D01*
X127663676Y-114763963D01*
X127663673Y-114763963D01*
X127509028Y-114794724D01*
X127509016Y-114794727D01*
X127363345Y-114855065D01*
X127363332Y-114855072D01*
X127232229Y-114942673D01*
X127232225Y-114942676D01*
X127120731Y-115054170D01*
X127120728Y-115054174D01*
X127033127Y-115185277D01*
X127033120Y-115185290D01*
X126972782Y-115330961D01*
X126972779Y-115330973D01*
X126942018Y-115485616D01*
X119617695Y-115485616D01*
X119510292Y-115378213D01*
X119510288Y-115378210D01*
X119379185Y-115290609D01*
X119379172Y-115290602D01*
X119233501Y-115230264D01*
X119233489Y-115230261D01*
X119078845Y-115199500D01*
X119078842Y-115199500D01*
X118921158Y-115199500D01*
X118921155Y-115199500D01*
X118766510Y-115230261D01*
X118766498Y-115230264D01*
X118620827Y-115290602D01*
X118620814Y-115290609D01*
X118489711Y-115378210D01*
X118489707Y-115378213D01*
X118378213Y-115489707D01*
X118378210Y-115489711D01*
X118290609Y-115620814D01*
X118290602Y-115620827D01*
X118230264Y-115766498D01*
X118230261Y-115766510D01*
X118199500Y-115921153D01*
X107609423Y-115921153D01*
X107605104Y-115915208D01*
X107454792Y-115764896D01*
X107454786Y-115764890D01*
X107282820Y-115639951D01*
X107282115Y-115639591D01*
X107274054Y-115635485D01*
X107223259Y-115587512D01*
X107206463Y-115519692D01*
X107228999Y-115453556D01*
X107274054Y-115414515D01*
X107282816Y-115410051D01*
X107326642Y-115378210D01*
X107454786Y-115285109D01*
X107454788Y-115285106D01*
X107454792Y-115285104D01*
X107605104Y-115134792D01*
X107605106Y-115134788D01*
X107605109Y-115134786D01*
X107730048Y-114962820D01*
X107730047Y-114962820D01*
X107730051Y-114962816D01*
X107826557Y-114773412D01*
X107892246Y-114571243D01*
X107925500Y-114361287D01*
X107925500Y-114148713D01*
X107892246Y-113938757D01*
X107826557Y-113736588D01*
X107730051Y-113547184D01*
X107730049Y-113547181D01*
X107730048Y-113547179D01*
X107605109Y-113375213D01*
X107454786Y-113224890D01*
X107282820Y-113099951D01*
X107282115Y-113099591D01*
X107274054Y-113095485D01*
X107223259Y-113047512D01*
X107206463Y-112979692D01*
X107228999Y-112913556D01*
X107274054Y-112874515D01*
X107282816Y-112870051D01*
X107320749Y-112842491D01*
X107454786Y-112745109D01*
X107454788Y-112745106D01*
X107454792Y-112745104D01*
X107605104Y-112594792D01*
X107605106Y-112594788D01*
X107605109Y-112594786D01*
X107730048Y-112422820D01*
X107730047Y-112422820D01*
X107730051Y-112422816D01*
X107826557Y-112233412D01*
X107878803Y-112072616D01*
X110443219Y-112072616D01*
X110443219Y-112230309D01*
X110473980Y-112384952D01*
X110473983Y-112384964D01*
X110534321Y-112530635D01*
X110534328Y-112530648D01*
X110621929Y-112661751D01*
X110621932Y-112661755D01*
X110733426Y-112773249D01*
X110733430Y-112773252D01*
X110864533Y-112860853D01*
X110864546Y-112860860D01*
X111010217Y-112921198D01*
X111010222Y-112921200D01*
X111164872Y-112951962D01*
X111164875Y-112951963D01*
X111164877Y-112951963D01*
X111322563Y-112951963D01*
X111322564Y-112951962D01*
X111477216Y-112921200D01*
X111622898Y-112860857D01*
X111754008Y-112773252D01*
X111865508Y-112661752D01*
X111953113Y-112530642D01*
X112013456Y-112384960D01*
X112044219Y-112230305D01*
X112044219Y-112072621D01*
X112044219Y-112072618D01*
X112044218Y-112072616D01*
X112035988Y-112031240D01*
X112013456Y-111917966D01*
X111973411Y-111821287D01*
X111953116Y-111772290D01*
X111953109Y-111772277D01*
X111865508Y-111641174D01*
X111865505Y-111641170D01*
X111754011Y-111529676D01*
X111754007Y-111529673D01*
X111622904Y-111442072D01*
X111622891Y-111442065D01*
X111477220Y-111381727D01*
X111477208Y-111381724D01*
X111322564Y-111350963D01*
X111322561Y-111350963D01*
X111164877Y-111350963D01*
X111164874Y-111350963D01*
X111010229Y-111381724D01*
X111010217Y-111381727D01*
X110864546Y-111442065D01*
X110864533Y-111442072D01*
X110733430Y-111529673D01*
X110733426Y-111529676D01*
X110621932Y-111641170D01*
X110621929Y-111641174D01*
X110534328Y-111772277D01*
X110534321Y-111772290D01*
X110473983Y-111917961D01*
X110473980Y-111917973D01*
X110443219Y-112072616D01*
X107878803Y-112072616D01*
X107892246Y-112031243D01*
X107925500Y-111821287D01*
X107925500Y-111608713D01*
X107892246Y-111398757D01*
X107826557Y-111196588D01*
X107730051Y-111007184D01*
X107730049Y-111007181D01*
X107730048Y-111007179D01*
X107605109Y-110835213D01*
X107454786Y-110684890D01*
X107282820Y-110559951D01*
X107282115Y-110559591D01*
X107274054Y-110555485D01*
X107223259Y-110507512D01*
X107206463Y-110439692D01*
X107228999Y-110373556D01*
X107274054Y-110334515D01*
X107282816Y-110330051D01*
X107320749Y-110302491D01*
X107454786Y-110205109D01*
X107454788Y-110205106D01*
X107454792Y-110205104D01*
X107605104Y-110054792D01*
X107605106Y-110054788D01*
X107605109Y-110054786D01*
X107730048Y-109882820D01*
X107730047Y-109882820D01*
X107730051Y-109882816D01*
X107826557Y-109693412D01*
X107892246Y-109491243D01*
X107925500Y-109281287D01*
X107925500Y-109068713D01*
X107892246Y-108858757D01*
X107826557Y-108656588D01*
X107730051Y-108467184D01*
X107730049Y-108467181D01*
X107730048Y-108467179D01*
X107605109Y-108295213D01*
X107454786Y-108144890D01*
X107282820Y-108019951D01*
X107282115Y-108019591D01*
X107274054Y-108015485D01*
X107223259Y-107967512D01*
X107206463Y-107899692D01*
X107228999Y-107833556D01*
X107274054Y-107794515D01*
X107282816Y-107790051D01*
X107332756Y-107753768D01*
X107454786Y-107665109D01*
X107454788Y-107665106D01*
X107454792Y-107665104D01*
X107605104Y-107514792D01*
X107605106Y-107514788D01*
X107605109Y-107514786D01*
X107730048Y-107342820D01*
X107730047Y-107342820D01*
X107730051Y-107342816D01*
X107826557Y-107153412D01*
X107892246Y-106951243D01*
X107925500Y-106741287D01*
X107925500Y-106528713D01*
X107892246Y-106318757D01*
X107826557Y-106116588D01*
X107730051Y-105927184D01*
X107730049Y-105927181D01*
X107730048Y-105927179D01*
X107605109Y-105755213D01*
X107454786Y-105604890D01*
X107282820Y-105479951D01*
X107282115Y-105479591D01*
X107274054Y-105475485D01*
X107223259Y-105427512D01*
X107206463Y-105359692D01*
X107228999Y-105293556D01*
X107274054Y-105254515D01*
X107282816Y-105250051D01*
X107320749Y-105222491D01*
X107454786Y-105125109D01*
X107454788Y-105125106D01*
X107454792Y-105125104D01*
X107605104Y-104974792D01*
X107605106Y-104974788D01*
X107605109Y-104974786D01*
X107714086Y-104824789D01*
X107730051Y-104802816D01*
X107826557Y-104613412D01*
X107892246Y-104411243D01*
X107925500Y-104201287D01*
X107925500Y-103988713D01*
X107892246Y-103778757D01*
X107826557Y-103576588D01*
X107730051Y-103387184D01*
X107730049Y-103387181D01*
X107730048Y-103387179D01*
X107605109Y-103215213D01*
X107454786Y-103064890D01*
X107282820Y-102939951D01*
X107282115Y-102939591D01*
X107274054Y-102935485D01*
X107223259Y-102887512D01*
X107206463Y-102819692D01*
X107228999Y-102753556D01*
X107258738Y-102723769D01*
X107266063Y-102718586D01*
X107282816Y-102710051D01*
X107309027Y-102691008D01*
X126199500Y-102691008D01*
X126199500Y-102848701D01*
X126230261Y-103003344D01*
X126230264Y-103003356D01*
X126290602Y-103149027D01*
X126290609Y-103149040D01*
X126378210Y-103280143D01*
X126378213Y-103280147D01*
X126489707Y-103391641D01*
X126489711Y-103391644D01*
X126620814Y-103479245D01*
X126620827Y-103479252D01*
X126766498Y-103539590D01*
X126766503Y-103539592D01*
X126921153Y-103570354D01*
X126921156Y-103570355D01*
X126921158Y-103570355D01*
X127078844Y-103570355D01*
X127078845Y-103570354D01*
X127233497Y-103539592D01*
X127379179Y-103479249D01*
X127510289Y-103391644D01*
X127621789Y-103280144D01*
X127709394Y-103149034D01*
X127769737Y-103003352D01*
X127800500Y-102848697D01*
X127800500Y-102691013D01*
X127800500Y-102691010D01*
X127800499Y-102691008D01*
X127789262Y-102634516D01*
X127769737Y-102536358D01*
X127758939Y-102510288D01*
X127709397Y-102390682D01*
X127709390Y-102390669D01*
X127621789Y-102259566D01*
X127621786Y-102259562D01*
X127510292Y-102148068D01*
X127510288Y-102148065D01*
X127379185Y-102060464D01*
X127379172Y-102060457D01*
X127233501Y-102000119D01*
X127233489Y-102000116D01*
X127078845Y-101969355D01*
X127078842Y-101969355D01*
X126921158Y-101969355D01*
X126921155Y-101969355D01*
X126766510Y-102000116D01*
X126766498Y-102000119D01*
X126620827Y-102060457D01*
X126620814Y-102060464D01*
X126489711Y-102148065D01*
X126489707Y-102148068D01*
X126378213Y-102259562D01*
X126378210Y-102259566D01*
X126290609Y-102390669D01*
X126290602Y-102390682D01*
X126230264Y-102536353D01*
X126230261Y-102536365D01*
X126199500Y-102691008D01*
X107309027Y-102691008D01*
X107454792Y-102585104D01*
X107605104Y-102434792D01*
X107605106Y-102434788D01*
X107605109Y-102434786D01*
X107730048Y-102262820D01*
X107730047Y-102262820D01*
X107730051Y-102262816D01*
X107826557Y-102073412D01*
X107892246Y-101871243D01*
X107925500Y-101661287D01*
X107925500Y-101448713D01*
X107921135Y-101421153D01*
X109699500Y-101421153D01*
X109699500Y-101578846D01*
X109730261Y-101733489D01*
X109730264Y-101733501D01*
X109790602Y-101879172D01*
X109790609Y-101879185D01*
X109878210Y-102010288D01*
X109878213Y-102010292D01*
X109989707Y-102121786D01*
X109989711Y-102121789D01*
X110120814Y-102209390D01*
X110120827Y-102209397D01*
X110266498Y-102269735D01*
X110266503Y-102269737D01*
X110421153Y-102300499D01*
X110421156Y-102300500D01*
X110421158Y-102300500D01*
X110578844Y-102300500D01*
X110578845Y-102300499D01*
X110733497Y-102269737D01*
X110879179Y-102209394D01*
X111010289Y-102121789D01*
X111121789Y-102010289D01*
X111209394Y-101879179D01*
X111269737Y-101733497D01*
X111300500Y-101578842D01*
X111300500Y-101421158D01*
X111300500Y-101421155D01*
X111300499Y-101421153D01*
X111274531Y-101290606D01*
X111269737Y-101266503D01*
X111256062Y-101233489D01*
X111209397Y-101120827D01*
X111209390Y-101120814D01*
X111121790Y-100989712D01*
X111121784Y-100989705D01*
X111053232Y-100921153D01*
X118699500Y-100921153D01*
X118699500Y-101078846D01*
X118730261Y-101233489D01*
X118730264Y-101233501D01*
X118790602Y-101379172D01*
X118790609Y-101379185D01*
X118878210Y-101510288D01*
X118878213Y-101510292D01*
X118989707Y-101621786D01*
X118989711Y-101621789D01*
X119120814Y-101709390D01*
X119120827Y-101709397D01*
X119258683Y-101766498D01*
X119266503Y-101769737D01*
X119421153Y-101800499D01*
X119421156Y-101800500D01*
X119421158Y-101800500D01*
X119578844Y-101800500D01*
X119578845Y-101800499D01*
X119733497Y-101769737D01*
X119879179Y-101709394D01*
X120010289Y-101621789D01*
X120121789Y-101510289D01*
X120181348Y-101421153D01*
X127699500Y-101421153D01*
X127699500Y-101578846D01*
X127730261Y-101733489D01*
X127730264Y-101733501D01*
X127790602Y-101879172D01*
X127790609Y-101879185D01*
X127878210Y-102010288D01*
X127878213Y-102010292D01*
X127989707Y-102121786D01*
X127989711Y-102121789D01*
X128120814Y-102209390D01*
X128120827Y-102209397D01*
X128266498Y-102269735D01*
X128266503Y-102269737D01*
X128421153Y-102300499D01*
X128421156Y-102300500D01*
X128421158Y-102300500D01*
X128578844Y-102300500D01*
X128578845Y-102300499D01*
X128733497Y-102269737D01*
X128879179Y-102209394D01*
X129010289Y-102121789D01*
X129121789Y-102010289D01*
X129209394Y-101879179D01*
X129269737Y-101733497D01*
X129300500Y-101578842D01*
X129300500Y-101421158D01*
X129300500Y-101421155D01*
X129300499Y-101421153D01*
X129274531Y-101290606D01*
X129269737Y-101266503D01*
X129256062Y-101233489D01*
X129209397Y-101120827D01*
X129209390Y-101120814D01*
X129121789Y-100989711D01*
X129121786Y-100989707D01*
X129010292Y-100878213D01*
X129010288Y-100878210D01*
X128879185Y-100790609D01*
X128879172Y-100790602D01*
X128733501Y-100730264D01*
X128733489Y-100730261D01*
X128578845Y-100699500D01*
X128578842Y-100699500D01*
X128421158Y-100699500D01*
X128421155Y-100699500D01*
X128266510Y-100730261D01*
X128266498Y-100730264D01*
X128120827Y-100790602D01*
X128120814Y-100790609D01*
X127989711Y-100878210D01*
X127989707Y-100878213D01*
X127878213Y-100989707D01*
X127878210Y-100989711D01*
X127790609Y-101120814D01*
X127790602Y-101120827D01*
X127730264Y-101266498D01*
X127730261Y-101266510D01*
X127699500Y-101421153D01*
X120181348Y-101421153D01*
X120209394Y-101379179D01*
X120269737Y-101233497D01*
X120300500Y-101078842D01*
X120300500Y-100921158D01*
X120300500Y-100921155D01*
X120300499Y-100921153D01*
X120291957Y-100878210D01*
X120269737Y-100766503D01*
X120250424Y-100719879D01*
X120242956Y-100650410D01*
X120274231Y-100587931D01*
X120334320Y-100552279D01*
X120404145Y-100554773D01*
X120452667Y-100584746D01*
X120489707Y-100621786D01*
X120489711Y-100621789D01*
X120620814Y-100709390D01*
X120620827Y-100709397D01*
X120758683Y-100766498D01*
X120766503Y-100769737D01*
X120921153Y-100800499D01*
X120921156Y-100800500D01*
X120921158Y-100800500D01*
X121078844Y-100800500D01*
X121078845Y-100800499D01*
X121233497Y-100769737D01*
X121379179Y-100709394D01*
X121510289Y-100621789D01*
X121621789Y-100510289D01*
X121709394Y-100379179D01*
X121769737Y-100233497D01*
X121800500Y-100078842D01*
X121800500Y-99921158D01*
X121800500Y-99921155D01*
X121800499Y-99921153D01*
X129199500Y-99921153D01*
X129199500Y-100078846D01*
X129230261Y-100233489D01*
X129230264Y-100233501D01*
X129290602Y-100379172D01*
X129290609Y-100379185D01*
X129378210Y-100510288D01*
X129378213Y-100510292D01*
X129489707Y-100621786D01*
X129489711Y-100621789D01*
X129620814Y-100709390D01*
X129620827Y-100709397D01*
X129758683Y-100766498D01*
X129766503Y-100769737D01*
X129921153Y-100800499D01*
X129921156Y-100800500D01*
X129921158Y-100800500D01*
X130078844Y-100800500D01*
X130078845Y-100800499D01*
X130233497Y-100769737D01*
X130379179Y-100709394D01*
X130510289Y-100621789D01*
X130621789Y-100510289D01*
X130709394Y-100379179D01*
X130769737Y-100233497D01*
X130800500Y-100078842D01*
X130800500Y-99921158D01*
X130800500Y-99921155D01*
X130800499Y-99921153D01*
X130769738Y-99766510D01*
X130769737Y-99766503D01*
X130751643Y-99722820D01*
X130709397Y-99620827D01*
X130709390Y-99620814D01*
X130621789Y-99489711D01*
X130621786Y-99489707D01*
X130510292Y-99378213D01*
X130510288Y-99378210D01*
X130379185Y-99290609D01*
X130379172Y-99290602D01*
X130233501Y-99230264D01*
X130233489Y-99230261D01*
X130078845Y-99199500D01*
X130078842Y-99199500D01*
X129921158Y-99199500D01*
X129921155Y-99199500D01*
X129766510Y-99230261D01*
X129766498Y-99230264D01*
X129620827Y-99290602D01*
X129620814Y-99290609D01*
X129489711Y-99378210D01*
X129489707Y-99378213D01*
X129378213Y-99489707D01*
X129378210Y-99489711D01*
X129290609Y-99620814D01*
X129290602Y-99620827D01*
X129230264Y-99766498D01*
X129230261Y-99766510D01*
X129199500Y-99921153D01*
X121800499Y-99921153D01*
X121769738Y-99766510D01*
X121769737Y-99766503D01*
X121751643Y-99722820D01*
X121709397Y-99620827D01*
X121709390Y-99620814D01*
X121621789Y-99489711D01*
X121621786Y-99489707D01*
X121510292Y-99378213D01*
X121510288Y-99378210D01*
X121379185Y-99290609D01*
X121379172Y-99290602D01*
X121233501Y-99230264D01*
X121233489Y-99230261D01*
X121078845Y-99199500D01*
X121078842Y-99199500D01*
X120921158Y-99199500D01*
X120921155Y-99199500D01*
X120766510Y-99230261D01*
X120766498Y-99230264D01*
X120620827Y-99290602D01*
X120620814Y-99290609D01*
X120489711Y-99378210D01*
X120489707Y-99378213D01*
X120378213Y-99489707D01*
X120378210Y-99489711D01*
X120290609Y-99620814D01*
X120290602Y-99620827D01*
X120230264Y-99766498D01*
X120230261Y-99766510D01*
X120199500Y-99921153D01*
X120199500Y-100078846D01*
X120230261Y-100233489D01*
X120230263Y-100233497D01*
X120249575Y-100280120D01*
X120257043Y-100349590D01*
X120225767Y-100412069D01*
X120165678Y-100447721D01*
X120095853Y-100445226D01*
X120047332Y-100415253D01*
X120010292Y-100378213D01*
X120010288Y-100378210D01*
X119879185Y-100290609D01*
X119879172Y-100290602D01*
X119733501Y-100230264D01*
X119733489Y-100230261D01*
X119578845Y-100199500D01*
X119578842Y-100199500D01*
X119421158Y-100199500D01*
X119421155Y-100199500D01*
X119266510Y-100230261D01*
X119266498Y-100230264D01*
X119120827Y-100290602D01*
X119120814Y-100290609D01*
X118989711Y-100378210D01*
X118989707Y-100378213D01*
X118878213Y-100489707D01*
X118878210Y-100489711D01*
X118790609Y-100620814D01*
X118790602Y-100620827D01*
X118730264Y-100766498D01*
X118730261Y-100766510D01*
X118699500Y-100921153D01*
X111053232Y-100921153D01*
X111010292Y-100878213D01*
X111010288Y-100878210D01*
X110879185Y-100790609D01*
X110879172Y-100790602D01*
X110733501Y-100730264D01*
X110733489Y-100730261D01*
X110578845Y-100699500D01*
X110578842Y-100699500D01*
X110421158Y-100699500D01*
X110421155Y-100699500D01*
X110266510Y-100730261D01*
X110266498Y-100730264D01*
X110120827Y-100790602D01*
X110120814Y-100790609D01*
X109989711Y-100878210D01*
X109989707Y-100878213D01*
X109878213Y-100989707D01*
X109878210Y-100989711D01*
X109790609Y-101120814D01*
X109790602Y-101120827D01*
X109730264Y-101266498D01*
X109730261Y-101266510D01*
X109699500Y-101421153D01*
X107921135Y-101421153D01*
X107892246Y-101238757D01*
X107826557Y-101036588D01*
X107730051Y-100847184D01*
X107730049Y-100847181D01*
X107730048Y-100847179D01*
X107605109Y-100675213D01*
X107454786Y-100524890D01*
X107282820Y-100399951D01*
X107282115Y-100399591D01*
X107274054Y-100395485D01*
X107223259Y-100347512D01*
X107206463Y-100279692D01*
X107228999Y-100213556D01*
X107274054Y-100174515D01*
X107282816Y-100170051D01*
X107320749Y-100142491D01*
X107454786Y-100045109D01*
X107454788Y-100045106D01*
X107454792Y-100045104D01*
X107605104Y-99894792D01*
X107605106Y-99894788D01*
X107605109Y-99894786D01*
X107730048Y-99722820D01*
X107730047Y-99722820D01*
X107730051Y-99722816D01*
X107826557Y-99533412D01*
X107892246Y-99331243D01*
X107925500Y-99121287D01*
X107925500Y-98908713D01*
X107892246Y-98698757D01*
X107826557Y-98496588D01*
X107730051Y-98307184D01*
X107730049Y-98307181D01*
X107730048Y-98307179D01*
X107605109Y-98135213D01*
X107454786Y-97984890D01*
X107282820Y-97859951D01*
X107282115Y-97859591D01*
X107274054Y-97855485D01*
X107223259Y-97807512D01*
X107206463Y-97739692D01*
X107228999Y-97673556D01*
X107274054Y-97634515D01*
X107282816Y-97630051D01*
X107320749Y-97602491D01*
X107454786Y-97505109D01*
X107454788Y-97505106D01*
X107454792Y-97505104D01*
X107605104Y-97354792D01*
X107605106Y-97354788D01*
X107605109Y-97354786D01*
X107730048Y-97182820D01*
X107730047Y-97182820D01*
X107730051Y-97182816D01*
X107826557Y-96993412D01*
X107892246Y-96791243D01*
X107925500Y-96581287D01*
X107925500Y-96368713D01*
X107892246Y-96158757D01*
X107826557Y-95956588D01*
X107730051Y-95767184D01*
X107730049Y-95767181D01*
X107730048Y-95767179D01*
X107605109Y-95595213D01*
X107454786Y-95444890D01*
X107282820Y-95319951D01*
X107282115Y-95319591D01*
X107274054Y-95315485D01*
X107223259Y-95267512D01*
X107206463Y-95199692D01*
X107228999Y-95133556D01*
X107274054Y-95094515D01*
X107282816Y-95090051D01*
X107320749Y-95062491D01*
X107454786Y-94965109D01*
X107454788Y-94965106D01*
X107454792Y-94965104D01*
X107605104Y-94814792D01*
X107605106Y-94814788D01*
X107605109Y-94814786D01*
X107730048Y-94642820D01*
X107730047Y-94642820D01*
X107730051Y-94642816D01*
X107826557Y-94453412D01*
X107892246Y-94251243D01*
X107925500Y-94041287D01*
X107925500Y-93828713D01*
X107892246Y-93618757D01*
X107826557Y-93416588D01*
X107730051Y-93227184D01*
X107730049Y-93227181D01*
X107730048Y-93227179D01*
X107605109Y-93055213D01*
X107454786Y-92904890D01*
X107282820Y-92779951D01*
X107282115Y-92779591D01*
X107274054Y-92775485D01*
X107223259Y-92727512D01*
X107206463Y-92659692D01*
X107228999Y-92593556D01*
X107274054Y-92554515D01*
X107282816Y-92550051D01*
X107320749Y-92522491D01*
X107454786Y-92425109D01*
X107454788Y-92425106D01*
X107454792Y-92425104D01*
X107605104Y-92274792D01*
X107605106Y-92274788D01*
X107605109Y-92274786D01*
X107730048Y-92102820D01*
X107730047Y-92102820D01*
X107730051Y-92102816D01*
X107826557Y-91913412D01*
X107892246Y-91711243D01*
X107925500Y-91501287D01*
X107925500Y-91288713D01*
X107892246Y-91078757D01*
X107826557Y-90876588D01*
X107730051Y-90687184D01*
X107730049Y-90687181D01*
X107730048Y-90687179D01*
X107605109Y-90515213D01*
X107454786Y-90364890D01*
X107282820Y-90239951D01*
X107282115Y-90239591D01*
X107274054Y-90235485D01*
X107223259Y-90187512D01*
X107206463Y-90119692D01*
X107228999Y-90053556D01*
X107274054Y-90014515D01*
X107282816Y-90010051D01*
X107320749Y-89982491D01*
X107454786Y-89885109D01*
X107454788Y-89885106D01*
X107454792Y-89885104D01*
X107605104Y-89734792D01*
X107605106Y-89734788D01*
X107605109Y-89734786D01*
X107730048Y-89562820D01*
X107730047Y-89562820D01*
X107730051Y-89562816D01*
X107826557Y-89373412D01*
X107892246Y-89171243D01*
X107925500Y-88961287D01*
X107925500Y-88748713D01*
X107892246Y-88538757D01*
X107826557Y-88336588D01*
X107730051Y-88147184D01*
X107730049Y-88147181D01*
X107730048Y-88147179D01*
X107605109Y-87975213D01*
X107454786Y-87824890D01*
X107282820Y-87699951D01*
X107282115Y-87699591D01*
X107274054Y-87695485D01*
X107223259Y-87647512D01*
X107206463Y-87579692D01*
X107228999Y-87513556D01*
X107274054Y-87474515D01*
X107282816Y-87470051D01*
X107320749Y-87442491D01*
X107454786Y-87345109D01*
X107454788Y-87345106D01*
X107454792Y-87345104D01*
X107605104Y-87194792D01*
X107605106Y-87194788D01*
X107605109Y-87194786D01*
X107730048Y-87022820D01*
X107730047Y-87022820D01*
X107730051Y-87022816D01*
X107826557Y-86833412D01*
X107892246Y-86631243D01*
X107925500Y-86421287D01*
X107925500Y-86208713D01*
X107892246Y-85998757D01*
X107826557Y-85796588D01*
X107730051Y-85607184D01*
X107730049Y-85607181D01*
X107730048Y-85607179D01*
X107605109Y-85435213D01*
X107454786Y-85284890D01*
X107282820Y-85159951D01*
X107282115Y-85159591D01*
X107274054Y-85155485D01*
X107223259Y-85107512D01*
X107206463Y-85039692D01*
X107228999Y-84973556D01*
X107274054Y-84934515D01*
X107282816Y-84930051D01*
X107320749Y-84902491D01*
X107454786Y-84805109D01*
X107454788Y-84805106D01*
X107454792Y-84805104D01*
X107605104Y-84654792D01*
X107605106Y-84654788D01*
X107605109Y-84654786D01*
X107730048Y-84482820D01*
X107730047Y-84482820D01*
X107730051Y-84482816D01*
X107826557Y-84293412D01*
X107892246Y-84091243D01*
X107925500Y-83881287D01*
X107925500Y-83668713D01*
X107892246Y-83458757D01*
X107826557Y-83256588D01*
X107730051Y-83067184D01*
X107730049Y-83067181D01*
X107730048Y-83067179D01*
X107605109Y-82895213D01*
X107454786Y-82744890D01*
X107282820Y-82619951D01*
X107282115Y-82619591D01*
X107274054Y-82615485D01*
X107223259Y-82567512D01*
X107206463Y-82499692D01*
X107228999Y-82433556D01*
X107274054Y-82394515D01*
X107282816Y-82390051D01*
X107320749Y-82362491D01*
X107454786Y-82265109D01*
X107454788Y-82265106D01*
X107454792Y-82265104D01*
X107605104Y-82114792D01*
X107605106Y-82114788D01*
X107605109Y-82114786D01*
X107730048Y-81942820D01*
X107730047Y-81942820D01*
X107730051Y-81942816D01*
X107826557Y-81753412D01*
X107892246Y-81551243D01*
X107925500Y-81341287D01*
X107925500Y-81128713D01*
X107892246Y-80918757D01*
X107826557Y-80716588D01*
X107730051Y-80527184D01*
X107730049Y-80527181D01*
X107730048Y-80527179D01*
X107605109Y-80355213D01*
X107454786Y-80204890D01*
X107285092Y-80081602D01*
X107285088Y-80081600D01*
X107282816Y-80079949D01*
X107272386Y-80074635D01*
X107270729Y-80073726D01*
X107247352Y-80050266D01*
X107223259Y-80027512D01*
X107222789Y-80025616D01*
X107221411Y-80024233D01*
X107214426Y-79991846D01*
X107212137Y-79982604D01*
X116634209Y-79982604D01*
X116634209Y-80140297D01*
X116664970Y-80294940D01*
X116664973Y-80294952D01*
X116725311Y-80440623D01*
X116725318Y-80440636D01*
X116812919Y-80571739D01*
X116812922Y-80571743D01*
X116924416Y-80683237D01*
X116924420Y-80683240D01*
X117055523Y-80770841D01*
X117055536Y-80770848D01*
X117176150Y-80820807D01*
X117201212Y-80831188D01*
X117334451Y-80857691D01*
X117355862Y-80861950D01*
X117355865Y-80861951D01*
X117355867Y-80861951D01*
X117513553Y-80861951D01*
X117513554Y-80861950D01*
X117668206Y-80831188D01*
X117813888Y-80770845D01*
X117944998Y-80683240D01*
X118056498Y-80571740D01*
X118144103Y-80440630D01*
X118204446Y-80294948D01*
X118235209Y-80140293D01*
X118235209Y-79982609D01*
X118235209Y-79982606D01*
X118235208Y-79982604D01*
X118229903Y-79955934D01*
X118204446Y-79827954D01*
X118192590Y-79799331D01*
X118144106Y-79682278D01*
X118144099Y-79682265D01*
X118056498Y-79551162D01*
X118056495Y-79551158D01*
X117945001Y-79439664D01*
X117944997Y-79439661D01*
X117813894Y-79352060D01*
X117813881Y-79352053D01*
X117668210Y-79291715D01*
X117668198Y-79291712D01*
X117513554Y-79260951D01*
X117513551Y-79260951D01*
X117355867Y-79260951D01*
X117355864Y-79260951D01*
X117201219Y-79291712D01*
X117201207Y-79291715D01*
X117055536Y-79352053D01*
X117055523Y-79352060D01*
X116924420Y-79439661D01*
X116924416Y-79439664D01*
X116812922Y-79551158D01*
X116812919Y-79551162D01*
X116725318Y-79682265D01*
X116725311Y-79682278D01*
X116664973Y-79827949D01*
X116664970Y-79827961D01*
X116634209Y-79982604D01*
X107212137Y-79982604D01*
X107206463Y-79959692D01*
X107207092Y-79957843D01*
X107206681Y-79955934D01*
X107218314Y-79924910D01*
X107228999Y-79893556D01*
X107230589Y-79892177D01*
X107231214Y-79890513D01*
X107240525Y-79883568D01*
X107274054Y-79854515D01*
X107282816Y-79850051D01*
X107310685Y-79829803D01*
X107454786Y-79725109D01*
X107454788Y-79725106D01*
X107454792Y-79725104D01*
X107605104Y-79574792D01*
X107605106Y-79574788D01*
X107605109Y-79574786D01*
X107730048Y-79402820D01*
X107730047Y-79402820D01*
X107730051Y-79402816D01*
X107826557Y-79213412D01*
X107892246Y-79011243D01*
X107925500Y-78801287D01*
X107925500Y-78588713D01*
X107892246Y-78378757D01*
X107826557Y-78176588D01*
X107730051Y-77987184D01*
X107730049Y-77987181D01*
X107730048Y-77987179D01*
X107605109Y-77815213D01*
X107454786Y-77664890D01*
X107282820Y-77539951D01*
X107282115Y-77539591D01*
X107274054Y-77535485D01*
X107223259Y-77487512D01*
X107206463Y-77419692D01*
X107228999Y-77353556D01*
X107274054Y-77314515D01*
X107282816Y-77310051D01*
X107304789Y-77294086D01*
X107454786Y-77185109D01*
X107454788Y-77185106D01*
X107454792Y-77185104D01*
X107605104Y-77034792D01*
X107605106Y-77034788D01*
X107605109Y-77034786D01*
X107730048Y-76862820D01*
X107730047Y-76862820D01*
X107730051Y-76862816D01*
X107826557Y-76673412D01*
X107892246Y-76471243D01*
X107925500Y-76261287D01*
X107925500Y-76048713D01*
X107892246Y-75838757D01*
X107826557Y-75636588D01*
X107730051Y-75447184D01*
X107730049Y-75447181D01*
X107730048Y-75447179D01*
X107605109Y-75275213D01*
X107454786Y-75124890D01*
X107282820Y-74999951D01*
X107282115Y-74999591D01*
X107274054Y-74995485D01*
X107223259Y-74947512D01*
X107206463Y-74879692D01*
X107228999Y-74813556D01*
X107274054Y-74774515D01*
X107282816Y-74770051D01*
X107320749Y-74742491D01*
X107454786Y-74645109D01*
X107454788Y-74645106D01*
X107454792Y-74645104D01*
X107605104Y-74494792D01*
X107605106Y-74494788D01*
X107605109Y-74494786D01*
X107730048Y-74322820D01*
X107730047Y-74322820D01*
X107730051Y-74322816D01*
X107826557Y-74133412D01*
X107892246Y-73931243D01*
X107925500Y-73721287D01*
X107925500Y-73508713D01*
X107892246Y-73298757D01*
X107826557Y-73096588D01*
X107730051Y-72907184D01*
X107730049Y-72907181D01*
X107730048Y-72907179D01*
X107605109Y-72735213D01*
X107454786Y-72584890D01*
X107282820Y-72459951D01*
X107282115Y-72459591D01*
X107274054Y-72455485D01*
X107223259Y-72407512D01*
X107206463Y-72339692D01*
X107228999Y-72273556D01*
X107274054Y-72234515D01*
X107282816Y-72230051D01*
X107320749Y-72202491D01*
X107454786Y-72105109D01*
X107454788Y-72105106D01*
X107454792Y-72105104D01*
X107605104Y-71954792D01*
X107605106Y-71954788D01*
X107605109Y-71954786D01*
X107730048Y-71782820D01*
X107730047Y-71782820D01*
X107730051Y-71782816D01*
X107826557Y-71593412D01*
X107892246Y-71391243D01*
X107925500Y-71181287D01*
X107925500Y-70968713D01*
X107892246Y-70758757D01*
X107826557Y-70556588D01*
X107730051Y-70367184D01*
X107730049Y-70367181D01*
X107730048Y-70367179D01*
X107605109Y-70195213D01*
X107454786Y-70044890D01*
X107282820Y-69919951D01*
X107282115Y-69919591D01*
X107274054Y-69915485D01*
X107223259Y-69867512D01*
X107206463Y-69799692D01*
X107228999Y-69733556D01*
X107274054Y-69694515D01*
X107282816Y-69690051D01*
X107320749Y-69662491D01*
X107454786Y-69565109D01*
X107454788Y-69565106D01*
X107454792Y-69565104D01*
X107605104Y-69414792D01*
X107605106Y-69414788D01*
X107605109Y-69414786D01*
X107730048Y-69242820D01*
X107730047Y-69242820D01*
X107730051Y-69242816D01*
X107826557Y-69053412D01*
X107892246Y-68851243D01*
X107925500Y-68641287D01*
X107925500Y-68428713D01*
X107892246Y-68218757D01*
X107826557Y-68016588D01*
X107730051Y-67827184D01*
X107730049Y-67827181D01*
X107730048Y-67827179D01*
X107605109Y-67655213D01*
X107491569Y-67541673D01*
X107458084Y-67480350D01*
X107459055Y-67466771D01*
X109189403Y-67466771D01*
X109189403Y-67624464D01*
X109220164Y-67779107D01*
X109220167Y-67779119D01*
X109280505Y-67924790D01*
X109280512Y-67924803D01*
X109368113Y-68055906D01*
X109368116Y-68055910D01*
X109479610Y-68167404D01*
X109479614Y-68167407D01*
X109610717Y-68255008D01*
X109610730Y-68255015D01*
X109756401Y-68315353D01*
X109756406Y-68315355D01*
X109911056Y-68346117D01*
X109911059Y-68346118D01*
X109911061Y-68346118D01*
X110068747Y-68346118D01*
X110068748Y-68346117D01*
X110223400Y-68315355D01*
X110369082Y-68255012D01*
X110500192Y-68167407D01*
X110611692Y-68055907D01*
X110699297Y-67924797D01*
X110759640Y-67779115D01*
X110790403Y-67624460D01*
X110790403Y-67466776D01*
X110790403Y-67466773D01*
X110790402Y-67466771D01*
X110784930Y-67439257D01*
X110781329Y-67421153D01*
X115199500Y-67421153D01*
X115199500Y-67578846D01*
X115230261Y-67733489D01*
X115230264Y-67733501D01*
X115290602Y-67879172D01*
X115290609Y-67879185D01*
X115378210Y-68010288D01*
X115378213Y-68010292D01*
X115489707Y-68121786D01*
X115489711Y-68121789D01*
X115620814Y-68209390D01*
X115620827Y-68209397D01*
X115766498Y-68269735D01*
X115766503Y-68269737D01*
X115921153Y-68300499D01*
X115921156Y-68300500D01*
X115921158Y-68300500D01*
X116078844Y-68300500D01*
X116078845Y-68300499D01*
X116233497Y-68269737D01*
X116379179Y-68209394D01*
X116510289Y-68121789D01*
X116621789Y-68010289D01*
X116629145Y-67999279D01*
X116646898Y-67972712D01*
X116700510Y-67927906D01*
X116769835Y-67919199D01*
X116832862Y-67949353D01*
X116853102Y-67972712D01*
X116878207Y-68010284D01*
X116878213Y-68010292D01*
X116989707Y-68121786D01*
X116989711Y-68121789D01*
X117120814Y-68209390D01*
X117120827Y-68209397D01*
X117266498Y-68269735D01*
X117266503Y-68269737D01*
X117421153Y-68300499D01*
X117421156Y-68300500D01*
X117421158Y-68300500D01*
X117578844Y-68300500D01*
X117578845Y-68300499D01*
X117733497Y-68269737D01*
X117879179Y-68209394D01*
X118010289Y-68121789D01*
X118121789Y-68010289D01*
X118209394Y-67879179D01*
X118269737Y-67733497D01*
X118296429Y-67599309D01*
X118328814Y-67537398D01*
X118389529Y-67502824D01*
X118418046Y-67499500D01*
X119257270Y-67499500D01*
X119281460Y-67501882D01*
X119288767Y-67503336D01*
X120217970Y-67503336D01*
X120285009Y-67523021D01*
X120305651Y-67539655D01*
X120771267Y-68005272D01*
X120771270Y-68005275D01*
X120781558Y-68012149D01*
X120800348Y-68027570D01*
X132519462Y-79746684D01*
X132552947Y-79808007D01*
X132547963Y-79877699D01*
X132534884Y-79903255D01*
X132458874Y-80017012D01*
X132458868Y-80017023D01*
X132398530Y-80162694D01*
X132398527Y-80162704D01*
X132385186Y-80229775D01*
X132352801Y-80291686D01*
X132351250Y-80293264D01*
X131831335Y-80813181D01*
X131804407Y-80827884D01*
X131778589Y-80844477D01*
X131772388Y-80845368D01*
X131770012Y-80846666D01*
X131743654Y-80849500D01*
X131520506Y-80849500D01*
X131453467Y-80829815D01*
X131407712Y-80777011D01*
X131397768Y-80707853D01*
X131405945Y-80678048D01*
X131441475Y-80592265D01*
X131454166Y-80561629D01*
X131484929Y-80406974D01*
X131484929Y-80249290D01*
X131484929Y-80249287D01*
X131484928Y-80249285D01*
X131459376Y-80120827D01*
X131454166Y-80094635D01*
X131447326Y-80078122D01*
X131393826Y-79948959D01*
X131393819Y-79948946D01*
X131306218Y-79817843D01*
X131306215Y-79817839D01*
X131194721Y-79706345D01*
X131194717Y-79706342D01*
X131063614Y-79618741D01*
X131063601Y-79618734D01*
X130917930Y-79558396D01*
X130917918Y-79558393D01*
X130763274Y-79527632D01*
X130763271Y-79527632D01*
X130605587Y-79527632D01*
X130605584Y-79527632D01*
X130450939Y-79558393D01*
X130450927Y-79558396D01*
X130305256Y-79618734D01*
X130305243Y-79618741D01*
X130174140Y-79706342D01*
X130174136Y-79706345D01*
X130062642Y-79817839D01*
X130062639Y-79817843D01*
X129975038Y-79948946D01*
X129975033Y-79948955D01*
X129929766Y-80058242D01*
X129885925Y-80112645D01*
X129819631Y-80134710D01*
X129751932Y-80117431D01*
X129704321Y-80066294D01*
X129693588Y-80034980D01*
X129690685Y-80020390D01*
X129690684Y-80020383D01*
X129682220Y-79999949D01*
X129630344Y-79874707D01*
X129630337Y-79874694D01*
X129542736Y-79743591D01*
X129542733Y-79743587D01*
X129431239Y-79632093D01*
X129431235Y-79632090D01*
X129300132Y-79544489D01*
X129300119Y-79544482D01*
X129154448Y-79484144D01*
X129154436Y-79484141D01*
X128999792Y-79453380D01*
X128999789Y-79453380D01*
X128842105Y-79453380D01*
X128842102Y-79453380D01*
X128687457Y-79484141D01*
X128687445Y-79484144D01*
X128568397Y-79533455D01*
X128498927Y-79540924D01*
X128473493Y-79533455D01*
X128354445Y-79484144D01*
X128354433Y-79484141D01*
X128199789Y-79453380D01*
X128199786Y-79453380D01*
X128042102Y-79453380D01*
X128042099Y-79453380D01*
X127887454Y-79484141D01*
X127887442Y-79484144D01*
X127796578Y-79521781D01*
X127727108Y-79529250D01*
X127680236Y-79510322D01*
X127648021Y-79488797D01*
X127648017Y-79488795D01*
X127648013Y-79488793D01*
X127502343Y-79428455D01*
X127502331Y-79428452D01*
X127347687Y-79397691D01*
X127347684Y-79397691D01*
X127190000Y-79397691D01*
X127189997Y-79397691D01*
X127035352Y-79428452D01*
X127035340Y-79428455D01*
X126931910Y-79471297D01*
X126862440Y-79478766D01*
X126815567Y-79459838D01*
X126775568Y-79433111D01*
X126775555Y-79433104D01*
X126629884Y-79372766D01*
X126629872Y-79372763D01*
X126475228Y-79342002D01*
X126475225Y-79342002D01*
X126317541Y-79342002D01*
X126317538Y-79342002D01*
X126162893Y-79372763D01*
X126162881Y-79372766D01*
X126017210Y-79433104D01*
X126017197Y-79433111D01*
X125886094Y-79520712D01*
X125886090Y-79520715D01*
X125774596Y-79632209D01*
X125774593Y-79632213D01*
X125686992Y-79763316D01*
X125686987Y-79763326D01*
X125644565Y-79865742D01*
X125600724Y-79920145D01*
X125534429Y-79942210D01*
X125466730Y-79924931D01*
X125426902Y-79887180D01*
X125357595Y-79783454D01*
X125246098Y-79671957D01*
X125246094Y-79671954D01*
X125114991Y-79584353D01*
X125114978Y-79584346D01*
X124969307Y-79524008D01*
X124969295Y-79524005D01*
X124814651Y-79493244D01*
X124814648Y-79493244D01*
X124656964Y-79493244D01*
X124656961Y-79493244D01*
X124502316Y-79524005D01*
X124502304Y-79524008D01*
X124356634Y-79584346D01*
X124356623Y-79584352D01*
X124327862Y-79603570D01*
X124261184Y-79624447D01*
X124211520Y-79615028D01*
X124111286Y-79573510D01*
X124111274Y-79573507D01*
X123956630Y-79542746D01*
X123956627Y-79542746D01*
X123798943Y-79542746D01*
X123798940Y-79542746D01*
X123644295Y-79573507D01*
X123644283Y-79573510D01*
X123498613Y-79633848D01*
X123498593Y-79633859D01*
X123486390Y-79642013D01*
X123419712Y-79662889D01*
X123370052Y-79653470D01*
X123236759Y-79598259D01*
X123236751Y-79598257D01*
X123082107Y-79567496D01*
X123082104Y-79567496D01*
X122924420Y-79567496D01*
X122924417Y-79567496D01*
X122769772Y-79598257D01*
X122769760Y-79598260D01*
X122624090Y-79658598D01*
X122624074Y-79658607D01*
X122592160Y-79679931D01*
X122525482Y-79700808D01*
X122475819Y-79691389D01*
X122370491Y-79647761D01*
X122370479Y-79647758D01*
X122215835Y-79616997D01*
X122215832Y-79616997D01*
X122058148Y-79616997D01*
X122058145Y-79616997D01*
X121903500Y-79647758D01*
X121903488Y-79647761D01*
X121757818Y-79708099D01*
X121757804Y-79708107D01*
X121740979Y-79719349D01*
X121674301Y-79740225D01*
X121624639Y-79730806D01*
X121532621Y-79692691D01*
X121532609Y-79692688D01*
X121377965Y-79661927D01*
X121377962Y-79661927D01*
X121220278Y-79661927D01*
X121220275Y-79661927D01*
X121065630Y-79692688D01*
X121065618Y-79692691D01*
X120919948Y-79753029D01*
X120914567Y-79755906D01*
X120913262Y-79753465D01*
X120857824Y-79770709D01*
X120808397Y-79761287D01*
X120733497Y-79730263D01*
X120733490Y-79730261D01*
X120733489Y-79730261D01*
X120733488Y-79730260D01*
X120578845Y-79699500D01*
X120578842Y-79699500D01*
X120421158Y-79699500D01*
X120421155Y-79699500D01*
X120266510Y-79730261D01*
X120266498Y-79730264D01*
X120120827Y-79790602D01*
X120120814Y-79790609D01*
X119989711Y-79878210D01*
X119989707Y-79878213D01*
X119878213Y-79989707D01*
X119878210Y-79989711D01*
X119790609Y-80120814D01*
X119790602Y-80120827D01*
X119730264Y-80266498D01*
X119730261Y-80266510D01*
X119699500Y-80421153D01*
X119699500Y-80578846D01*
X119730261Y-80733489D01*
X119730264Y-80733501D01*
X119790602Y-80879172D01*
X119790609Y-80879185D01*
X119878210Y-81010288D01*
X119878213Y-81010292D01*
X119989707Y-81121786D01*
X119989711Y-81121789D01*
X120120814Y-81209390D01*
X120120827Y-81209397D01*
X120250062Y-81262927D01*
X120266503Y-81269737D01*
X120370815Y-81290486D01*
X120421153Y-81300499D01*
X120421156Y-81300500D01*
X120421158Y-81300500D01*
X120578844Y-81300500D01*
X120578845Y-81300499D01*
X120733497Y-81269737D01*
X120879179Y-81209394D01*
X120879184Y-81209390D01*
X120884552Y-81206522D01*
X120885911Y-81209066D01*
X120940652Y-81191729D01*
X120990723Y-81201139D01*
X121065623Y-81232164D01*
X121212028Y-81261286D01*
X121220273Y-81262926D01*
X121220276Y-81262927D01*
X121220278Y-81262927D01*
X121377964Y-81262927D01*
X121377965Y-81262926D01*
X121532617Y-81232164D01*
X121678299Y-81171821D01*
X121695127Y-81160576D01*
X121761803Y-81139698D01*
X121811468Y-81149116D01*
X121903493Y-81187234D01*
X122039904Y-81214368D01*
X122058143Y-81217996D01*
X122058146Y-81217997D01*
X122062694Y-81217997D01*
X122129733Y-81237682D01*
X122175488Y-81290486D01*
X122185432Y-81359644D01*
X122156407Y-81423200D01*
X122150375Y-81429678D01*
X116494727Y-87085325D01*
X116494724Y-87085328D01*
X116470467Y-87121631D01*
X116470468Y-87121632D01*
X116423534Y-87191874D01*
X116374499Y-87310255D01*
X116374497Y-87310261D01*
X116349500Y-87435928D01*
X116349500Y-88495064D01*
X116329815Y-88562103D01*
X116328603Y-88563954D01*
X116290608Y-88620817D01*
X116290602Y-88620828D01*
X116230264Y-88766498D01*
X116230261Y-88766510D01*
X116199500Y-88921153D01*
X116199500Y-89078846D01*
X116230261Y-89233489D01*
X116230264Y-89233501D01*
X116290602Y-89379172D01*
X116290609Y-89379185D01*
X116378210Y-89510288D01*
X116378213Y-89510292D01*
X116489707Y-89621786D01*
X116489711Y-89621789D01*
X116620814Y-89709390D01*
X116620827Y-89709397D01*
X116766498Y-89769735D01*
X116766503Y-89769737D01*
X116921153Y-89800499D01*
X116921156Y-89800500D01*
X116921158Y-89800500D01*
X117078844Y-89800500D01*
X117078845Y-89800499D01*
X117233497Y-89769737D01*
X117379179Y-89709394D01*
X117510289Y-89621789D01*
X117621789Y-89510289D01*
X117709394Y-89379179D01*
X117769737Y-89233497D01*
X117800500Y-89078842D01*
X117800500Y-88921158D01*
X117800500Y-88921155D01*
X117800499Y-88921153D01*
X117769738Y-88766510D01*
X117769737Y-88766503D01*
X117709394Y-88620821D01*
X117671396Y-88563953D01*
X117650520Y-88497276D01*
X117650500Y-88495064D01*
X117650500Y-87820808D01*
X117670185Y-87753769D01*
X117686819Y-87733127D01*
X118902191Y-86517755D01*
X119784286Y-86517755D01*
X119784286Y-86675448D01*
X119815047Y-86830091D01*
X119815050Y-86830103D01*
X119875388Y-86975774D01*
X119875395Y-86975787D01*
X119962996Y-87106890D01*
X119962999Y-87106894D01*
X120074493Y-87218388D01*
X120074497Y-87218391D01*
X120205600Y-87305992D01*
X120205613Y-87305999D01*
X120351284Y-87366337D01*
X120351289Y-87366339D01*
X120505939Y-87397101D01*
X120505942Y-87397102D01*
X120505944Y-87397102D01*
X120663630Y-87397102D01*
X120663631Y-87397101D01*
X120818283Y-87366339D01*
X120953668Y-87310261D01*
X120963958Y-87305999D01*
X120963958Y-87305998D01*
X120963965Y-87305996D01*
X121095075Y-87218391D01*
X121206575Y-87106891D01*
X121294180Y-86975781D01*
X121354523Y-86830099D01*
X121385286Y-86675444D01*
X121385286Y-86517760D01*
X121385286Y-86517757D01*
X121385285Y-86517755D01*
X121354524Y-86363112D01*
X121354523Y-86363105D01*
X121345485Y-86341286D01*
X121294183Y-86217429D01*
X121294176Y-86217416D01*
X121206575Y-86086313D01*
X121206572Y-86086309D01*
X121095078Y-85974815D01*
X121095074Y-85974812D01*
X120963971Y-85887211D01*
X120963958Y-85887204D01*
X120818287Y-85826866D01*
X120818275Y-85826863D01*
X120663631Y-85796102D01*
X120663628Y-85796102D01*
X120505944Y-85796102D01*
X120505941Y-85796102D01*
X120351296Y-85826863D01*
X120351284Y-85826866D01*
X120205613Y-85887204D01*
X120205600Y-85887211D01*
X120074497Y-85974812D01*
X120074493Y-85974815D01*
X119962999Y-86086309D01*
X119962996Y-86086313D01*
X119875395Y-86217416D01*
X119875388Y-86217429D01*
X119815050Y-86363100D01*
X119815047Y-86363112D01*
X119784286Y-86517755D01*
X118902191Y-86517755D01*
X123233127Y-82186819D01*
X123294450Y-82153334D01*
X123320808Y-82150500D01*
X132128533Y-82150500D01*
X132213077Y-82133682D01*
X132254206Y-82125501D01*
X132372589Y-82076465D01*
X132479131Y-82005277D01*
X132957085Y-81527323D01*
X133018408Y-81493838D01*
X133088099Y-81498822D01*
X133144033Y-81540693D01*
X133168450Y-81606158D01*
X133168766Y-81615004D01*
X133168766Y-89859925D01*
X133149081Y-89926964D01*
X133132447Y-89947606D01*
X129897068Y-93182984D01*
X129835745Y-93216469D01*
X129833579Y-93216920D01*
X129766508Y-93230261D01*
X129766498Y-93230264D01*
X129620827Y-93290602D01*
X129620814Y-93290609D01*
X129489711Y-93378210D01*
X129489707Y-93378213D01*
X129378213Y-93489707D01*
X129378210Y-93489711D01*
X129290609Y-93620814D01*
X129290602Y-93620827D01*
X129230264Y-93766498D01*
X129230261Y-93766510D01*
X129199500Y-93921153D01*
X129199500Y-94078846D01*
X129230261Y-94233489D01*
X129230264Y-94233501D01*
X129290602Y-94379172D01*
X129290609Y-94379185D01*
X129378210Y-94510288D01*
X129378213Y-94510292D01*
X129489707Y-94621786D01*
X129489711Y-94621789D01*
X129620814Y-94709390D01*
X129620827Y-94709397D01*
X129766498Y-94769735D01*
X129766503Y-94769737D01*
X129921153Y-94800499D01*
X129921156Y-94800500D01*
X129921158Y-94800500D01*
X130078844Y-94800500D01*
X130078845Y-94800499D01*
X130233497Y-94769737D01*
X130379179Y-94709394D01*
X130510289Y-94621789D01*
X130621789Y-94510289D01*
X130709394Y-94379179D01*
X130769737Y-94233497D01*
X130783079Y-94166416D01*
X130815463Y-94104509D01*
X130816959Y-94102985D01*
X134324543Y-90595403D01*
X134395731Y-90488861D01*
X134417955Y-90435208D01*
X134444767Y-90370478D01*
X134469766Y-90244803D01*
X134469766Y-81328929D01*
X134489451Y-81261890D01*
X134542255Y-81216135D01*
X134611413Y-81206191D01*
X134641214Y-81214366D01*
X134723014Y-81248249D01*
X134831031Y-81269735D01*
X134877664Y-81279011D01*
X134877667Y-81279012D01*
X134877669Y-81279012D01*
X135035355Y-81279012D01*
X135035356Y-81279011D01*
X135190008Y-81248249D01*
X135303740Y-81201140D01*
X135335683Y-81187909D01*
X135335683Y-81187908D01*
X135335690Y-81187906D01*
X135466800Y-81100301D01*
X135578300Y-80988801D01*
X135622398Y-80922804D01*
X135676010Y-80877999D01*
X135745335Y-80869292D01*
X135808362Y-80899446D01*
X135845082Y-80958889D01*
X135849500Y-80991695D01*
X135849500Y-95944246D01*
X135829815Y-96011285D01*
X135813181Y-96031927D01*
X135285690Y-96559417D01*
X135224367Y-96592902D01*
X135222201Y-96593353D01*
X135155130Y-96606694D01*
X135155120Y-96606697D01*
X135009449Y-96667035D01*
X135009436Y-96667042D01*
X134878333Y-96754643D01*
X134878329Y-96754646D01*
X134766835Y-96866140D01*
X134766832Y-96866144D01*
X134679231Y-96997247D01*
X134679224Y-96997260D01*
X134618886Y-97142931D01*
X134618883Y-97142943D01*
X134588122Y-97297586D01*
X134588122Y-97455279D01*
X134618883Y-97609922D01*
X134618886Y-97609934D01*
X134679224Y-97755605D01*
X134679231Y-97755618D01*
X134766832Y-97886721D01*
X134766835Y-97886725D01*
X134878329Y-97998219D01*
X134883041Y-98002086D01*
X134881505Y-98003956D01*
X134919476Y-98049355D01*
X134928211Y-98118676D01*
X134898082Y-98181716D01*
X134893481Y-98186571D01*
X124994722Y-108085331D01*
X124994718Y-108085336D01*
X124954928Y-108144890D01*
X124954924Y-108144896D01*
X124939229Y-108168384D01*
X124923535Y-108191872D01*
X124923533Y-108191875D01*
X124874499Y-108310255D01*
X124874497Y-108310261D01*
X124849500Y-108435928D01*
X124849500Y-109179192D01*
X124829815Y-109246231D01*
X124813181Y-109266873D01*
X124266873Y-109813181D01*
X124205550Y-109846666D01*
X124179192Y-109849500D01*
X122067976Y-109849500D01*
X122000937Y-109829815D01*
X121955182Y-109777011D01*
X121945238Y-109707853D01*
X121974263Y-109644297D01*
X122027990Y-109609428D01*
X122027713Y-109608758D01*
X122031334Y-109607257D01*
X122031977Y-109606841D01*
X122033337Y-109606428D01*
X122033338Y-109606427D01*
X122033340Y-109606427D01*
X122179022Y-109546084D01*
X122310132Y-109458479D01*
X122421632Y-109346979D01*
X122507601Y-109218318D01*
X122509235Y-109215873D01*
X122509240Y-109215862D01*
X122569578Y-109070191D01*
X122569580Y-109070187D01*
X122600343Y-108915532D01*
X122600343Y-108757848D01*
X122600343Y-108757845D01*
X122600342Y-108757843D01*
X122583938Y-108675374D01*
X122569580Y-108603193D01*
X122569578Y-108603188D01*
X122509240Y-108457517D01*
X122509233Y-108457504D01*
X122421632Y-108326401D01*
X122421629Y-108326397D01*
X122310135Y-108214903D01*
X122310131Y-108214900D01*
X122179028Y-108127299D01*
X122179015Y-108127292D01*
X122033344Y-108066954D01*
X122033332Y-108066951D01*
X121878688Y-108036190D01*
X121878685Y-108036190D01*
X121721001Y-108036190D01*
X121720998Y-108036190D01*
X121566353Y-108066951D01*
X121566341Y-108066954D01*
X121420670Y-108127292D01*
X121420657Y-108127299D01*
X121289554Y-108214900D01*
X121289550Y-108214903D01*
X121178056Y-108326397D01*
X121178050Y-108326405D01*
X121090450Y-108457508D01*
X121090446Y-108457514D01*
X121077192Y-108489513D01*
X121050313Y-108529739D01*
X120862181Y-108717872D01*
X120800858Y-108751357D01*
X120731167Y-108746373D01*
X120675233Y-108704502D01*
X120650816Y-108639037D01*
X120650500Y-108630191D01*
X120650500Y-107820807D01*
X120670185Y-107753768D01*
X120686815Y-107733130D01*
X121407876Y-107012068D01*
X121469197Y-106978585D01*
X121538888Y-106983569D01*
X121543000Y-106985187D01*
X121546147Y-106986491D01*
X121700797Y-107017253D01*
X121700800Y-107017254D01*
X121700802Y-107017254D01*
X121858488Y-107017254D01*
X121858489Y-107017253D01*
X122013141Y-106986491D01*
X122158823Y-106926148D01*
X122289933Y-106838543D01*
X122401433Y-106727043D01*
X122489038Y-106595933D01*
X122549381Y-106450251D01*
X122580144Y-106295596D01*
X122580144Y-106137912D01*
X122580144Y-106137909D01*
X122580143Y-106137907D01*
X122565763Y-106065615D01*
X122549381Y-105983257D01*
X122526153Y-105927179D01*
X122489041Y-105837581D01*
X122489034Y-105837568D01*
X122401433Y-105706465D01*
X122401430Y-105706461D01*
X122289936Y-105594967D01*
X122289932Y-105594964D01*
X122158829Y-105507363D01*
X122158816Y-105507356D01*
X122013145Y-105447018D01*
X122013133Y-105447015D01*
X121858489Y-105416254D01*
X121858486Y-105416254D01*
X121700802Y-105416254D01*
X121700799Y-105416254D01*
X121546154Y-105447015D01*
X121546142Y-105447018D01*
X121400471Y-105507356D01*
X121400464Y-105507360D01*
X121371572Y-105526665D01*
X121343599Y-105545356D01*
X121276923Y-105566234D01*
X121274709Y-105566254D01*
X121219175Y-105566254D01*
X121093507Y-105591251D01*
X121093501Y-105591253D01*
X120975120Y-105640288D01*
X120868572Y-105711480D01*
X119494724Y-107085328D01*
X119448716Y-107154184D01*
X119448717Y-107154185D01*
X119423534Y-107191874D01*
X119374499Y-107310255D01*
X119374497Y-107310261D01*
X119349500Y-107435928D01*
X119349500Y-112064070D01*
X119351201Y-112072621D01*
X119360412Y-112118927D01*
X119360638Y-112120060D01*
X119360638Y-112120062D01*
X119374497Y-112189736D01*
X119374499Y-112189744D01*
X119415661Y-112289119D01*
X119423535Y-112308127D01*
X119474875Y-112384964D01*
X119494726Y-112414673D01*
X120434327Y-113354274D01*
X120534425Y-113421157D01*
X120540872Y-113425465D01*
X120589908Y-113445776D01*
X120659256Y-113474501D01*
X120659260Y-113474501D01*
X120659261Y-113474502D01*
X120784928Y-113499500D01*
X120784931Y-113499500D01*
X125581954Y-113499500D01*
X125648993Y-113519185D01*
X125694748Y-113571989D01*
X125703571Y-113599309D01*
X125730261Y-113733489D01*
X125730264Y-113733501D01*
X125790602Y-113879172D01*
X125790609Y-113879185D01*
X125878210Y-114010288D01*
X125878213Y-114010292D01*
X125989707Y-114121786D01*
X125989711Y-114121789D01*
X126120814Y-114209390D01*
X126120827Y-114209397D01*
X126266498Y-114269735D01*
X126266503Y-114269737D01*
X126421153Y-114300499D01*
X126421156Y-114300500D01*
X126421158Y-114300500D01*
X126578844Y-114300500D01*
X126578845Y-114300499D01*
X126733497Y-114269737D01*
X126879179Y-114209394D01*
X127010289Y-114121789D01*
X127121789Y-114010289D01*
X127209394Y-113879179D01*
X127269737Y-113733497D01*
X127296429Y-113599309D01*
X127328814Y-113537398D01*
X127389529Y-113502824D01*
X127418046Y-113499500D01*
X130715071Y-113499500D01*
X130799615Y-113482682D01*
X130840744Y-113474501D01*
X130959127Y-113425465D01*
X130965515Y-113421197D01*
X130965575Y-113421157D01*
X131015621Y-113387717D01*
X131065669Y-113354277D01*
X131404462Y-113015484D01*
X131761462Y-112658485D01*
X131822785Y-112625000D01*
X131892477Y-112629984D01*
X131948410Y-112671856D01*
X131972827Y-112737320D01*
X131973143Y-112746166D01*
X131973143Y-112878254D01*
X132003904Y-113032897D01*
X132003907Y-113032909D01*
X132064245Y-113178580D01*
X132064252Y-113178593D01*
X132151853Y-113309696D01*
X132151856Y-113309700D01*
X132263350Y-113421194D01*
X132263354Y-113421197D01*
X132394457Y-113508798D01*
X132394470Y-113508805D01*
X132540141Y-113569143D01*
X132540146Y-113569145D01*
X132691790Y-113599309D01*
X132694796Y-113599907D01*
X132694799Y-113599908D01*
X132694801Y-113599908D01*
X132852487Y-113599908D01*
X132852488Y-113599907D01*
X133007140Y-113569145D01*
X133152822Y-113508802D01*
X133283932Y-113421197D01*
X133283976Y-113421153D01*
X135699500Y-113421153D01*
X135699500Y-113578846D01*
X135730261Y-113733489D01*
X135730264Y-113733501D01*
X135790602Y-113879172D01*
X135790609Y-113879185D01*
X135878210Y-114010288D01*
X135878213Y-114010292D01*
X135989707Y-114121786D01*
X135989711Y-114121789D01*
X136120814Y-114209390D01*
X136120827Y-114209397D01*
X136266498Y-114269735D01*
X136266503Y-114269737D01*
X136421153Y-114300499D01*
X136421156Y-114300500D01*
X136421158Y-114300500D01*
X136578844Y-114300500D01*
X136578845Y-114300499D01*
X136733497Y-114269737D01*
X136879179Y-114209394D01*
X137010289Y-114121789D01*
X137121789Y-114010289D01*
X137209394Y-113879179D01*
X137269737Y-113733497D01*
X137300500Y-113578842D01*
X137300500Y-113421158D01*
X137300500Y-113421157D01*
X137300500Y-113421155D01*
X137300499Y-113421153D01*
X137291360Y-113375208D01*
X137269737Y-113266503D01*
X137252503Y-113224896D01*
X137209397Y-113120827D01*
X137209390Y-113120814D01*
X137121789Y-112989711D01*
X137121786Y-112989707D01*
X137010292Y-112878213D01*
X137010288Y-112878210D01*
X136879185Y-112790609D01*
X136879172Y-112790602D01*
X136733501Y-112730264D01*
X136733489Y-112730261D01*
X136578845Y-112699500D01*
X136578842Y-112699500D01*
X136421158Y-112699500D01*
X136421155Y-112699500D01*
X136266510Y-112730261D01*
X136266498Y-112730264D01*
X136120827Y-112790602D01*
X136120814Y-112790609D01*
X135989711Y-112878210D01*
X135989707Y-112878213D01*
X135878213Y-112989707D01*
X135878210Y-112989711D01*
X135790609Y-113120814D01*
X135790602Y-113120827D01*
X135730264Y-113266498D01*
X135730261Y-113266510D01*
X135699500Y-113421153D01*
X133283976Y-113421153D01*
X133329921Y-113375208D01*
X133377745Y-113327385D01*
X133395429Y-113309700D01*
X133395432Y-113309697D01*
X133483037Y-113178587D01*
X133543380Y-113032905D01*
X133574143Y-112878250D01*
X133574143Y-112720566D01*
X133574143Y-112720563D01*
X133574142Y-112720561D01*
X133556125Y-112629984D01*
X133543380Y-112565911D01*
X133522206Y-112514792D01*
X133483040Y-112420235D01*
X133483033Y-112420222D01*
X133395432Y-112289119D01*
X133395429Y-112289115D01*
X133283935Y-112177621D01*
X133283931Y-112177618D01*
X133152828Y-112090017D01*
X133152815Y-112090010D01*
X133007144Y-112029672D01*
X133007132Y-112029669D01*
X132852488Y-111998908D01*
X132852485Y-111998908D01*
X132694801Y-111998908D01*
X132694798Y-111998908D01*
X132540153Y-112029669D01*
X132540141Y-112029672D01*
X132394470Y-112090010D01*
X132394452Y-112090020D01*
X132343390Y-112124139D01*
X132276713Y-112145017D01*
X132209333Y-112126532D01*
X132162643Y-112074553D01*
X132150500Y-112021037D01*
X132150500Y-111626545D01*
X136392517Y-111626545D01*
X136392517Y-111784238D01*
X136423278Y-111938881D01*
X136423281Y-111938893D01*
X136483619Y-112084564D01*
X136483626Y-112084577D01*
X136571227Y-112215680D01*
X136571230Y-112215684D01*
X136682724Y-112327178D01*
X136682728Y-112327181D01*
X136813831Y-112414782D01*
X136813844Y-112414789D01*
X136959515Y-112475127D01*
X136959520Y-112475129D01*
X137114170Y-112505891D01*
X137114173Y-112505892D01*
X137114175Y-112505892D01*
X137271861Y-112505892D01*
X137271862Y-112505891D01*
X137426514Y-112475129D01*
X137572196Y-112414786D01*
X137703306Y-112327181D01*
X137814806Y-112215681D01*
X137902411Y-112084571D01*
X137962754Y-111938889D01*
X137993517Y-111784234D01*
X137993517Y-111626550D01*
X137993517Y-111626547D01*
X137993516Y-111626545D01*
X137974271Y-111529796D01*
X137962754Y-111471895D01*
X137940553Y-111418296D01*
X137902414Y-111326219D01*
X137902407Y-111326206D01*
X137814806Y-111195103D01*
X137814803Y-111195099D01*
X137703309Y-111083605D01*
X137703305Y-111083602D01*
X137605377Y-111018168D01*
X137605375Y-111018166D01*
X137572207Y-110996004D01*
X137572189Y-110995994D01*
X137426518Y-110935656D01*
X137426506Y-110935653D01*
X137353611Y-110921153D01*
X140199500Y-110921153D01*
X140199500Y-111078846D01*
X140230261Y-111233489D01*
X140230264Y-111233501D01*
X140290602Y-111379172D01*
X140290609Y-111379185D01*
X140378210Y-111510288D01*
X140378213Y-111510292D01*
X140489707Y-111621786D01*
X140489711Y-111621789D01*
X140620814Y-111709390D01*
X140620827Y-111709397D01*
X140766498Y-111769735D01*
X140766503Y-111769737D01*
X140921153Y-111800499D01*
X140921156Y-111800500D01*
X140921158Y-111800500D01*
X141078844Y-111800500D01*
X141078845Y-111800499D01*
X141233497Y-111769737D01*
X141379179Y-111709394D01*
X141510289Y-111621789D01*
X141621789Y-111510289D01*
X141709394Y-111379179D01*
X141769737Y-111233497D01*
X141800500Y-111078842D01*
X141800500Y-110921158D01*
X141800500Y-110921155D01*
X141800499Y-110921153D01*
X141774531Y-110790606D01*
X141769737Y-110766503D01*
X141765061Y-110755213D01*
X141709397Y-110620827D01*
X141709390Y-110620814D01*
X141621789Y-110489711D01*
X141621786Y-110489707D01*
X141510292Y-110378213D01*
X141510288Y-110378210D01*
X141379185Y-110290609D01*
X141379172Y-110290602D01*
X141233501Y-110230264D01*
X141233489Y-110230261D01*
X141078845Y-110199500D01*
X141078842Y-110199500D01*
X140921158Y-110199500D01*
X140921155Y-110199500D01*
X140766510Y-110230261D01*
X140766498Y-110230264D01*
X140620827Y-110290602D01*
X140620814Y-110290609D01*
X140489711Y-110378210D01*
X140489707Y-110378213D01*
X140378213Y-110489707D01*
X140378210Y-110489711D01*
X140290609Y-110620814D01*
X140290602Y-110620827D01*
X140230264Y-110766498D01*
X140230261Y-110766510D01*
X140199500Y-110921153D01*
X137353611Y-110921153D01*
X137271862Y-110904892D01*
X137271859Y-110904892D01*
X137114175Y-110904892D01*
X137114172Y-110904892D01*
X136959527Y-110935653D01*
X136959515Y-110935656D01*
X136813844Y-110995994D01*
X136813831Y-110996001D01*
X136682728Y-111083602D01*
X136682724Y-111083605D01*
X136571230Y-111195099D01*
X136571227Y-111195103D01*
X136483626Y-111326206D01*
X136483619Y-111326219D01*
X136423281Y-111471890D01*
X136423278Y-111471902D01*
X136392517Y-111626545D01*
X132150500Y-111626545D01*
X132150500Y-106696159D01*
X137974506Y-106696159D01*
X137974506Y-106853852D01*
X138005267Y-107008495D01*
X138005270Y-107008507D01*
X138065608Y-107154178D01*
X138065615Y-107154191D01*
X138153216Y-107285294D01*
X138153219Y-107285298D01*
X138264713Y-107396792D01*
X138264717Y-107396795D01*
X138395820Y-107484396D01*
X138395833Y-107484403D01*
X138469200Y-107514792D01*
X138541509Y-107544743D01*
X138696159Y-107575505D01*
X138696162Y-107575506D01*
X138696164Y-107575506D01*
X138853850Y-107575506D01*
X138853851Y-107575505D01*
X139008503Y-107544743D01*
X139154185Y-107484400D01*
X139285295Y-107396795D01*
X139396795Y-107285295D01*
X139484400Y-107154185D01*
X139544743Y-107008503D01*
X139575506Y-106853848D01*
X139575506Y-106696164D01*
X139575506Y-106696161D01*
X139575505Y-106696159D01*
X139555570Y-106595939D01*
X139544743Y-106541509D01*
X139506306Y-106448713D01*
X139484403Y-106395833D01*
X139484396Y-106395820D01*
X139396795Y-106264717D01*
X139396792Y-106264713D01*
X139285298Y-106153219D01*
X139285294Y-106153216D01*
X139154191Y-106065615D01*
X139154178Y-106065608D01*
X139008507Y-106005270D01*
X139008495Y-106005267D01*
X138853851Y-105974506D01*
X138853848Y-105974506D01*
X138696164Y-105974506D01*
X138696161Y-105974506D01*
X138541516Y-106005267D01*
X138541504Y-106005270D01*
X138395833Y-106065608D01*
X138395820Y-106065615D01*
X138264717Y-106153216D01*
X138264713Y-106153219D01*
X138153219Y-106264713D01*
X138153216Y-106264717D01*
X138065615Y-106395820D01*
X138065608Y-106395833D01*
X138005270Y-106541504D01*
X138005267Y-106541516D01*
X137974506Y-106696159D01*
X132150500Y-106696159D01*
X132150500Y-105320808D01*
X132170185Y-105253769D01*
X132186819Y-105233127D01*
X134498793Y-102921153D01*
X135699500Y-102921153D01*
X135699500Y-103078846D01*
X135730261Y-103233489D01*
X135730264Y-103233501D01*
X135790602Y-103379172D01*
X135790609Y-103379185D01*
X135878210Y-103510288D01*
X135878213Y-103510292D01*
X135989707Y-103621786D01*
X135989711Y-103621789D01*
X136120814Y-103709390D01*
X136120827Y-103709397D01*
X136258695Y-103766503D01*
X136266503Y-103769737D01*
X136421153Y-103800499D01*
X136421156Y-103800500D01*
X136421158Y-103800500D01*
X136578844Y-103800500D01*
X136578845Y-103800499D01*
X136733497Y-103769737D01*
X136879179Y-103709394D01*
X137010289Y-103621789D01*
X137121789Y-103510289D01*
X137209394Y-103379179D01*
X137269737Y-103233497D01*
X137300500Y-103078842D01*
X137300500Y-102921158D01*
X137300500Y-102921155D01*
X137300499Y-102921153D01*
X137287437Y-102855486D01*
X137269737Y-102766503D01*
X137252036Y-102723769D01*
X137209397Y-102620827D01*
X137209390Y-102620814D01*
X137121789Y-102489711D01*
X137121786Y-102489707D01*
X137010292Y-102378213D01*
X137010288Y-102378210D01*
X136879185Y-102290609D01*
X136879172Y-102290602D01*
X136733501Y-102230264D01*
X136733489Y-102230261D01*
X136578845Y-102199500D01*
X136578842Y-102199500D01*
X136421158Y-102199500D01*
X136421155Y-102199500D01*
X136266510Y-102230261D01*
X136266498Y-102230264D01*
X136120827Y-102290602D01*
X136120814Y-102290609D01*
X135989711Y-102378210D01*
X135989707Y-102378213D01*
X135878213Y-102489707D01*
X135878210Y-102489711D01*
X135790609Y-102620814D01*
X135790602Y-102620827D01*
X135730264Y-102766498D01*
X135730261Y-102766510D01*
X135699500Y-102921153D01*
X134498793Y-102921153D01*
X135498793Y-101921153D01*
X142199500Y-101921153D01*
X142199500Y-102078846D01*
X142230261Y-102233489D01*
X142230264Y-102233501D01*
X142290602Y-102379172D01*
X142290609Y-102379185D01*
X142378210Y-102510288D01*
X142378213Y-102510292D01*
X142489707Y-102621786D01*
X142489711Y-102621789D01*
X142620814Y-102709390D01*
X142620827Y-102709397D01*
X142727438Y-102753556D01*
X142766503Y-102769737D01*
X142921153Y-102800499D01*
X142921156Y-102800500D01*
X142921158Y-102800500D01*
X143078844Y-102800500D01*
X143078845Y-102800499D01*
X143233497Y-102769737D01*
X143379179Y-102709394D01*
X143510289Y-102621789D01*
X143621789Y-102510289D01*
X143709394Y-102379179D01*
X143769737Y-102233497D01*
X143800500Y-102078842D01*
X143800500Y-101921158D01*
X143800500Y-101921155D01*
X143800499Y-101921153D01*
X143769738Y-101766510D01*
X143769737Y-101766503D01*
X143746080Y-101709390D01*
X143709397Y-101620827D01*
X143709390Y-101620814D01*
X143621789Y-101489711D01*
X143621786Y-101489707D01*
X143510292Y-101378213D01*
X143510288Y-101378210D01*
X143379185Y-101290609D01*
X143379172Y-101290602D01*
X143233501Y-101230264D01*
X143233489Y-101230261D01*
X143078845Y-101199500D01*
X143078842Y-101199500D01*
X142921158Y-101199500D01*
X142921155Y-101199500D01*
X142766510Y-101230261D01*
X142766498Y-101230264D01*
X142620827Y-101290602D01*
X142620814Y-101290609D01*
X142489711Y-101378210D01*
X142489707Y-101378213D01*
X142378213Y-101489707D01*
X142378210Y-101489711D01*
X142290609Y-101620814D01*
X142290602Y-101620827D01*
X142230264Y-101766498D01*
X142230261Y-101766510D01*
X142199500Y-101921153D01*
X135498793Y-101921153D01*
X140505271Y-96914675D01*
X140505276Y-96914670D01*
X140576465Y-96808127D01*
X140625501Y-96689744D01*
X140627743Y-96678468D01*
X140630017Y-96667041D01*
X140630017Y-96667039D01*
X140650500Y-96564069D01*
X140650500Y-80820807D01*
X140670185Y-80753768D01*
X140686819Y-80733126D01*
X142233126Y-79186819D01*
X142294449Y-79153334D01*
X142320807Y-79150500D01*
X144756162Y-79150500D01*
X144823201Y-79170185D01*
X144866647Y-79218205D01*
X144913549Y-79310256D01*
X144919951Y-79322819D01*
X145044890Y-79494786D01*
X145195213Y-79645109D01*
X145367182Y-79770050D01*
X145375946Y-79774516D01*
X145426742Y-79822491D01*
X145443536Y-79890312D01*
X145420998Y-79956447D01*
X145375946Y-79995484D01*
X145367182Y-79999949D01*
X145195213Y-80124890D01*
X145044890Y-80275213D01*
X144919951Y-80447179D01*
X144823444Y-80636585D01*
X144757753Y-80838760D01*
X144724500Y-81048713D01*
X144724500Y-81261286D01*
X144751170Y-81429678D01*
X144757754Y-81471243D01*
X144783746Y-81551239D01*
X144823444Y-81673414D01*
X144919951Y-81862820D01*
X145044890Y-82034786D01*
X145195213Y-82185109D01*
X145367182Y-82310050D01*
X145375946Y-82314516D01*
X145426742Y-82362491D01*
X145443536Y-82430312D01*
X145420998Y-82496447D01*
X145375946Y-82535484D01*
X145367182Y-82539949D01*
X145195213Y-82664890D01*
X145044890Y-82815213D01*
X144919951Y-82987179D01*
X144823444Y-83176585D01*
X144757753Y-83378760D01*
X144724500Y-83588713D01*
X144724500Y-83801287D01*
X144757754Y-84011243D01*
X144783746Y-84091239D01*
X144823444Y-84213414D01*
X144919951Y-84402820D01*
X145044890Y-84574786D01*
X145195213Y-84725109D01*
X145367182Y-84850050D01*
X145375946Y-84854516D01*
X145426742Y-84902491D01*
X145443536Y-84970312D01*
X145420998Y-85036447D01*
X145375946Y-85075484D01*
X145367182Y-85079949D01*
X145195213Y-85204890D01*
X145044890Y-85355213D01*
X144919951Y-85527179D01*
X144823444Y-85716585D01*
X144757753Y-85918760D01*
X144724500Y-86128713D01*
X144724500Y-86341286D01*
X144752450Y-86517760D01*
X144757754Y-86551243D01*
X144798110Y-86675446D01*
X144823444Y-86753414D01*
X144919951Y-86942820D01*
X145044890Y-87114786D01*
X145195213Y-87265109D01*
X145367182Y-87390050D01*
X145375946Y-87394516D01*
X145426742Y-87442491D01*
X145443536Y-87510312D01*
X145420998Y-87576447D01*
X145375946Y-87615484D01*
X145367182Y-87619949D01*
X145195213Y-87744890D01*
X145044890Y-87895213D01*
X144919951Y-88067179D01*
X144823444Y-88256585D01*
X144757753Y-88458760D01*
X144741385Y-88562103D01*
X144724500Y-88668713D01*
X144724500Y-88881287D01*
X144757754Y-89091243D01*
X144803975Y-89233497D01*
X144823444Y-89293414D01*
X144919951Y-89482820D01*
X145044890Y-89654786D01*
X145195213Y-89805109D01*
X145367182Y-89930050D01*
X145375946Y-89934516D01*
X145426742Y-89982491D01*
X145443536Y-90050312D01*
X145420998Y-90116447D01*
X145375946Y-90155484D01*
X145367182Y-90159949D01*
X145195213Y-90284890D01*
X145195209Y-90284894D01*
X145044896Y-90435208D01*
X145044890Y-90435213D01*
X144919951Y-90607179D01*
X144823444Y-90796585D01*
X144757753Y-90998760D01*
X144724500Y-91208713D01*
X144724500Y-91421287D01*
X144757754Y-91631243D01*
X144783746Y-91711239D01*
X144823444Y-91833414D01*
X144919951Y-92022820D01*
X145044890Y-92194786D01*
X145195213Y-92345109D01*
X145367182Y-92470050D01*
X145375946Y-92474516D01*
X145426742Y-92522491D01*
X145443536Y-92590312D01*
X145420998Y-92656447D01*
X145375946Y-92695484D01*
X145367182Y-92699949D01*
X145195213Y-92824890D01*
X145044890Y-92975213D01*
X144919951Y-93147179D01*
X144823444Y-93336585D01*
X144757753Y-93538760D01*
X144744757Y-93620814D01*
X144724500Y-93748713D01*
X144724500Y-93961287D01*
X144757754Y-94171243D01*
X144783746Y-94251239D01*
X144823444Y-94373414D01*
X144919951Y-94562820D01*
X145044890Y-94734786D01*
X145195213Y-94885109D01*
X145367182Y-95010050D01*
X145375946Y-95014516D01*
X145426742Y-95062491D01*
X145443536Y-95130312D01*
X145420998Y-95196447D01*
X145375946Y-95235484D01*
X145367182Y-95239949D01*
X145195213Y-95364890D01*
X145044890Y-95515213D01*
X144919951Y-95687179D01*
X144823444Y-95876585D01*
X144757753Y-96078760D01*
X144724500Y-96288713D01*
X144724500Y-96501286D01*
X144754347Y-96689737D01*
X144757754Y-96711243D01*
X144808083Y-96866140D01*
X144823444Y-96913414D01*
X144919951Y-97102820D01*
X145044890Y-97274786D01*
X145195213Y-97425109D01*
X145367182Y-97550050D01*
X145375946Y-97554516D01*
X145426742Y-97602491D01*
X145443536Y-97670312D01*
X145420998Y-97736447D01*
X145375946Y-97775484D01*
X145367182Y-97779949D01*
X145195213Y-97904890D01*
X145044890Y-98055213D01*
X144919951Y-98227179D01*
X144823444Y-98416585D01*
X144757753Y-98618760D01*
X144724500Y-98828713D01*
X144724500Y-99041286D01*
X144754430Y-99230261D01*
X144757754Y-99251243D01*
X144799009Y-99378213D01*
X144823444Y-99453414D01*
X144919951Y-99642820D01*
X145044890Y-99814786D01*
X145195213Y-99965109D01*
X145367182Y-100090050D01*
X145375946Y-100094516D01*
X145426742Y-100142491D01*
X145443536Y-100210312D01*
X145420998Y-100276447D01*
X145375946Y-100315484D01*
X145367182Y-100319949D01*
X145195213Y-100444890D01*
X145044890Y-100595213D01*
X144919951Y-100767179D01*
X144823444Y-100956585D01*
X144757753Y-101158760D01*
X144724675Y-101367611D01*
X144724500Y-101368713D01*
X144724500Y-101581287D01*
X144730915Y-101621789D01*
X144754347Y-101769737D01*
X144757754Y-101791243D01*
X144815626Y-101969355D01*
X144823444Y-101993414D01*
X144919951Y-102182820D01*
X145044890Y-102354786D01*
X145195213Y-102505109D01*
X145367182Y-102630050D01*
X145375946Y-102634516D01*
X145426742Y-102682491D01*
X145443536Y-102750312D01*
X145420998Y-102816447D01*
X145375946Y-102855484D01*
X145367182Y-102859949D01*
X145195213Y-102984890D01*
X145044890Y-103135213D01*
X144919951Y-103307179D01*
X144823444Y-103496585D01*
X144757753Y-103698760D01*
X144741639Y-103800500D01*
X144724500Y-103908713D01*
X144724500Y-104121287D01*
X144757754Y-104331243D01*
X144783746Y-104411239D01*
X144823444Y-104533414D01*
X144919951Y-104722820D01*
X145044890Y-104894786D01*
X145195213Y-105045109D01*
X145367182Y-105170050D01*
X145375946Y-105174516D01*
X145426742Y-105222491D01*
X145443536Y-105290312D01*
X145420998Y-105356447D01*
X145375946Y-105395484D01*
X145367182Y-105399949D01*
X145195213Y-105524890D01*
X145044890Y-105675213D01*
X144919951Y-105847179D01*
X144823444Y-106036585D01*
X144823443Y-106036587D01*
X144823443Y-106036588D01*
X144814012Y-106065615D01*
X144757753Y-106238760D01*
X144724500Y-106448713D01*
X144724500Y-106661286D01*
X144754999Y-106853852D01*
X144757754Y-106871243D01*
X144795200Y-106986490D01*
X144823444Y-107073414D01*
X144919951Y-107262820D01*
X145044890Y-107434786D01*
X145195213Y-107585109D01*
X145367182Y-107710050D01*
X145375946Y-107714516D01*
X145426742Y-107762491D01*
X145443536Y-107830312D01*
X145420998Y-107896447D01*
X145375946Y-107935484D01*
X145367182Y-107939949D01*
X145195213Y-108064890D01*
X145044890Y-108215213D01*
X144919951Y-108387179D01*
X144823444Y-108576585D01*
X144757753Y-108778760D01*
X144733870Y-108929554D01*
X144724500Y-108988713D01*
X144724500Y-109201287D01*
X144734534Y-109264644D01*
X144747575Y-109346979D01*
X144757754Y-109411243D01*
X144821173Y-109606427D01*
X144823444Y-109613414D01*
X144919951Y-109802820D01*
X145044890Y-109974786D01*
X145195213Y-110125109D01*
X145367182Y-110250050D01*
X145375946Y-110254516D01*
X145426742Y-110302491D01*
X145443536Y-110370312D01*
X145420998Y-110436447D01*
X145375946Y-110475484D01*
X145367182Y-110479949D01*
X145195213Y-110604890D01*
X145044890Y-110755213D01*
X144919951Y-110927179D01*
X144823444Y-111116585D01*
X144757753Y-111318760D01*
X144733500Y-111471890D01*
X144724500Y-111528713D01*
X144724500Y-111741287D01*
X144731302Y-111784234D01*
X144752484Y-111917973D01*
X144757754Y-111951243D01*
X144820715Y-112145017D01*
X144823444Y-112153414D01*
X144919951Y-112342820D01*
X145044890Y-112514786D01*
X145195213Y-112665109D01*
X145367182Y-112790050D01*
X145375946Y-112794516D01*
X145426742Y-112842491D01*
X145443536Y-112910312D01*
X145420998Y-112976447D01*
X145375946Y-113015484D01*
X145367182Y-113019949D01*
X145195213Y-113144890D01*
X145044890Y-113295213D01*
X144919951Y-113467179D01*
X144823444Y-113656585D01*
X144757753Y-113858760D01*
X144733753Y-114010292D01*
X144724500Y-114068713D01*
X144724500Y-114281287D01*
X144757754Y-114491243D01*
X144783746Y-114571239D01*
X144823444Y-114693414D01*
X144919951Y-114882820D01*
X145044890Y-115054786D01*
X145195213Y-115205109D01*
X145367182Y-115330050D01*
X145375946Y-115334516D01*
X145426742Y-115382491D01*
X145443536Y-115450312D01*
X145420998Y-115516447D01*
X145375946Y-115555484D01*
X145367182Y-115559949D01*
X145195213Y-115684890D01*
X145044890Y-115835213D01*
X144919951Y-116007179D01*
X144823444Y-116196585D01*
X144757753Y-116398760D01*
X144740089Y-116510288D01*
X144724500Y-116608713D01*
X144724500Y-116821287D01*
X144757754Y-117031243D01*
X144783746Y-117111239D01*
X144823444Y-117233414D01*
X144919951Y-117422820D01*
X145044890Y-117594786D01*
X145195213Y-117745109D01*
X145367182Y-117870050D01*
X145375946Y-117874516D01*
X145426742Y-117922491D01*
X145443536Y-117990312D01*
X145420998Y-118056447D01*
X145375946Y-118095484D01*
X145367182Y-118099949D01*
X145195213Y-118224890D01*
X145044890Y-118375213D01*
X144919951Y-118547179D01*
X144823444Y-118736585D01*
X144757753Y-118938760D01*
X144724500Y-119148713D01*
X144724500Y-119361286D01*
X144753130Y-119542053D01*
X144757754Y-119571243D01*
X144822782Y-119771379D01*
X144823444Y-119773414D01*
X144919951Y-119962820D01*
X145044890Y-120134786D01*
X145195213Y-120285109D01*
X145367179Y-120410048D01*
X145367181Y-120410049D01*
X145367184Y-120410051D01*
X145556588Y-120506557D01*
X145758757Y-120572246D01*
X145968713Y-120605500D01*
X145968714Y-120605500D01*
X146181286Y-120605500D01*
X146181287Y-120605500D01*
X146391243Y-120572246D01*
X146593412Y-120506557D01*
X146782816Y-120410051D01*
X146850996Y-120360516D01*
X146954786Y-120285109D01*
X146954788Y-120285106D01*
X146954792Y-120285104D01*
X147105104Y-120134792D01*
X147105106Y-120134788D01*
X147105109Y-120134786D01*
X147230048Y-119962820D01*
X147230047Y-119962820D01*
X147230051Y-119962816D01*
X147326557Y-119773412D01*
X147392246Y-119571243D01*
X147425500Y-119361287D01*
X147425500Y-119148713D01*
X147392246Y-118938757D01*
X147326557Y-118736588D01*
X147230051Y-118547184D01*
X147230049Y-118547181D01*
X147230048Y-118547179D01*
X147105109Y-118375213D01*
X146954786Y-118224890D01*
X146782820Y-118099951D01*
X146782115Y-118099591D01*
X146774054Y-118095485D01*
X146723259Y-118047512D01*
X146706463Y-117979692D01*
X146728999Y-117913556D01*
X146774054Y-117874515D01*
X146782816Y-117870051D01*
X146844681Y-117825104D01*
X146954786Y-117745109D01*
X146954788Y-117745106D01*
X146954792Y-117745104D01*
X147105104Y-117594792D01*
X147105106Y-117594788D01*
X147105109Y-117594786D01*
X147230048Y-117422820D01*
X147230047Y-117422820D01*
X147230051Y-117422816D01*
X147326557Y-117233412D01*
X147392246Y-117031243D01*
X147425500Y-116821287D01*
X147425500Y-116608713D01*
X147392246Y-116398757D01*
X147326557Y-116196588D01*
X147230051Y-116007184D01*
X147230049Y-116007181D01*
X147230048Y-116007179D01*
X147105109Y-115835213D01*
X146954786Y-115684890D01*
X146782820Y-115559951D01*
X146782115Y-115559591D01*
X146774054Y-115555485D01*
X146723259Y-115507512D01*
X146706463Y-115439692D01*
X146728999Y-115373556D01*
X146774054Y-115334515D01*
X146782816Y-115330051D01*
X146844681Y-115285104D01*
X146954786Y-115205109D01*
X146954788Y-115205106D01*
X146954792Y-115205104D01*
X147105104Y-115054792D01*
X147105106Y-115054788D01*
X147105109Y-115054786D01*
X147230048Y-114882820D01*
X147230047Y-114882820D01*
X147230051Y-114882816D01*
X147326557Y-114693412D01*
X147392246Y-114491243D01*
X147425500Y-114281287D01*
X147425500Y-114068713D01*
X147392246Y-113858757D01*
X147326557Y-113656588D01*
X147230051Y-113467184D01*
X147230049Y-113467181D01*
X147230048Y-113467179D01*
X147105109Y-113295213D01*
X146954786Y-113144890D01*
X146782820Y-113019951D01*
X146782115Y-113019591D01*
X146774054Y-113015485D01*
X146723259Y-112967512D01*
X146706463Y-112899692D01*
X146728999Y-112833556D01*
X146774054Y-112794515D01*
X146782816Y-112790051D01*
X146855395Y-112737320D01*
X146954786Y-112665109D01*
X146954788Y-112665106D01*
X146954792Y-112665104D01*
X147105104Y-112514792D01*
X147105106Y-112514788D01*
X147105109Y-112514786D01*
X147230048Y-112342820D01*
X147230047Y-112342820D01*
X147230051Y-112342816D01*
X147326557Y-112153412D01*
X147392246Y-111951243D01*
X147425500Y-111741287D01*
X147425500Y-111528713D01*
X147392246Y-111318757D01*
X147326557Y-111116588D01*
X147230051Y-110927184D01*
X147230049Y-110927181D01*
X147230048Y-110927179D01*
X147105109Y-110755213D01*
X146954786Y-110604890D01*
X146782820Y-110479951D01*
X146782115Y-110479591D01*
X146774054Y-110475485D01*
X146723259Y-110427512D01*
X146706463Y-110359692D01*
X146728999Y-110293556D01*
X146774054Y-110254515D01*
X146782816Y-110250051D01*
X146852394Y-110199500D01*
X146954786Y-110125109D01*
X146954788Y-110125106D01*
X146954792Y-110125104D01*
X147105104Y-109974792D01*
X147105106Y-109974788D01*
X147105109Y-109974786D01*
X147230048Y-109802820D01*
X147230047Y-109802820D01*
X147230051Y-109802816D01*
X147326557Y-109613412D01*
X147392246Y-109411243D01*
X147425500Y-109201287D01*
X147425500Y-108988713D01*
X147392246Y-108778757D01*
X147326557Y-108576588D01*
X147230051Y-108387184D01*
X147230049Y-108387181D01*
X147230048Y-108387179D01*
X147105109Y-108215213D01*
X146954786Y-108064890D01*
X146782820Y-107939951D01*
X146782115Y-107939591D01*
X146774054Y-107935485D01*
X146723259Y-107887512D01*
X146706463Y-107819692D01*
X146728999Y-107753556D01*
X146774054Y-107714515D01*
X146782816Y-107710051D01*
X146844681Y-107665104D01*
X146954786Y-107585109D01*
X146954788Y-107585106D01*
X146954792Y-107585104D01*
X147105104Y-107434792D01*
X147105106Y-107434788D01*
X147105109Y-107434786D01*
X147230048Y-107262820D01*
X147230047Y-107262820D01*
X147230051Y-107262816D01*
X147326557Y-107073412D01*
X147392246Y-106871243D01*
X147425500Y-106661287D01*
X147425500Y-106448713D01*
X147392246Y-106238757D01*
X147326557Y-106036588D01*
X147230051Y-105847184D01*
X147230049Y-105847181D01*
X147230048Y-105847179D01*
X147105109Y-105675213D01*
X146954786Y-105524890D01*
X146782820Y-105399951D01*
X146782115Y-105399591D01*
X146774054Y-105395485D01*
X146723259Y-105347512D01*
X146706463Y-105279692D01*
X146728999Y-105213556D01*
X146774054Y-105174515D01*
X146782816Y-105170051D01*
X146844681Y-105125104D01*
X146954786Y-105045109D01*
X146954788Y-105045106D01*
X146954792Y-105045104D01*
X147105104Y-104894792D01*
X147105106Y-104894788D01*
X147105109Y-104894786D01*
X147230048Y-104722820D01*
X147230047Y-104722820D01*
X147230051Y-104722816D01*
X147326557Y-104533412D01*
X147392246Y-104331243D01*
X147425500Y-104121287D01*
X147425500Y-103908713D01*
X147392246Y-103698757D01*
X147326557Y-103496588D01*
X147230051Y-103307184D01*
X147230049Y-103307181D01*
X147230048Y-103307179D01*
X147105109Y-103135213D01*
X146954786Y-102984890D01*
X146782820Y-102859951D01*
X146782115Y-102859591D01*
X146774054Y-102855485D01*
X146723259Y-102807512D01*
X146706463Y-102739692D01*
X146728999Y-102673556D01*
X146774054Y-102634515D01*
X146782816Y-102630051D01*
X146911765Y-102536365D01*
X146954786Y-102505109D01*
X146954788Y-102505106D01*
X146954792Y-102505104D01*
X147105104Y-102354792D01*
X147105106Y-102354788D01*
X147105109Y-102354786D01*
X147230048Y-102182820D01*
X147230047Y-102182820D01*
X147230051Y-102182816D01*
X147326557Y-101993412D01*
X147392246Y-101791243D01*
X147425500Y-101581287D01*
X147425500Y-101368713D01*
X147392246Y-101158757D01*
X147326557Y-100956588D01*
X147230051Y-100767184D01*
X147230049Y-100767181D01*
X147230048Y-100767179D01*
X147105109Y-100595213D01*
X146954786Y-100444890D01*
X146782820Y-100319951D01*
X146782115Y-100319591D01*
X146774054Y-100315485D01*
X146723259Y-100267512D01*
X146706463Y-100199692D01*
X146728999Y-100133556D01*
X146774054Y-100094515D01*
X146782816Y-100090051D01*
X146844681Y-100045104D01*
X146954786Y-99965109D01*
X146954788Y-99965106D01*
X146954792Y-99965104D01*
X147105104Y-99814792D01*
X147105106Y-99814788D01*
X147105109Y-99814786D01*
X147230048Y-99642820D01*
X147230047Y-99642820D01*
X147230051Y-99642816D01*
X147326557Y-99453412D01*
X147392246Y-99251243D01*
X147425500Y-99041287D01*
X147425500Y-98828713D01*
X147392246Y-98618757D01*
X147326557Y-98416588D01*
X147230051Y-98227184D01*
X147230049Y-98227181D01*
X147230048Y-98227179D01*
X147105109Y-98055213D01*
X146954786Y-97904890D01*
X146782820Y-97779951D01*
X146782115Y-97779591D01*
X146774054Y-97775485D01*
X146723259Y-97727512D01*
X146706463Y-97659692D01*
X146728999Y-97593556D01*
X146774054Y-97554515D01*
X146782816Y-97550051D01*
X146844681Y-97505104D01*
X146954786Y-97425109D01*
X146954788Y-97425106D01*
X146954792Y-97425104D01*
X147105104Y-97274792D01*
X147105106Y-97274788D01*
X147105109Y-97274786D01*
X147230048Y-97102820D01*
X147230047Y-97102820D01*
X147230051Y-97102816D01*
X147326557Y-96913412D01*
X147392246Y-96711243D01*
X147425500Y-96501287D01*
X147425500Y-96288713D01*
X147392246Y-96078757D01*
X147326557Y-95876588D01*
X147230051Y-95687184D01*
X147230049Y-95687181D01*
X147230048Y-95687179D01*
X147105109Y-95515213D01*
X146954786Y-95364890D01*
X146782820Y-95239951D01*
X146782115Y-95239591D01*
X146774054Y-95235485D01*
X146723259Y-95187512D01*
X146706463Y-95119692D01*
X146728999Y-95053556D01*
X146774054Y-95014515D01*
X146782816Y-95010051D01*
X146844681Y-94965104D01*
X146954786Y-94885109D01*
X146954788Y-94885106D01*
X146954792Y-94885104D01*
X147105104Y-94734792D01*
X147105106Y-94734788D01*
X147105109Y-94734786D01*
X147230048Y-94562820D01*
X147230047Y-94562820D01*
X147230051Y-94562816D01*
X147326557Y-94373412D01*
X147392246Y-94171243D01*
X147425500Y-93961287D01*
X147425500Y-93748713D01*
X147392246Y-93538757D01*
X147326557Y-93336588D01*
X147230051Y-93147184D01*
X147230049Y-93147181D01*
X147230048Y-93147179D01*
X147105109Y-92975213D01*
X146954786Y-92824890D01*
X146782820Y-92699951D01*
X146782115Y-92699591D01*
X146774054Y-92695485D01*
X146723259Y-92647512D01*
X146706463Y-92579692D01*
X146728999Y-92513556D01*
X146774054Y-92474515D01*
X146782816Y-92470051D01*
X146844681Y-92425104D01*
X146954786Y-92345109D01*
X146954788Y-92345106D01*
X146954792Y-92345104D01*
X147105104Y-92194792D01*
X147105106Y-92194788D01*
X147105109Y-92194786D01*
X147230048Y-92022820D01*
X147230047Y-92022820D01*
X147230051Y-92022816D01*
X147326557Y-91833412D01*
X147392246Y-91631243D01*
X147425500Y-91421287D01*
X147425500Y-91208713D01*
X147392246Y-90998757D01*
X147326557Y-90796588D01*
X147230051Y-90607184D01*
X147230049Y-90607181D01*
X147230048Y-90607179D01*
X147105109Y-90435213D01*
X146954786Y-90284890D01*
X146782820Y-90159951D01*
X146782115Y-90159591D01*
X146774054Y-90155485D01*
X146723259Y-90107512D01*
X146706463Y-90039692D01*
X146728999Y-89973556D01*
X146774054Y-89934515D01*
X146782816Y-89930051D01*
X146879337Y-89859925D01*
X146954786Y-89805109D01*
X146954788Y-89805106D01*
X146954792Y-89805104D01*
X147105104Y-89654792D01*
X147105106Y-89654788D01*
X147105109Y-89654786D01*
X147230048Y-89482820D01*
X147230047Y-89482820D01*
X147230051Y-89482816D01*
X147326557Y-89293412D01*
X147392246Y-89091243D01*
X147425500Y-88881287D01*
X147425500Y-88668713D01*
X147392246Y-88458757D01*
X147326557Y-88256588D01*
X147230051Y-88067184D01*
X147230049Y-88067181D01*
X147230048Y-88067179D01*
X147105109Y-87895213D01*
X146954786Y-87744890D01*
X146782820Y-87619951D01*
X146782115Y-87619591D01*
X146774054Y-87615485D01*
X146723259Y-87567512D01*
X146706463Y-87499692D01*
X146728999Y-87433556D01*
X146774054Y-87394515D01*
X146782816Y-87390051D01*
X146844681Y-87345104D01*
X146954786Y-87265109D01*
X146954788Y-87265106D01*
X146954792Y-87265104D01*
X147105104Y-87114792D01*
X147105106Y-87114788D01*
X147105109Y-87114786D01*
X147230048Y-86942820D01*
X147230047Y-86942820D01*
X147230051Y-86942816D01*
X147326557Y-86753412D01*
X147392246Y-86551243D01*
X147425500Y-86341287D01*
X147425500Y-86128713D01*
X147392246Y-85918757D01*
X147326557Y-85716588D01*
X147230051Y-85527184D01*
X147230049Y-85527181D01*
X147230048Y-85527179D01*
X147105109Y-85355213D01*
X146954786Y-85204890D01*
X146782820Y-85079951D01*
X146782115Y-85079591D01*
X146774054Y-85075485D01*
X146723259Y-85027512D01*
X146706463Y-84959692D01*
X146728999Y-84893556D01*
X146774054Y-84854515D01*
X146782816Y-84850051D01*
X146844681Y-84805104D01*
X146954786Y-84725109D01*
X146954788Y-84725106D01*
X146954792Y-84725104D01*
X147105104Y-84574792D01*
X147105106Y-84574788D01*
X147105109Y-84574786D01*
X147230048Y-84402820D01*
X147230047Y-84402820D01*
X147230051Y-84402816D01*
X147326557Y-84213412D01*
X147392246Y-84011243D01*
X147425500Y-83801287D01*
X147425500Y-83588713D01*
X147392246Y-83378757D01*
X147326557Y-83176588D01*
X147230051Y-82987184D01*
X147230049Y-82987181D01*
X147230048Y-82987179D01*
X147105109Y-82815213D01*
X146954786Y-82664890D01*
X146782820Y-82539951D01*
X146782115Y-82539591D01*
X146774054Y-82535485D01*
X146723259Y-82487512D01*
X146706463Y-82419692D01*
X146728999Y-82353556D01*
X146774054Y-82314515D01*
X146782816Y-82310051D01*
X146844681Y-82265104D01*
X146954786Y-82185109D01*
X146954788Y-82185106D01*
X146954792Y-82185104D01*
X147105104Y-82034792D01*
X147105106Y-82034788D01*
X147105109Y-82034786D01*
X147230048Y-81862820D01*
X147230047Y-81862820D01*
X147230051Y-81862816D01*
X147326557Y-81673412D01*
X147392246Y-81471243D01*
X147425500Y-81261287D01*
X147425500Y-81048713D01*
X147392246Y-80838757D01*
X147326557Y-80636588D01*
X147230051Y-80447184D01*
X147230049Y-80447181D01*
X147230048Y-80447179D01*
X147105109Y-80275213D01*
X146954786Y-80124890D01*
X146782820Y-79999951D01*
X146782115Y-79999591D01*
X146774054Y-79995485D01*
X146723259Y-79947512D01*
X146706463Y-79879692D01*
X146728999Y-79813556D01*
X146774054Y-79774515D01*
X146782816Y-79770051D01*
X146833638Y-79733127D01*
X146954786Y-79645109D01*
X146954788Y-79645106D01*
X146954792Y-79645104D01*
X147105104Y-79494792D01*
X147105106Y-79494788D01*
X147105109Y-79494786D01*
X147230048Y-79322820D01*
X147230049Y-79322819D01*
X147230051Y-79322816D01*
X147326557Y-79133412D01*
X147392246Y-78931243D01*
X147425500Y-78721287D01*
X147425500Y-78508713D01*
X147392246Y-78298757D01*
X147326557Y-78096588D01*
X147230051Y-77907184D01*
X147230049Y-77907181D01*
X147230048Y-77907179D01*
X147105109Y-77735213D01*
X146954786Y-77584890D01*
X146782820Y-77459951D01*
X146782115Y-77459591D01*
X146774054Y-77455485D01*
X146723259Y-77407512D01*
X146706463Y-77339692D01*
X146728999Y-77273556D01*
X146774054Y-77234515D01*
X146782816Y-77230051D01*
X146844681Y-77185104D01*
X146954786Y-77105109D01*
X146954788Y-77105106D01*
X146954792Y-77105104D01*
X147105104Y-76954792D01*
X147105106Y-76954788D01*
X147105109Y-76954786D01*
X147230048Y-76782820D01*
X147230047Y-76782820D01*
X147230051Y-76782816D01*
X147326557Y-76593412D01*
X147392246Y-76391243D01*
X147425500Y-76181287D01*
X147425500Y-75968713D01*
X147392246Y-75758757D01*
X147326557Y-75556588D01*
X147230051Y-75367184D01*
X147230049Y-75367181D01*
X147230048Y-75367179D01*
X147105109Y-75195213D01*
X146954786Y-75044890D01*
X146782820Y-74919951D01*
X146782115Y-74919591D01*
X146774054Y-74915485D01*
X146723259Y-74867512D01*
X146706463Y-74799692D01*
X146728999Y-74733556D01*
X146774054Y-74694515D01*
X146782816Y-74690051D01*
X146844681Y-74645104D01*
X146954786Y-74565109D01*
X146954788Y-74565106D01*
X146954792Y-74565104D01*
X147105104Y-74414792D01*
X147105106Y-74414788D01*
X147105109Y-74414786D01*
X147230048Y-74242820D01*
X147230047Y-74242820D01*
X147230051Y-74242816D01*
X147326557Y-74053412D01*
X147392246Y-73851243D01*
X147425500Y-73641287D01*
X147425500Y-73428713D01*
X147392246Y-73218757D01*
X147326557Y-73016588D01*
X147230051Y-72827184D01*
X147230049Y-72827181D01*
X147230048Y-72827179D01*
X147105109Y-72655213D01*
X146954786Y-72504890D01*
X146782820Y-72379951D01*
X146782115Y-72379591D01*
X146774054Y-72375485D01*
X146723259Y-72327512D01*
X146706463Y-72259692D01*
X146728999Y-72193556D01*
X146774054Y-72154515D01*
X146782816Y-72150051D01*
X146844681Y-72105104D01*
X146954786Y-72025109D01*
X146954788Y-72025106D01*
X146954792Y-72025104D01*
X147105104Y-71874792D01*
X147105106Y-71874788D01*
X147105109Y-71874786D01*
X147230048Y-71702820D01*
X147230047Y-71702820D01*
X147230051Y-71702816D01*
X147326557Y-71513412D01*
X147392246Y-71311243D01*
X147425500Y-71101287D01*
X147425500Y-70888713D01*
X147392246Y-70678757D01*
X147326557Y-70476588D01*
X147230051Y-70287184D01*
X147230049Y-70287181D01*
X147230048Y-70287179D01*
X147105109Y-70115213D01*
X146954786Y-69964890D01*
X146782820Y-69839951D01*
X146782115Y-69839591D01*
X146774054Y-69835485D01*
X146723259Y-69787512D01*
X146706463Y-69719692D01*
X146728999Y-69653556D01*
X146774054Y-69614515D01*
X146782816Y-69610051D01*
X146844681Y-69565104D01*
X146954786Y-69485109D01*
X146954788Y-69485106D01*
X146954792Y-69485104D01*
X147105104Y-69334792D01*
X147105106Y-69334788D01*
X147105109Y-69334786D01*
X147230048Y-69162820D01*
X147230047Y-69162820D01*
X147230051Y-69162816D01*
X147326557Y-68973412D01*
X147392246Y-68771243D01*
X147425500Y-68561287D01*
X147425500Y-68348713D01*
X147392246Y-68138757D01*
X147326557Y-67936588D01*
X147230051Y-67747184D01*
X147230049Y-67747181D01*
X147230048Y-67747179D01*
X147105109Y-67575213D01*
X146991569Y-67461673D01*
X146958084Y-67400350D01*
X146963068Y-67330658D01*
X147004940Y-67274725D01*
X147035915Y-67257810D01*
X147167331Y-67208796D01*
X147282546Y-67122546D01*
X147368796Y-67007331D01*
X147419091Y-66872483D01*
X147425500Y-66812873D01*
X147425499Y-65017128D01*
X147419091Y-64957517D01*
X147395288Y-64893699D01*
X147368797Y-64822671D01*
X147368793Y-64822664D01*
X147282547Y-64707455D01*
X147282544Y-64707452D01*
X147167335Y-64621206D01*
X147167328Y-64621202D01*
X147032482Y-64570908D01*
X147032483Y-64570908D01*
X146972883Y-64564501D01*
X146972881Y-64564500D01*
X146972873Y-64564500D01*
X146972864Y-64564500D01*
X145177129Y-64564500D01*
X145177123Y-64564501D01*
X145117516Y-64570908D01*
X144982671Y-64621202D01*
X144982664Y-64621206D01*
X144867455Y-64707452D01*
X144867452Y-64707455D01*
X144781206Y-64822664D01*
X144781202Y-64822671D01*
X144730908Y-64957517D01*
X144724501Y-65017116D01*
X144724501Y-65017123D01*
X144724500Y-65017135D01*
X144724500Y-66812870D01*
X144724501Y-66812876D01*
X144730908Y-66872483D01*
X144781202Y-67007328D01*
X144781206Y-67007335D01*
X144867452Y-67122544D01*
X144867455Y-67122547D01*
X144982664Y-67208793D01*
X144982671Y-67208797D01*
X145114082Y-67257810D01*
X145170016Y-67299681D01*
X145194433Y-67365145D01*
X145179582Y-67433418D01*
X145158431Y-67461673D01*
X145044889Y-67575215D01*
X144919951Y-67747179D01*
X144823444Y-67936585D01*
X144757753Y-68138760D01*
X144732136Y-68300499D01*
X144724500Y-68348713D01*
X144724500Y-68561287D01*
X144757754Y-68771243D01*
X144783746Y-68851239D01*
X144823444Y-68973414D01*
X144919951Y-69162820D01*
X145044890Y-69334786D01*
X145195213Y-69485109D01*
X145367182Y-69610050D01*
X145375946Y-69614516D01*
X145426742Y-69662491D01*
X145443536Y-69730312D01*
X145420998Y-69796447D01*
X145375946Y-69835484D01*
X145367182Y-69839949D01*
X145195213Y-69964890D01*
X145044890Y-70115213D01*
X144919951Y-70287179D01*
X144823444Y-70476585D01*
X144757753Y-70678760D01*
X144724500Y-70888713D01*
X144724500Y-71101287D01*
X144757754Y-71311243D01*
X144783746Y-71391239D01*
X144823444Y-71513414D01*
X144919951Y-71702820D01*
X145044890Y-71874786D01*
X145195213Y-72025109D01*
X145367182Y-72150050D01*
X145375946Y-72154516D01*
X145426742Y-72202491D01*
X145443536Y-72270312D01*
X145420998Y-72336447D01*
X145375946Y-72375484D01*
X145367182Y-72379949D01*
X145195213Y-72504890D01*
X145044890Y-72655213D01*
X144919951Y-72827179D01*
X144823444Y-73016585D01*
X144757753Y-73218760D01*
X144724500Y-73428713D01*
X144724500Y-73641287D01*
X144757754Y-73851243D01*
X144783746Y-73931239D01*
X144823444Y-74053414D01*
X144919951Y-74242820D01*
X145044890Y-74414786D01*
X145195213Y-74565109D01*
X145367182Y-74690050D01*
X145375946Y-74694516D01*
X145426742Y-74742491D01*
X145443536Y-74810312D01*
X145420998Y-74876447D01*
X145375946Y-74915484D01*
X145367182Y-74919949D01*
X145195213Y-75044890D01*
X145044890Y-75195213D01*
X144919951Y-75367179D01*
X144823444Y-75556585D01*
X144757753Y-75758760D01*
X144724500Y-75968713D01*
X144724500Y-76181287D01*
X144728430Y-76206103D01*
X144719477Y-76275394D01*
X144674482Y-76328846D01*
X144607731Y-76349487D01*
X144605958Y-76349500D01*
X140935929Y-76349500D01*
X140810261Y-76374497D01*
X140810255Y-76374499D01*
X140691874Y-76423534D01*
X140585326Y-76494726D01*
X137994726Y-79085326D01*
X137923814Y-79191456D01*
X137923801Y-79191475D01*
X137923535Y-79191872D01*
X137874499Y-79310255D01*
X137874497Y-79310261D01*
X137849500Y-79435928D01*
X137849500Y-95179192D01*
X137829815Y-95246231D01*
X137813181Y-95266873D01*
X137362181Y-95717873D01*
X137300858Y-95751358D01*
X137231166Y-95746374D01*
X137175233Y-95704502D01*
X137150816Y-95639038D01*
X137150500Y-95630192D01*
X137150500Y-68504935D01*
X137170185Y-68437896D01*
X137171366Y-68436090D01*
X137209394Y-68379179D01*
X137269737Y-68233497D01*
X137300500Y-68078842D01*
X137300500Y-67921158D01*
X137300500Y-67921155D01*
X137300499Y-67921153D01*
X137276499Y-67800499D01*
X137269737Y-67766503D01*
X137246080Y-67709390D01*
X137209397Y-67620827D01*
X137209390Y-67620814D01*
X137121789Y-67489711D01*
X137121786Y-67489707D01*
X137010292Y-67378213D01*
X137010288Y-67378210D01*
X136879185Y-67290609D01*
X136879172Y-67290602D01*
X136733501Y-67230264D01*
X136733489Y-67230261D01*
X136578845Y-67199500D01*
X136578842Y-67199500D01*
X136421158Y-67199500D01*
X136421155Y-67199500D01*
X136266510Y-67230261D01*
X136266498Y-67230264D01*
X136120827Y-67290602D01*
X136120814Y-67290609D01*
X135989711Y-67378210D01*
X135989707Y-67378213D01*
X135878213Y-67489707D01*
X135878210Y-67489711D01*
X135790609Y-67620814D01*
X135790602Y-67620827D01*
X135730264Y-67766498D01*
X135730261Y-67766510D01*
X135699500Y-67921153D01*
X135699500Y-68078846D01*
X135730261Y-68233489D01*
X135730264Y-68233501D01*
X135790602Y-68379172D01*
X135790606Y-68379179D01*
X135828602Y-68436044D01*
X135849480Y-68502721D01*
X135849500Y-68504935D01*
X135849500Y-79965328D01*
X135829815Y-80032367D01*
X135777011Y-80078122D01*
X135707853Y-80088066D01*
X135644297Y-80059041D01*
X135622398Y-80034219D01*
X135578300Y-79968223D01*
X135578297Y-79968219D01*
X135466803Y-79856725D01*
X135466799Y-79856722D01*
X135335696Y-79769121D01*
X135335683Y-79769114D01*
X135190012Y-79708776D01*
X135190000Y-79708773D01*
X135035356Y-79678012D01*
X135035353Y-79678012D01*
X134877669Y-79678012D01*
X134877666Y-79678012D01*
X134723021Y-79708773D01*
X134723009Y-79708776D01*
X134577338Y-79769114D01*
X134577325Y-79769121D01*
X134532114Y-79799331D01*
X134465436Y-79820209D01*
X134398056Y-79801724D01*
X134360121Y-79765120D01*
X134353964Y-79755906D01*
X134324543Y-79711873D01*
X134324541Y-79711870D01*
X121619821Y-67007150D01*
X121619815Y-67007145D01*
X121607393Y-66994723D01*
X121592149Y-66984537D01*
X121587533Y-66980765D01*
X121586327Y-66979002D01*
X121578316Y-66972428D01*
X121527041Y-66921153D01*
X139199500Y-66921153D01*
X139199500Y-67078846D01*
X139230261Y-67233489D01*
X139230264Y-67233501D01*
X139290602Y-67379172D01*
X139290609Y-67379185D01*
X139378210Y-67510288D01*
X139378213Y-67510292D01*
X139489707Y-67621786D01*
X139489711Y-67621789D01*
X139620814Y-67709390D01*
X139620827Y-67709397D01*
X139758683Y-67766498D01*
X139766503Y-67769737D01*
X139921153Y-67800499D01*
X139921156Y-67800500D01*
X139921158Y-67800500D01*
X140078844Y-67800500D01*
X140078845Y-67800499D01*
X140233497Y-67769737D01*
X140379179Y-67709394D01*
X140510289Y-67621789D01*
X140621789Y-67510289D01*
X140709394Y-67379179D01*
X140769737Y-67233497D01*
X140800500Y-67078842D01*
X140800500Y-66921158D01*
X140800500Y-66921155D01*
X140800499Y-66921153D01*
X140794874Y-66892873D01*
X140769737Y-66766503D01*
X140756062Y-66733489D01*
X140709397Y-66620827D01*
X140709390Y-66620814D01*
X140621790Y-66489712D01*
X140621784Y-66489705D01*
X140553232Y-66421153D01*
X141199500Y-66421153D01*
X141199500Y-66578846D01*
X141230261Y-66733489D01*
X141230264Y-66733501D01*
X141290602Y-66879172D01*
X141290609Y-66879185D01*
X141378210Y-67010288D01*
X141378213Y-67010292D01*
X141489707Y-67121786D01*
X141489711Y-67121789D01*
X141620814Y-67209390D01*
X141620827Y-67209397D01*
X141737708Y-67257810D01*
X141766503Y-67269737D01*
X141917041Y-67299681D01*
X141921153Y-67300499D01*
X141921156Y-67300500D01*
X141921158Y-67300500D01*
X142078844Y-67300500D01*
X142078845Y-67300499D01*
X142233497Y-67269737D01*
X142379179Y-67209394D01*
X142510289Y-67121789D01*
X142621789Y-67010289D01*
X142709394Y-66879179D01*
X142769737Y-66733497D01*
X142800500Y-66578842D01*
X142800500Y-66421158D01*
X142800500Y-66421155D01*
X142800499Y-66421153D01*
X142785860Y-66347559D01*
X142769737Y-66266503D01*
X142769735Y-66266498D01*
X142709397Y-66120827D01*
X142709390Y-66120814D01*
X142621789Y-65989711D01*
X142621786Y-65989707D01*
X142510292Y-65878213D01*
X142510288Y-65878210D01*
X142379185Y-65790609D01*
X142379172Y-65790602D01*
X142233501Y-65730264D01*
X142233489Y-65730261D01*
X142078845Y-65699500D01*
X142078842Y-65699500D01*
X141921158Y-65699500D01*
X141921155Y-65699500D01*
X141766510Y-65730261D01*
X141766498Y-65730264D01*
X141620827Y-65790602D01*
X141620814Y-65790609D01*
X141489711Y-65878210D01*
X141489707Y-65878213D01*
X141378213Y-65989707D01*
X141378210Y-65989711D01*
X141290609Y-66120814D01*
X141290602Y-66120827D01*
X141230264Y-66266498D01*
X141230261Y-66266510D01*
X141199500Y-66421153D01*
X140553232Y-66421153D01*
X140510292Y-66378213D01*
X140510288Y-66378210D01*
X140379185Y-66290609D01*
X140379172Y-66290602D01*
X140233501Y-66230264D01*
X140233489Y-66230261D01*
X140078845Y-66199500D01*
X140078842Y-66199500D01*
X139921158Y-66199500D01*
X139921155Y-66199500D01*
X139766510Y-66230261D01*
X139766498Y-66230264D01*
X139620827Y-66290602D01*
X139620814Y-66290609D01*
X139489711Y-66378210D01*
X139489707Y-66378213D01*
X139378213Y-66489707D01*
X139378210Y-66489711D01*
X139290609Y-66620814D01*
X139290602Y-66620827D01*
X139230264Y-66766498D01*
X139230261Y-66766510D01*
X139199500Y-66921153D01*
X121527041Y-66921153D01*
X120953452Y-66347563D01*
X120953451Y-66347562D01*
X120953447Y-66347559D01*
X120846905Y-66276371D01*
X120728522Y-66227335D01*
X120728516Y-66227333D01*
X120602849Y-66202336D01*
X120602847Y-66202336D01*
X119444566Y-66202336D01*
X119420375Y-66199953D01*
X119413069Y-66198500D01*
X116586931Y-66198500D01*
X116586929Y-66198500D01*
X116461261Y-66223497D01*
X116461255Y-66223499D01*
X116342874Y-66272534D01*
X116236329Y-66343724D01*
X116236328Y-66343725D01*
X115897068Y-66682984D01*
X115835745Y-66716469D01*
X115833579Y-66716920D01*
X115766508Y-66730261D01*
X115766498Y-66730264D01*
X115620827Y-66790602D01*
X115620814Y-66790609D01*
X115489711Y-66878210D01*
X115489707Y-66878213D01*
X115378213Y-66989707D01*
X115378210Y-66989711D01*
X115290609Y-67120814D01*
X115290602Y-67120827D01*
X115230264Y-67266498D01*
X115230261Y-67266510D01*
X115199500Y-67421153D01*
X110781329Y-67421153D01*
X110759641Y-67312126D01*
X110759640Y-67312125D01*
X110759640Y-67312121D01*
X110759638Y-67312116D01*
X110699300Y-67166445D01*
X110699293Y-67166432D01*
X110611692Y-67035329D01*
X110611689Y-67035325D01*
X110500195Y-66923831D01*
X110500191Y-66923828D01*
X110369088Y-66836227D01*
X110369075Y-66836220D01*
X110223404Y-66775882D01*
X110223392Y-66775879D01*
X110068748Y-66745118D01*
X110068745Y-66745118D01*
X109911061Y-66745118D01*
X109911058Y-66745118D01*
X109756413Y-66775879D01*
X109756401Y-66775882D01*
X109610730Y-66836220D01*
X109610717Y-66836227D01*
X109479614Y-66923828D01*
X109479610Y-66923831D01*
X109368116Y-67035325D01*
X109368113Y-67035329D01*
X109280512Y-67166432D01*
X109280505Y-67166445D01*
X109220167Y-67312116D01*
X109220164Y-67312128D01*
X109189403Y-67466771D01*
X107459055Y-67466771D01*
X107463068Y-67410658D01*
X107504940Y-67354725D01*
X107535915Y-67337810D01*
X107667331Y-67288796D01*
X107782546Y-67202546D01*
X107868796Y-67087331D01*
X107919091Y-66952483D01*
X107925500Y-66892873D01*
X107925499Y-65097128D01*
X107919091Y-65037517D01*
X107911486Y-65017128D01*
X107868797Y-64902671D01*
X107868793Y-64902664D01*
X107782547Y-64787455D01*
X107782544Y-64787452D01*
X107667335Y-64701206D01*
X107667328Y-64701202D01*
X107532482Y-64650908D01*
X107532483Y-64650908D01*
X107472883Y-64644501D01*
X107472881Y-64644500D01*
X107472873Y-64644500D01*
X107472864Y-64644500D01*
X105677129Y-64644500D01*
X105677123Y-64644501D01*
X105617516Y-64650908D01*
X105482671Y-64701202D01*
X105482664Y-64701206D01*
X105367455Y-64787452D01*
X105367452Y-64787455D01*
X105281206Y-64902664D01*
X105281202Y-64902671D01*
X105230908Y-65037517D01*
X105228813Y-65057008D01*
X105224501Y-65097123D01*
X105224500Y-65097135D01*
X104075500Y-65097135D01*
X104075500Y-64099000D01*
X104095185Y-64031961D01*
X104147989Y-63986206D01*
X104199500Y-63975000D01*
X134389628Y-63975000D01*
X134456667Y-63994685D01*
G37*
%TD.AperFunction*%
%TD*%
M02*
