%TF.GenerationSoftware,KiCad,Pcbnew,9.0.0*%
%TF.CreationDate,2025-06-09T12:03:21+05:30*%
%TF.ProjectId,ESP32_DevKit_M1,45535033-325f-4446-9576-4b69745f4d31,rev?*%
%TF.SameCoordinates,Original*%
%TF.FileFunction,Copper,L1,Top*%
%TF.FilePolarity,Positive*%
%FSLAX46Y46*%
G04 Gerber Fmt 4.6, Leading zero omitted, Abs format (unit mm)*
G04 Created by KiCad (PCBNEW 9.0.0) date 2025-06-09 12:03:21*
%MOMM*%
%LPD*%
G01*
G04 APERTURE LIST*
G04 Aperture macros list*
%AMRoundRect*
0 Rectangle with rounded corners*
0 $1 Rounding radius*
0 $2 $3 $4 $5 $6 $7 $8 $9 X,Y pos of 4 corners*
0 Add a 4 corners polygon primitive as box body*
4,1,4,$2,$3,$4,$5,$6,$7,$8,$9,$2,$3,0*
0 Add four circle primitives for the rounded corners*
1,1,$1+$1,$2,$3*
1,1,$1+$1,$4,$5*
1,1,$1+$1,$6,$7*
1,1,$1+$1,$8,$9*
0 Add four rect primitives between the rounded corners*
20,1,$1+$1,$2,$3,$4,$5,0*
20,1,$1+$1,$4,$5,$6,$7,0*
20,1,$1+$1,$6,$7,$8,$9,0*
20,1,$1+$1,$8,$9,$2,$3,0*%
%AMOutline5P*
0 Free polygon, 5 corners , with rotation*
0 The origin of the aperture is its center*
0 number of corners: always 5*
0 $1 to $10 corner X, Y*
0 $11 Rotation angle, in degrees counterclockwise*
0 create outline with 5 corners*
4,1,5,$1,$2,$3,$4,$5,$6,$7,$8,$9,$10,$1,$2,$11*%
%AMOutline6P*
0 Free polygon, 6 corners , with rotation*
0 The origin of the aperture is its center*
0 number of corners: always 6*
0 $1 to $12 corner X, Y*
0 $13 Rotation angle, in degrees counterclockwise*
0 create outline with 6 corners*
4,1,6,$1,$2,$3,$4,$5,$6,$7,$8,$9,$10,$11,$12,$1,$2,$13*%
%AMOutline7P*
0 Free polygon, 7 corners , with rotation*
0 The origin of the aperture is its center*
0 number of corners: always 7*
0 $1 to $14 corner X, Y*
0 $15 Rotation angle, in degrees counterclockwise*
0 create outline with 7 corners*
4,1,7,$1,$2,$3,$4,$5,$6,$7,$8,$9,$10,$11,$12,$13,$14,$1,$2,$15*%
%AMOutline8P*
0 Free polygon, 8 corners , with rotation*
0 The origin of the aperture is its center*
0 number of corners: always 8*
0 $1 to $16 corner X, Y*
0 $17 Rotation angle, in degrees counterclockwise*
0 create outline with 8 corners*
4,1,8,$1,$2,$3,$4,$5,$6,$7,$8,$9,$10,$11,$12,$13,$14,$15,$16,$1,$2,$17*%
G04 Aperture macros list end*
%TA.AperFunction,ComponentPad*%
%ADD10R,1.700000X1.700000*%
%TD*%
%TA.AperFunction,ComponentPad*%
%ADD11O,1.700000X1.700000*%
%TD*%
%TA.AperFunction,SMDPad,CuDef*%
%ADD12RoundRect,0.225000X0.225000X0.250000X-0.225000X0.250000X-0.225000X-0.250000X0.225000X-0.250000X0*%
%TD*%
%TA.AperFunction,SMDPad,CuDef*%
%ADD13RoundRect,0.150000X-0.150000X-0.200000X0.150000X-0.200000X0.150000X0.200000X-0.150000X0.200000X0*%
%TD*%
%TA.AperFunction,SMDPad,CuDef*%
%ADD14RoundRect,0.225000X-0.375000X0.225000X-0.375000X-0.225000X0.375000X-0.225000X0.375000X0.225000X0*%
%TD*%
%TA.AperFunction,SMDPad,CuDef*%
%ADD15RoundRect,0.150000X0.200000X-0.150000X0.200000X0.150000X-0.200000X0.150000X-0.200000X-0.150000X0*%
%TD*%
%TA.AperFunction,SMDPad,CuDef*%
%ADD16RoundRect,0.225000X-0.250000X0.225000X-0.250000X-0.225000X0.250000X-0.225000X0.250000X0.225000X0*%
%TD*%
%TA.AperFunction,SMDPad,CuDef*%
%ADD17RoundRect,0.375000X0.375000X-0.625000X0.375000X0.625000X-0.375000X0.625000X-0.375000X-0.625000X0*%
%TD*%
%TA.AperFunction,SMDPad,CuDef*%
%ADD18RoundRect,0.500000X1.400000X-0.500000X1.400000X0.500000X-1.400000X0.500000X-1.400000X-0.500000X0*%
%TD*%
%TA.AperFunction,SMDPad,CuDef*%
%ADD19R,1.500000X1.000000*%
%TD*%
%TA.AperFunction,SMDPad,CuDef*%
%ADD20RoundRect,0.218750X-0.218750X-0.256250X0.218750X-0.256250X0.218750X0.256250X-0.218750X0.256250X0*%
%TD*%
%TA.AperFunction,SMDPad,CuDef*%
%ADD21RoundRect,0.225000X-0.225000X-0.250000X0.225000X-0.250000X0.225000X0.250000X-0.225000X0.250000X0*%
%TD*%
%TA.AperFunction,SMDPad,CuDef*%
%ADD22R,0.800000X0.400000*%
%TD*%
%TA.AperFunction,SMDPad,CuDef*%
%ADD23R,0.400000X0.800000*%
%TD*%
%TA.AperFunction,HeatsinkPad*%
%ADD24Outline5P,-0.600000X0.204000X-0.204000X0.600000X0.600000X0.600000X0.600000X-0.600000X-0.600000X-0.600000X0.000000*%
%TD*%
%TA.AperFunction,HeatsinkPad*%
%ADD25R,1.200000X1.200000*%
%TD*%
%TA.AperFunction,SMDPad,CuDef*%
%ADD26R,0.800000X0.800000*%
%TD*%
%TA.AperFunction,SMDPad,CuDef*%
%ADD27R,1.550000X1.300000*%
%TD*%
%TA.AperFunction,SMDPad,CuDef*%
%ADD28RoundRect,0.225000X0.250000X-0.225000X0.250000X0.225000X-0.250000X0.225000X-0.250000X-0.225000X0*%
%TD*%
%TA.AperFunction,SMDPad,CuDef*%
%ADD29RoundRect,0.100000X-0.100000X-0.575000X0.100000X-0.575000X0.100000X0.575000X-0.100000X0.575000X0*%
%TD*%
%TA.AperFunction,HeatsinkPad*%
%ADD30O,1.000000X1.900000*%
%TD*%
%TA.AperFunction,SMDPad,CuDef*%
%ADD31R,0.875000X1.900000*%
%TD*%
%TA.AperFunction,HeatsinkPad*%
%ADD32O,1.050000X1.250000*%
%TD*%
%TA.AperFunction,SMDPad,CuDef*%
%ADD33RoundRect,0.250000X-1.200000X-0.700000X1.200000X-0.700000X1.200000X0.700000X-1.200000X0.700000X0*%
%TD*%
%TA.AperFunction,SMDPad,CuDef*%
%ADD34RoundRect,0.062500X0.062500X-0.337500X0.062500X0.337500X-0.062500X0.337500X-0.062500X-0.337500X0*%
%TD*%
%TA.AperFunction,SMDPad,CuDef*%
%ADD35RoundRect,0.062500X0.337500X-0.062500X0.337500X0.062500X-0.337500X0.062500X-0.337500X-0.062500X0*%
%TD*%
%TA.AperFunction,HeatsinkPad*%
%ADD36R,3.350000X3.350000*%
%TD*%
%TA.AperFunction,SMDPad,CuDef*%
%ADD37RoundRect,0.150000X-0.150000X0.587500X-0.150000X-0.587500X0.150000X-0.587500X0.150000X0.587500X0*%
%TD*%
%TA.AperFunction,SMDPad,CuDef*%
%ADD38RoundRect,0.150000X0.150000X0.200000X-0.150000X0.200000X-0.150000X-0.200000X0.150000X-0.200000X0*%
%TD*%
%TA.AperFunction,ViaPad*%
%ADD39C,0.600000*%
%TD*%
%TA.AperFunction,Conductor*%
%ADD40C,0.300000*%
%TD*%
%TA.AperFunction,Conductor*%
%ADD41C,0.200000*%
%TD*%
G04 APERTURE END LIST*
D10*
%TO.P,J3,1,Pin_1*%
%TO.N,ESP_3.3V*%
X106575000Y-65995000D03*
D11*
%TO.P,J3,2,Pin_2*%
%TO.N,/GPIO0*%
X106575000Y-68535000D03*
%TO.P,J3,3,Pin_3*%
%TO.N,/GPIO1*%
X106575000Y-71075000D03*
%TO.P,J3,4,Pin_4*%
%TO.N,/GPIO2*%
X106575000Y-73615000D03*
%TO.P,J3,5,Pin_5*%
%TO.N,/GPIO3*%
X106575000Y-76155000D03*
%TO.P,J3,6,Pin_6*%
%TO.N,/GPIO4*%
X106575000Y-78695000D03*
%TO.P,J3,7,Pin_7*%
%TO.N,/GPIO5*%
X106575000Y-81235000D03*
%TO.P,J3,8,Pin_8*%
%TO.N,/GPIO6*%
X106575000Y-83775000D03*
%TO.P,J3,9,Pin_9*%
%TO.N,/GPIO7*%
X106575000Y-86315000D03*
%TO.P,J3,10,Pin_10*%
%TO.N,/GPIO8*%
X106575000Y-88855000D03*
%TO.P,J3,11,Pin_11*%
%TO.N,/GPIO9*%
X106575000Y-91395000D03*
%TO.P,J3,12,Pin_12*%
%TO.N,/GPIO10*%
X106575000Y-93935000D03*
%TO.P,J3,13,Pin_13*%
%TO.N,/GPIO11*%
X106575000Y-96475000D03*
%TO.P,J3,14,Pin_14*%
%TO.N,/GPIO12*%
X106575000Y-99015000D03*
%TO.P,J3,15,Pin_15*%
%TO.N,/GPIO13*%
X106575000Y-101555000D03*
%TO.P,J3,16,Pin_16*%
%TO.N,/GPIO14*%
X106575000Y-104095000D03*
%TO.P,J3,17,Pin_17*%
%TO.N,/GPIO15*%
X106575000Y-106635000D03*
%TO.P,J3,18,Pin_18*%
%TO.N,/GPIO16*%
X106575000Y-109175000D03*
%TO.P,J3,19,Pin_19*%
%TO.N,/GPIO17*%
X106575000Y-111715000D03*
%TO.P,J3,20,Pin_20*%
%TO.N,/GPIO18*%
X106575000Y-114255000D03*
%TO.P,J3,21,Pin_21*%
%TO.N,5V*%
X106575000Y-116795000D03*
%TO.P,J3,22,Pin_22*%
%TO.N,GND*%
X106575000Y-119335000D03*
%TD*%
D12*
%TO.P,R13,1*%
%TO.N,Net-(U2-RXD)*%
X124575000Y-106275000D03*
%TO.P,R13,2*%
%TO.N,/U0TXD*%
X123025000Y-106275000D03*
%TD*%
D13*
%TO.P,D2,1*%
%TO.N,GND*%
X135275000Y-122775000D03*
%TO.P,D2,2*%
%TO.N,VBUS*%
X133875000Y-122775000D03*
%TD*%
D14*
%TO.P,D6,1,K*%
%TO.N,5V*%
X122075000Y-113475000D03*
%TO.P,D6,2,A*%
%TO.N,VBUS*%
X122075000Y-116775000D03*
%TD*%
D15*
%TO.P,D5,1*%
%TO.N,GND*%
X124075000Y-120075000D03*
%TO.P,D5,2*%
%TO.N,VBUS*%
X124075000Y-121475000D03*
%TD*%
D12*
%TO.P,R1,1*%
%TO.N,ESP_3.3V*%
X116850000Y-65275000D03*
%TO.P,R1,2*%
%TO.N,3.3V*%
X115300000Y-65275000D03*
%TD*%
%TO.P,C6,1*%
%TO.N,GND*%
X137775000Y-117000000D03*
%TO.P,C6,2*%
%TO.N,Net-(U2-VBUS)*%
X136225000Y-117000000D03*
%TD*%
D10*
%TO.P,J4,1,Pin_1*%
%TO.N,GND*%
X146075000Y-65915000D03*
D11*
%TO.P,J4,2,Pin_2*%
%TO.N,/CHIP_PU*%
X146075000Y-68455000D03*
%TO.P,J4,3,Pin_3*%
%TO.N,/GPIO46*%
X146075000Y-70995000D03*
%TO.P,J4,4,Pin_4*%
%TO.N,/GPIO45*%
X146075000Y-73535000D03*
%TO.P,J4,5,Pin_5*%
%TO.N,/U0RXD*%
X146075000Y-76075000D03*
%TO.P,J4,6,Pin_6*%
%TO.N,/U0TXD*%
X146075000Y-78615000D03*
%TO.P,J4,7,Pin_7*%
%TO.N,/GPIO42*%
X146075000Y-81155000D03*
%TO.P,J4,8,Pin_8*%
%TO.N,/GPIO41*%
X146075000Y-83695000D03*
%TO.P,J4,9,Pin_9*%
%TO.N,/GPIO40*%
X146075000Y-86235000D03*
%TO.P,J4,10,Pin_10*%
%TO.N,/GPIO39*%
X146075000Y-88775000D03*
%TO.P,J4,11,Pin_11*%
%TO.N,/GPIO38*%
X146075000Y-91315000D03*
%TO.P,J4,12,Pin_12*%
%TO.N,/GPIO37*%
X146075000Y-93855000D03*
%TO.P,J4,13,Pin_13*%
%TO.N,/GPIO36*%
X146075000Y-96395000D03*
%TO.P,J4,14,Pin_14*%
%TO.N,/GPIO35*%
X146075000Y-98935000D03*
%TO.P,J4,15,Pin_15*%
%TO.N,/GPIO34*%
X146075000Y-101475000D03*
%TO.P,J4,16,Pin_16*%
%TO.N,/GPIO33*%
X146075000Y-104015000D03*
%TO.P,J4,17,Pin_17*%
%TO.N,/GPIO26*%
X146075000Y-106555000D03*
%TO.P,J4,18,Pin_18*%
%TO.N,/GPIO21*%
X146075000Y-109095000D03*
%TO.P,J4,19,Pin_19*%
%TO.N,/GPIO20*%
X146075000Y-111635000D03*
%TO.P,J4,20,Pin_20*%
%TO.N,/GPIO19*%
X146075000Y-114175000D03*
%TO.P,J4,21,Pin_21*%
%TO.N,/GPIO48*%
X146075000Y-116715000D03*
%TO.P,J4,22,Pin_22*%
%TO.N,/GPIO47*%
X146075000Y-119255000D03*
%TD*%
D16*
%TO.P,R10,1*%
%TO.N,GND*%
X132775000Y-114225000D03*
%TO.P,R10,2*%
%TO.N,Net-(U2-VBUS)*%
X132775000Y-115775000D03*
%TD*%
D17*
%TO.P,U4,1,GND*%
%TO.N,GND*%
X111275000Y-110425000D03*
%TO.P,U4,2,VO*%
%TO.N,3.3V*%
X113575000Y-110425000D03*
D18*
X113575000Y-104125000D03*
D17*
%TO.P,U4,3,VI*%
%TO.N,5V*%
X115875000Y-110425000D03*
%TD*%
D16*
%TO.P,R4,1*%
%TO.N,/DTR*%
X131500000Y-94725000D03*
%TO.P,R4,2*%
%TO.N,Net-(Q1-B)*%
X131500000Y-96275000D03*
%TD*%
D19*
%TO.P,LED2,1,VSS*%
%TO.N,GND*%
X122175000Y-86575000D03*
%TO.P,LED2,2,DIN*%
%TO.N,/RGB_CTRL*%
X122175000Y-89775000D03*
%TO.P,LED2,3,VDD*%
%TO.N,3.3V*%
X127075000Y-89775000D03*
%TO.P,LED2,4,DOUT*%
%TO.N,unconnected-(LED2-DOUT-Pad4)*%
X127075000Y-86575000D03*
%TD*%
D12*
%TO.P,R14,1*%
%TO.N,Net-(U2-TXD)*%
X124575000Y-108775000D03*
%TO.P,R14,2*%
%TO.N,/U0RXD*%
X123025000Y-108775000D03*
%TD*%
D20*
%TO.P,LED1,1,K*%
%TO.N,GND*%
X109500000Y-100275000D03*
%TO.P,LED1,2,A*%
%TO.N,Net-(LED1-A)*%
X111075000Y-100275000D03*
%TD*%
D16*
%TO.P,R5,1*%
%TO.N,/RTS*%
X125075000Y-94775000D03*
%TO.P,R5,2*%
%TO.N,Net-(Q2-B)*%
X125075000Y-96325000D03*
%TD*%
D21*
%TO.P,R11,1*%
%TO.N,Net-(U2-~{SUSPEND})*%
X135800000Y-106775000D03*
%TO.P,R11,2*%
%TO.N,GND*%
X137350000Y-106775000D03*
%TD*%
D22*
%TO.P,U1,1,GND*%
%TO.N,GND*%
X119425000Y-65825000D03*
%TO.P,U1,2,GND*%
X119425000Y-66675000D03*
%TO.P,U1,3,3V3*%
%TO.N,ESP_3.3V*%
X119425000Y-67525000D03*
%TO.P,U1,4,IO0*%
%TO.N,/GPIO0*%
X119425000Y-68375000D03*
%TO.P,U1,5,IO1*%
%TO.N,/GPIO1*%
X119425000Y-69225000D03*
%TO.P,U1,6,IO2*%
%TO.N,/GPIO2*%
X119425000Y-70075000D03*
%TO.P,U1,7,IO3*%
%TO.N,/GPIO3*%
X119425000Y-70925000D03*
%TO.P,U1,8,IO4*%
%TO.N,/GPIO4*%
X119425000Y-71775000D03*
%TO.P,U1,9,IO5*%
%TO.N,/GPIO5*%
X119425000Y-72625000D03*
%TO.P,U1,10,IO6*%
%TO.N,/GPIO6*%
X119425000Y-73475000D03*
%TO.P,U1,11,IO7*%
%TO.N,/GPIO7*%
X119425000Y-74325000D03*
%TO.P,U1,12,IO8*%
%TO.N,/GPIO8*%
X119425000Y-75175000D03*
%TO.P,U1,13,IO9*%
%TO.N,/GPIO9*%
X119425000Y-76025000D03*
%TO.P,U1,14,IO10*%
%TO.N,/GPIO10*%
X119425000Y-76875000D03*
%TO.P,U1,15,IO11*%
%TO.N,/GPIO11*%
X119425000Y-77725000D03*
D23*
%TO.P,U1,16,IO12*%
%TO.N,/GPIO12*%
X120475000Y-78775000D03*
%TO.P,U1,17,IO13*%
%TO.N,/GPIO13*%
X121325000Y-78775000D03*
%TO.P,U1,18,IO14*%
%TO.N,/GPIO14*%
X122175000Y-78775000D03*
%TO.P,U1,19,IO15*%
%TO.N,/GPIO15*%
X123025000Y-78775000D03*
%TO.P,U1,20,IO16*%
%TO.N,/GPIO16*%
X123875000Y-78775000D03*
%TO.P,U1,21,IO17*%
%TO.N,/GPIO17*%
X124725000Y-78775000D03*
%TO.P,U1,22,IO18*%
%TO.N,/GPIO18*%
X125575000Y-78775000D03*
%TO.P,U1,23,USB_D-*%
%TO.N,/GPIO19*%
X126425000Y-78775000D03*
%TO.P,U1,24,USB_D+*%
%TO.N,/GPIO20*%
X127275000Y-78775000D03*
%TO.P,U1,25,IO21*%
%TO.N,/GPIO21*%
X128125000Y-78775000D03*
%TO.P,U1,26,IO26*%
%TO.N,/GPIO26*%
X128975000Y-78775000D03*
%TO.P,U1,27,IO47*%
%TO.N,/GPIO47*%
X129825000Y-78775000D03*
%TO.P,U1,28,IO33*%
%TO.N,/GPIO33*%
X130675000Y-78775000D03*
%TO.P,U1,29,IO34*%
%TO.N,/GPIO34*%
X131525000Y-78775000D03*
%TO.P,U1,30,IO48*%
%TO.N,/GPIO48*%
X132375000Y-78775000D03*
D22*
%TO.P,U1,31,IO35*%
%TO.N,/GPIO35*%
X133425000Y-77725000D03*
%TO.P,U1,32,IO36*%
%TO.N,/GPIO36*%
X133425000Y-76875000D03*
%TO.P,U1,33,IO37*%
%TO.N,/GPIO37*%
X133425000Y-76025000D03*
%TO.P,U1,34,IO38*%
%TO.N,/GPIO38*%
X133425000Y-75175000D03*
%TO.P,U1,35,IO39*%
%TO.N,/GPIO39*%
X133425000Y-74325000D03*
%TO.P,U1,36,IO40*%
%TO.N,/GPIO40*%
X133425000Y-73475000D03*
%TO.P,U1,37,IO41*%
%TO.N,/GPIO41*%
X133425000Y-72625000D03*
%TO.P,U1,38,IO42*%
%TO.N,/GPIO42*%
X133425000Y-71775000D03*
%TO.P,U1,39,TXD0*%
%TO.N,/U0TXD*%
X133425000Y-70925000D03*
%TO.P,U1,40,RXD0*%
%TO.N,/U0RXD*%
X133425000Y-70075000D03*
%TO.P,U1,41,IO45*%
%TO.N,/GPIO45*%
X133425000Y-69225000D03*
%TO.P,U1,42,GND*%
%TO.N,GND*%
X133425000Y-68375000D03*
%TO.P,U1,43,GND*%
X133425000Y-67525000D03*
%TO.P,U1,44,IO46*%
%TO.N,/GPIO46*%
X133425000Y-66675000D03*
%TO.P,U1,45,EN*%
%TO.N,/CHIP_PU*%
X133425000Y-65825000D03*
D23*
%TO.P,U1,46,GND*%
%TO.N,GND*%
X132375000Y-64775000D03*
%TO.P,U1,47,GND*%
X131525000Y-64775000D03*
%TO.P,U1,48,GND*%
X130675000Y-64775000D03*
%TO.P,U1,49,GND*%
X129825000Y-64775000D03*
%TO.P,U1,50,GND*%
X128975000Y-64775000D03*
%TO.P,U1,51,GND*%
X128125000Y-64775000D03*
%TO.P,U1,52,GND*%
X127275000Y-64775000D03*
%TO.P,U1,53,GND*%
X126425000Y-64775000D03*
%TO.P,U1,54,GND*%
X125575000Y-64775000D03*
%TO.P,U1,55,GND*%
X124725000Y-64775000D03*
%TO.P,U1,56,GND*%
X123875000Y-64775000D03*
%TO.P,U1,57,GND*%
X123025000Y-64775000D03*
%TO.P,U1,58,GND*%
X122175000Y-64775000D03*
%TO.P,U1,59,GND*%
X121325000Y-64775000D03*
%TO.P,U1,60,GND*%
X120475000Y-64775000D03*
D24*
%TO.P,U1,61,GND*%
X124775000Y-70125000D03*
D25*
X124775000Y-71775000D03*
X124775000Y-73425000D03*
X126425000Y-70125000D03*
X126425000Y-71775000D03*
X126425000Y-73425000D03*
X128075000Y-70125000D03*
X128075000Y-71775000D03*
X128075000Y-73425000D03*
D26*
%TO.P,U1,62,GND*%
X119425000Y-64775000D03*
%TO.P,U1,63,GND*%
X119425000Y-78775000D03*
%TO.P,U1,64,GND*%
X133425000Y-78775000D03*
%TO.P,U1,65,GND*%
X133425000Y-64775000D03*
%TD*%
D27*
%TO.P,SW1,1,1*%
%TO.N,GND*%
X113555000Y-128525000D03*
X105595000Y-128525000D03*
%TO.P,SW1,2,2*%
%TO.N,/GPIO0*%
X113555000Y-124025000D03*
X105595000Y-124025000D03*
%TD*%
D28*
%TO.P,C2,1*%
%TO.N,5V*%
X140000000Y-109775000D03*
%TO.P,C2,2*%
%TO.N,GND*%
X140000000Y-108225000D03*
%TD*%
D12*
%TO.P,C11,1*%
%TO.N,GND*%
X118350000Y-101275000D03*
%TO.P,C11,2*%
%TO.N,3.3V*%
X116800000Y-101275000D03*
%TD*%
%TO.P,R15,1*%
%TO.N,3.3V*%
X114625000Y-100275000D03*
%TO.P,R15,2*%
%TO.N,Net-(LED1-A)*%
X113075000Y-100275000D03*
%TD*%
%TO.P,C12,1*%
%TO.N,GND*%
X114850000Y-121775000D03*
%TO.P,C12,2*%
%TO.N,/GPIO0*%
X113300000Y-121775000D03*
%TD*%
D28*
%TO.P,C9,1*%
%TO.N,GND*%
X114575000Y-116050000D03*
%TO.P,C9,2*%
%TO.N,5V*%
X114575000Y-114500000D03*
%TD*%
D12*
%TO.P,C5,1*%
%TO.N,GND*%
X138775000Y-67000000D03*
%TO.P,C5,2*%
%TO.N,/CHIP_PU*%
X137225000Y-67000000D03*
%TD*%
D29*
%TO.P,J1,1,VBUS*%
%TO.N,VBUS*%
X133375000Y-125600000D03*
%TO.P,J1,2,D-*%
%TO.N,/USB_DN*%
X132725000Y-125600000D03*
%TO.P,J1,3,D+*%
%TO.N,/USB_DP*%
X132075000Y-125600000D03*
%TO.P,J1,4,ID*%
%TO.N,unconnected-(J1-ID-Pad4)*%
X131425000Y-125600000D03*
%TO.P,J1,5,GND*%
%TO.N,GND*%
X130775000Y-125600000D03*
D30*
%TO.P,J1,6,Shield*%
X127900000Y-128275000D03*
D31*
X128337500Y-128275000D03*
D32*
X129850000Y-125275000D03*
D33*
X132075000Y-128275000D03*
D32*
X134300000Y-125275000D03*
D31*
X135812500Y-128275000D03*
D30*
X136250000Y-128275000D03*
%TD*%
D28*
%TO.P,R3,1*%
%TO.N,3.3V*%
X125575000Y-83050000D03*
%TO.P,R3,2*%
%TO.N,/GPIO18*%
X125575000Y-81500000D03*
%TD*%
D13*
%TO.P,D4,1*%
%TO.N,GND*%
X134275000Y-120275000D03*
%TO.P,D4,2*%
%TO.N,/USB_DN*%
X132875000Y-120275000D03*
%TD*%
D21*
%TO.P,R8,1*%
%TO.N,/GPIO48*%
X118025000Y-89775000D03*
%TO.P,R8,2*%
%TO.N,/RGB_CTRL*%
X119575000Y-89775000D03*
%TD*%
%TO.P,C3,1*%
%TO.N,GND*%
X111300000Y-67275000D03*
%TO.P,C3,2*%
%TO.N,3.3V*%
X112850000Y-67275000D03*
%TD*%
D16*
%TO.P,R9,1*%
%TO.N,VBUS*%
X134500000Y-114225000D03*
%TO.P,R9,2*%
%TO.N,Net-(U2-VBUS)*%
X134500000Y-115775000D03*
%TD*%
D34*
%TO.P,U2,1,~{DCD}*%
%TO.N,unconnected-(U2-~{DCD}-Pad1)*%
X129625000Y-110225000D03*
%TO.P,U2,2,~{RI}/CLK*%
%TO.N,unconnected-(U2-~{RI}{slash}CLK-Pad2)*%
X130125000Y-110225000D03*
%TO.P,U2,3,GND*%
%TO.N,GND*%
X130625000Y-110225000D03*
%TO.P,U2,4,D+*%
%TO.N,/USB_DP*%
X131125000Y-110225000D03*
%TO.P,U2,5,D-*%
%TO.N,/USB_DN*%
X131625000Y-110225000D03*
%TO.P,U2,6,VDD*%
%TO.N,3.3V*%
X132125000Y-110225000D03*
%TO.P,U2,7,VREGIN*%
X132625000Y-110225000D03*
D35*
%TO.P,U2,8,VBUS*%
%TO.N,Net-(U2-VBUS)*%
X133575000Y-109275000D03*
%TO.P,U2,9,~{RST}*%
%TO.N,Net-(U2-~{RST})*%
X133575000Y-108775000D03*
%TO.P,U2,10,NC*%
%TO.N,unconnected-(U2-NC-Pad10)*%
X133575000Y-108275000D03*
%TO.P,U2,11,~{SUSPEND}*%
%TO.N,Net-(U2-~{SUSPEND})*%
X133575000Y-107775000D03*
%TO.P,U2,12,SUSPEND*%
%TO.N,unconnected-(U2-SUSPEND-Pad12)*%
X133575000Y-107275000D03*
%TO.P,U2,13,CHREN*%
%TO.N,unconnected-(U2-CHREN-Pad13)*%
X133575000Y-106775000D03*
%TO.P,U2,14,CHR1*%
%TO.N,unconnected-(U2-CHR1-Pad14)*%
X133575000Y-106275000D03*
D34*
%TO.P,U2,15,CHR0*%
%TO.N,unconnected-(U2-CHR0-Pad15)*%
X132625000Y-105325000D03*
%TO.P,U2,16,~{WAKEUP}/GPIO.3*%
%TO.N,unconnected-(U2-~{WAKEUP}{slash}GPIO.3-Pad16)*%
X132125000Y-105325000D03*
%TO.P,U2,17,RS485/GPIO.2*%
%TO.N,unconnected-(U2-RS485{slash}GPIO.2-Pad17)*%
X131625000Y-105325000D03*
%TO.P,U2,18,~{RXT}/GPIO.1*%
%TO.N,unconnected-(U2-~{RXT}{slash}GPIO.1-Pad18)*%
X131125000Y-105325000D03*
%TO.P,U2,19,~{TXT}/GPIO.0*%
%TO.N,unconnected-(U2-~{TXT}{slash}GPIO.0-Pad19)*%
X130625000Y-105325000D03*
%TO.P,U2,20,GPIO.6*%
%TO.N,unconnected-(U2-GPIO.6-Pad20)*%
X130125000Y-105325000D03*
%TO.P,U2,21,GPIO.5*%
%TO.N,unconnected-(U2-GPIO.5-Pad21)*%
X129625000Y-105325000D03*
D35*
%TO.P,U2,22,GPIO.4*%
%TO.N,unconnected-(U2-GPIO.4-Pad22)*%
X128675000Y-106275000D03*
%TO.P,U2,23,~{CTS}*%
%TO.N,unconnected-(U2-~{CTS}-Pad23)*%
X128675000Y-106775000D03*
%TO.P,U2,24,~{RTS}*%
%TO.N,/RTS*%
X128675000Y-107275000D03*
%TO.P,U2,25,RXD*%
%TO.N,Net-(U2-RXD)*%
X128675000Y-107775000D03*
%TO.P,U2,26,TXD*%
%TO.N,Net-(U2-TXD)*%
X128675000Y-108275000D03*
%TO.P,U2,27,~{DSR}*%
%TO.N,unconnected-(U2-~{DSR}-Pad27)*%
X128675000Y-108775000D03*
%TO.P,U2,28,~{DTR}*%
%TO.N,/DTR*%
X128675000Y-109275000D03*
D36*
%TO.P,U2,29,GND*%
%TO.N,GND*%
X131125000Y-107775000D03*
%TD*%
D37*
%TO.P,Q1,1,C*%
%TO.N,Net-(Q1-C)*%
X134025000Y-98900000D03*
%TO.P,Q1,2,B*%
%TO.N,Net-(Q1-B)*%
X132125000Y-98900000D03*
%TO.P,Q1,3,E*%
%TO.N,/RTS*%
X133075000Y-100775000D03*
%TD*%
%TO.P,Q2,1,C*%
%TO.N,Net-(Q2-C)*%
X127525000Y-98900000D03*
%TO.P,Q2,2,B*%
%TO.N,Net-(Q2-B)*%
X125625000Y-98900000D03*
%TO.P,Q2,3,E*%
%TO.N,/DTR*%
X126575000Y-100775000D03*
%TD*%
D15*
%TO.P,D7,1*%
%TO.N,GND*%
X118575000Y-120075000D03*
%TO.P,D7,2*%
%TO.N,/GPIO20*%
X118575000Y-121475000D03*
%TD*%
D38*
%TO.P,D3,1*%
%TO.N,GND*%
X129875000Y-120275000D03*
%TO.P,D3,2*%
%TO.N,/USB_DP*%
X131275000Y-120275000D03*
%TD*%
D12*
%TO.P,R12,1*%
%TO.N,3.3V*%
X137350000Y-108775000D03*
%TO.P,R12,2*%
%TO.N,Net-(U2-~{RST})*%
X135800000Y-108775000D03*
%TD*%
%TO.P,C10,1*%
%TO.N,GND*%
X118350000Y-99275000D03*
%TO.P,C10,2*%
%TO.N,3.3V*%
X116800000Y-99275000D03*
%TD*%
D28*
%TO.P,R7,1*%
%TO.N,Net-(Q2-C)*%
X128075000Y-96275000D03*
%TO.P,R7,2*%
%TO.N,/GPIO0*%
X128075000Y-94725000D03*
%TD*%
D21*
%TO.P,C13,1*%
%TO.N,GND*%
X137575000Y-120775000D03*
%TO.P,C13,2*%
%TO.N,/CHIP_PU*%
X139125000Y-120775000D03*
%TD*%
%TO.P,R2,1*%
%TO.N,/CHIP_PU*%
X136950000Y-65000000D03*
%TO.P,R2,2*%
%TO.N,ESP_3.3V*%
X138500000Y-65000000D03*
%TD*%
%TO.P,C4,1*%
%TO.N,GND*%
X111300000Y-65275000D03*
%TO.P,C4,2*%
%TO.N,3.3V*%
X112850000Y-65275000D03*
%TD*%
D14*
%TO.P,D1,1,K*%
%TO.N,5V*%
X139075000Y-111775000D03*
%TO.P,D1,2,A*%
%TO.N,VBUS*%
X139075000Y-115075000D03*
%TD*%
D29*
%TO.P,J2,1,VBUS*%
%TO.N,VBUS*%
X122075000Y-125775000D03*
%TO.P,J2,2,D-*%
%TO.N,/GPIO19*%
X121425000Y-125775000D03*
%TO.P,J2,3,D+*%
%TO.N,/GPIO20*%
X120775000Y-125775000D03*
%TO.P,J2,4,ID*%
%TO.N,unconnected-(J2-ID-Pad4)*%
X120125000Y-125775000D03*
%TO.P,J2,5,GND*%
%TO.N,GND*%
X119475000Y-125775000D03*
D30*
%TO.P,J2,6,Shield*%
X116600000Y-128450000D03*
D31*
X117037500Y-128450000D03*
D32*
X118550000Y-125450000D03*
D33*
X120775000Y-128450000D03*
D32*
X123000000Y-125450000D03*
D31*
X124512500Y-128450000D03*
D30*
X124950000Y-128450000D03*
%TD*%
D28*
%TO.P,C1,1*%
%TO.N,5V*%
X125075000Y-113550000D03*
%TO.P,C1,2*%
%TO.N,GND*%
X125075000Y-112000000D03*
%TD*%
%TO.P,R6,1*%
%TO.N,Net-(Q1-C)*%
X134000000Y-96275000D03*
%TO.P,R6,2*%
%TO.N,/CHIP_PU*%
X134000000Y-94725000D03*
%TD*%
D15*
%TO.P,D8,1*%
%TO.N,GND*%
X121575000Y-120075000D03*
%TO.P,D8,2*%
%TO.N,/GPIO19*%
X121575000Y-121475000D03*
%TD*%
D27*
%TO.P,SW2,1,1*%
%TO.N,GND*%
X147055000Y-128525000D03*
X139095000Y-128525000D03*
%TO.P,SW2,2,2*%
%TO.N,/CHIP_PU*%
X147055000Y-124025000D03*
X139095000Y-124025000D03*
%TD*%
D28*
%TO.P,C8,1*%
%TO.N,GND*%
X117575000Y-116050000D03*
%TO.P,C8,2*%
%TO.N,5V*%
X117575000Y-114500000D03*
%TD*%
D21*
%TO.P,C7,1*%
%TO.N,GND*%
X127725000Y-116775000D03*
%TO.P,C7,2*%
%TO.N,3.3V*%
X129275000Y-116775000D03*
%TD*%
D39*
%TO.N,GND*%
X137732555Y-128525000D03*
X118645240Y-118886221D03*
X117434709Y-80061451D03*
X110500000Y-101500000D03*
X135768994Y-121496737D03*
X114500000Y-117500000D03*
X130000000Y-111500000D03*
X128757667Y-120281672D03*
X115500000Y-123000000D03*
X119500000Y-101000000D03*
X134500000Y-119000000D03*
X109989903Y-67545618D03*
X119000000Y-116000000D03*
X111243719Y-112151463D03*
X120584786Y-86596602D03*
X138775006Y-106775006D03*
X140000000Y-67000000D03*
X134956511Y-80478512D03*
X115000000Y-128500000D03*
X124141675Y-119031765D03*
X132773643Y-112799408D03*
X121574065Y-118877971D03*
X134986158Y-64809911D03*
X126335415Y-112040085D03*
X127742518Y-115564463D03*
X137000000Y-116000000D03*
%TO.N,/CHIP_PU*%
X135737531Y-65826745D03*
X141000000Y-111000000D03*
X135388622Y-97376433D03*
X136500000Y-68000000D03*
%TO.N,Net-(U2-VBUS)*%
X136500000Y-113500000D03*
X134000000Y-117500000D03*
%TO.N,/GPIO0*%
X130000000Y-100000000D03*
X130000000Y-94000000D03*
X116000000Y-67500000D03*
X128500000Y-101500000D03*
X115000000Y-119000000D03*
%TO.N,/GPIO19*%
X122750093Y-121438309D03*
X126396383Y-80142502D03*
%TO.N,/GPIO20*%
X131000000Y-104000000D03*
X127268842Y-80198191D03*
X120000000Y-119000000D03*
X136500000Y-103000000D03*
%TO.N,/GPIO18*%
X121000000Y-100000000D03*
%TO.N,/GPIO15*%
X123003262Y-80367996D03*
%TO.N,/GPIO17*%
X124735806Y-80293744D03*
%TO.N,/GPIO14*%
X122136990Y-80417497D03*
%TO.N,/GPIO16*%
X123877785Y-80343246D03*
%TO.N,/GPIO13*%
X121299120Y-80462427D03*
%TO.N,/GPIO12*%
X120500000Y-80500000D03*
%TO.N,/U0TXD*%
X121779644Y-106216754D03*
%TO.N,/GPIO48*%
X143000000Y-102000000D03*
X133168266Y-80396196D03*
X117000000Y-89000000D03*
%TO.N,/GPIO33*%
X130684429Y-80328132D03*
%TO.N,/GPIO26*%
X128920947Y-80253880D03*
%TO.N,/U0RXD*%
X121799843Y-108836690D03*
%TO.N,/GPIO21*%
X128120944Y-80253880D03*
%TO.N,/DTR*%
X127507947Y-109297163D03*
X127000000Y-102769855D03*
%TO.N,5V*%
X126500000Y-113500000D03*
X137193017Y-111705392D03*
%TO.N,3.3V*%
X129252680Y-115591428D03*
X128888622Y-89789433D03*
X132665004Y-111395497D03*
X138724783Y-108794793D03*
X126784818Y-83044886D03*
X113795781Y-98784979D03*
X113849014Y-67235795D03*
%TO.N,ESP_3.3V*%
X117500000Y-67500000D03*
X142000000Y-66500000D03*
%TO.N,VBUS*%
X125500000Y-122500000D03*
X132900000Y-122500000D03*
%TD*%
D40*
%TO.N,/GPIO9*%
X112719188Y-87280812D02*
X112631406Y-87368594D01*
X119425000Y-76025000D02*
X117912500Y-76025000D01*
X117912500Y-76025000D02*
X114000000Y-79937500D01*
X114000000Y-86000000D02*
X112719188Y-87280812D01*
X114000000Y-79937500D02*
X114000000Y-86000000D01*
X108605000Y-91395000D02*
X106575000Y-91395000D01*
X112631406Y-87368594D02*
X108605000Y-91395000D01*
%TO.N,/GPIO10*%
X112521843Y-89190238D02*
X115000000Y-86712081D01*
X115000000Y-80000000D02*
X118125000Y-76875000D01*
X112082931Y-89629150D02*
X112521843Y-89190238D01*
X118125000Y-76875000D02*
X119425000Y-76875000D01*
X107777081Y-93935000D02*
X112082931Y-89629150D01*
X106575000Y-93935000D02*
X107777081Y-93935000D01*
X115000000Y-86712081D02*
X115000000Y-80000000D01*
%TO.N,GND*%
X134956511Y-80456511D02*
X133425000Y-78925000D01*
X137575000Y-120775000D02*
X136490731Y-120775000D01*
X127725000Y-116775000D02*
X127725000Y-115581981D01*
X134275000Y-120275000D02*
X134275000Y-119225000D01*
X147055000Y-128525000D02*
X139095000Y-128525000D01*
X137732555Y-128525000D02*
X139095000Y-128525000D01*
X111275000Y-110425000D02*
X111275000Y-112120182D01*
X111300000Y-65275000D02*
X111300000Y-67275000D01*
X126295330Y-112000000D02*
X126335415Y-112040085D01*
X137775000Y-117000000D02*
X137775000Y-116775000D01*
X134275000Y-119225000D02*
X134500000Y-119000000D01*
X135275000Y-124300000D02*
X135275000Y-122775000D01*
X114975000Y-128525000D02*
X115000000Y-128500000D01*
X118550000Y-125450000D02*
X119150000Y-125450000D01*
X118350000Y-99275000D02*
X118350000Y-101275000D01*
X119225000Y-101275000D02*
X119500000Y-101000000D01*
X121575000Y-118878906D02*
X121574065Y-118877971D01*
X135275000Y-122775000D02*
X135275000Y-121990731D01*
X114575000Y-116050000D02*
X114575000Y-117425000D01*
X118575000Y-118956461D02*
X118645240Y-118886221D01*
X120606388Y-86575000D02*
X120584786Y-86596602D01*
X134951247Y-64775000D02*
X134986158Y-64809911D01*
X114575000Y-117425000D02*
X114500000Y-117500000D01*
X118950000Y-116050000D02*
X119000000Y-116000000D01*
X127725000Y-115581981D02*
X127742518Y-115564463D01*
X111275000Y-112120182D02*
X111243719Y-112151463D01*
X118575000Y-120075000D02*
X118575000Y-118956461D01*
X138225000Y-106775000D02*
X137350000Y-106775000D01*
X114850000Y-121775000D02*
X114850000Y-122350000D01*
X130175000Y-125600000D02*
X129850000Y-125275000D01*
X118350000Y-101275000D02*
X119225000Y-101275000D01*
X130625000Y-110225000D02*
X130625000Y-110875000D01*
X136490731Y-120775000D02*
X135768994Y-121496737D01*
X109500000Y-100275000D02*
X109500000Y-100500000D01*
X119150000Y-125450000D02*
X119475000Y-125775000D01*
X130625000Y-108275000D02*
X130625000Y-110225000D01*
X117575000Y-116050000D02*
X118950000Y-116050000D01*
X113555000Y-128525000D02*
X114975000Y-128525000D01*
X111300000Y-67275000D02*
X110260521Y-67275000D01*
X137775000Y-116775000D02*
X137000000Y-116000000D01*
X138775000Y-67000000D02*
X140000000Y-67000000D01*
X132775000Y-114225000D02*
X132775000Y-112800765D01*
X124075000Y-120075000D02*
X124075000Y-119098440D01*
X134956511Y-80478512D02*
X134956511Y-80456511D01*
X131125000Y-107775000D02*
X130625000Y-108275000D01*
X121575000Y-120075000D02*
X121575000Y-118878906D01*
X138775006Y-106775006D02*
X140000000Y-108000000D01*
X119425000Y-78775000D02*
X118721160Y-78775000D01*
X114850000Y-122350000D02*
X115500000Y-123000000D01*
X134300000Y-125275000D02*
X135275000Y-124300000D01*
X132775000Y-112800765D02*
X132773643Y-112799408D01*
X130775000Y-126975000D02*
X130775000Y-125600000D01*
X138225006Y-106775006D02*
X138225000Y-106775000D01*
X125075000Y-112000000D02*
X126295330Y-112000000D01*
X128764339Y-120275000D02*
X128757667Y-120281672D01*
X133425000Y-64775000D02*
X134951247Y-64775000D01*
X119475000Y-127150000D02*
X120775000Y-128450000D01*
X132075000Y-128275000D02*
X130775000Y-126975000D01*
X135275000Y-121990731D02*
X135768994Y-121496737D01*
X138775006Y-106775006D02*
X138225006Y-106775006D01*
X124075000Y-119098440D02*
X124141675Y-119031765D01*
X133425000Y-78925000D02*
X133425000Y-78775000D01*
X110260521Y-67275000D02*
X109989903Y-67545618D01*
X130625000Y-110875000D02*
X130000000Y-111500000D01*
X129875000Y-120275000D02*
X128764339Y-120275000D01*
X113555000Y-128525000D02*
X105595000Y-128525000D01*
X140000000Y-108000000D02*
X140000000Y-108225000D01*
X122175000Y-86575000D02*
X120606388Y-86575000D01*
X109500000Y-100500000D02*
X110500000Y-101500000D01*
X119475000Y-125775000D02*
X119475000Y-127150000D01*
X130775000Y-125600000D02*
X130175000Y-125600000D01*
X118721160Y-78775000D02*
X117434709Y-80061451D01*
%TO.N,/CHIP_PU*%
X134326745Y-65826745D02*
X135737531Y-65826745D01*
X134325000Y-65825000D02*
X134326745Y-65826745D01*
X135388622Y-97376433D02*
X135388622Y-96113622D01*
X135500000Y-67000000D02*
X137225000Y-67000000D01*
X137225000Y-67000000D02*
X137225000Y-67275000D01*
X141000000Y-118900000D02*
X141000000Y-111000000D01*
X139125000Y-120775000D02*
X139125000Y-123995000D01*
X134325000Y-65825000D02*
X135500000Y-67000000D01*
X135388622Y-96113622D02*
X134000000Y-94725000D01*
X137225000Y-67275000D02*
X136500000Y-68000000D01*
X139125000Y-123995000D02*
X139095000Y-124025000D01*
X139125000Y-120775000D02*
X141000000Y-118900000D01*
X136950000Y-66000000D02*
X136950000Y-66725000D01*
X136950000Y-65000000D02*
X136950000Y-66000000D01*
X133425000Y-65825000D02*
X134325000Y-65825000D01*
X139095000Y-124025000D02*
X147055000Y-124025000D01*
X136950000Y-66725000D02*
X137225000Y-67000000D01*
%TO.N,Net-(U2-VBUS)*%
X132775000Y-117275000D02*
X132775000Y-115775000D01*
X133575000Y-109275000D02*
X136500000Y-112200000D01*
X133000000Y-117500000D02*
X132775000Y-117275000D01*
X134500000Y-115775000D02*
X134500000Y-116500000D01*
X134000000Y-117500000D02*
X133000000Y-117500000D01*
X132775000Y-115775000D02*
X134500000Y-115775000D01*
X135000000Y-117000000D02*
X136225000Y-117000000D01*
X134500000Y-116500000D02*
X135000000Y-117000000D01*
X136500000Y-112200000D02*
X136500000Y-113500000D01*
%TO.N,/GPIO0*%
X115500000Y-68535000D02*
X119265000Y-68535000D01*
X129500000Y-93500000D02*
X128500000Y-93500000D01*
X128500000Y-101500000D02*
X130000000Y-100000000D01*
X128075000Y-93925000D02*
X128075000Y-94725000D01*
X115500000Y-68000000D02*
X116000000Y-67500000D01*
X119265000Y-68535000D02*
X119425000Y-68375000D01*
X105595000Y-124025000D02*
X113555000Y-124025000D01*
X128500000Y-93500000D02*
X128075000Y-93925000D01*
X113555000Y-124025000D02*
X113555000Y-122030000D01*
X113300000Y-121775000D02*
X113300000Y-120700000D01*
X113300000Y-120700000D02*
X115000000Y-119000000D01*
X113555000Y-122030000D02*
X113300000Y-121775000D01*
X115500000Y-68535000D02*
X115500000Y-68000000D01*
X106575000Y-68535000D02*
X115500000Y-68535000D01*
X130000000Y-94000000D02*
X129500000Y-93500000D01*
D41*
%TO.N,/USB_DN*%
X131575001Y-110274999D02*
X131575001Y-117517362D01*
X132576000Y-124856130D02*
X132300000Y-124580130D01*
X131575001Y-117517362D02*
X131575001Y-117535925D01*
X132300000Y-124580130D02*
X132300000Y-121375001D01*
X131575001Y-118975001D02*
X132875000Y-120275000D01*
X132875000Y-120800001D02*
X132875000Y-120275000D01*
X132725000Y-125600000D02*
X132576000Y-125451000D01*
X131575001Y-117535925D02*
X131575001Y-118975001D01*
X131625000Y-110225000D02*
X131575001Y-110274999D01*
X132576000Y-125451000D02*
X132576000Y-124856130D01*
X132300000Y-121375001D02*
X132875000Y-120800001D01*
%TO.N,/USB_DP*%
X131926000Y-124856130D02*
X131850000Y-124780130D01*
X131850000Y-124780130D02*
X131850000Y-121375001D01*
X132075000Y-125586397D02*
X131926000Y-125437397D01*
X131926000Y-125437397D02*
X131926000Y-124856130D01*
X131125000Y-119161397D02*
X131125000Y-110225000D01*
X132075000Y-125600000D02*
X132075000Y-125586397D01*
X131850000Y-121375001D02*
X131275000Y-120800001D01*
X131275000Y-120800001D02*
X131275000Y-120275000D01*
X131275000Y-120275000D02*
X131275000Y-119311397D01*
X131275000Y-119311397D02*
X131125000Y-119161397D01*
D40*
%TO.N,/GPIO19*%
X126425000Y-78775000D02*
X126425000Y-80113885D01*
X121575000Y-121475000D02*
X121425000Y-121625000D01*
X121425000Y-121625000D02*
X121425000Y-125775000D01*
X126425000Y-80113885D02*
X126396383Y-80142502D01*
X122713402Y-121475000D02*
X122750093Y-121438309D01*
X121575000Y-121475000D02*
X122713402Y-121475000D01*
%TO.N,/GPIO20*%
X120775000Y-123675000D02*
X120775000Y-125775000D01*
X127275000Y-78775000D02*
X127275000Y-80192033D01*
X131000000Y-104000000D02*
X132000000Y-103000000D01*
X118575000Y-121475000D02*
X120775000Y-123675000D01*
X118575000Y-121475000D02*
X120000000Y-120050000D01*
X120000000Y-120050000D02*
X120000000Y-119000000D01*
X127275000Y-80192033D02*
X127268842Y-80198191D01*
X132000000Y-103000000D02*
X136500000Y-103000000D01*
%TO.N,/GPIO6*%
X110500000Y-81052081D02*
X107777081Y-83775000D01*
X107777081Y-83775000D02*
X106575000Y-83775000D01*
X110500000Y-79500000D02*
X110500000Y-81052081D01*
X119425000Y-73475000D02*
X116525000Y-73475000D01*
X116525000Y-73475000D02*
X110500000Y-79500000D01*
%TO.N,/GPIO1*%
X119425000Y-69225000D02*
X112775000Y-69225000D01*
X110925000Y-71075000D02*
X106575000Y-71075000D01*
X112775000Y-69225000D02*
X110925000Y-71075000D01*
%TO.N,/GPIO18*%
X124000000Y-83075000D02*
X125575000Y-81500000D01*
X121000000Y-94500000D02*
X124000000Y-91500000D01*
X121000000Y-100000000D02*
X121000000Y-94500000D01*
X124000000Y-91500000D02*
X124000000Y-83075000D01*
X125575000Y-81500000D02*
X125575000Y-78775000D01*
%TO.N,/GPIO5*%
X115875000Y-72625000D02*
X109500000Y-79000000D01*
X119425000Y-72625000D02*
X115875000Y-72625000D01*
X109500000Y-79000000D02*
X109500000Y-80500000D01*
X109500000Y-80500000D02*
X108765000Y-81235000D01*
X108765000Y-81235000D02*
X106575000Y-81235000D01*
%TO.N,/GPIO7*%
X106760000Y-86500000D02*
X106575000Y-86315000D01*
X108000000Y-86500000D02*
X106760000Y-86500000D01*
X117175000Y-74325000D02*
X111500000Y-80000000D01*
X119425000Y-74325000D02*
X117175000Y-74325000D01*
X111500000Y-80000000D02*
X111500000Y-83000000D01*
X111500000Y-83000000D02*
X108000000Y-86500000D01*
%TO.N,/GPIO4*%
X107805000Y-78695000D02*
X106575000Y-78695000D01*
X119425000Y-71775000D02*
X114725000Y-71775000D01*
X114725000Y-71775000D02*
X107805000Y-78695000D01*
%TO.N,/GPIO8*%
X108355000Y-88855000D02*
X106575000Y-88855000D01*
X113000000Y-79682907D02*
X113000000Y-84250000D01*
X113000000Y-84250000D02*
X108375000Y-88875000D01*
X117507907Y-75175000D02*
X113000000Y-79682907D01*
X108375000Y-88875000D02*
X108355000Y-88855000D01*
X119425000Y-75175000D02*
X117507907Y-75175000D01*
%TO.N,/GPIO15*%
X123025000Y-80346258D02*
X123003262Y-80367996D01*
X123025000Y-78775000D02*
X123025000Y-80346258D01*
%TO.N,/GPIO17*%
X124725000Y-78775000D02*
X124725000Y-80282938D01*
X124725000Y-80282938D02*
X124735806Y-80293744D01*
%TO.N,/GPIO11*%
X118725000Y-77725000D02*
X116000000Y-80450000D01*
X116000000Y-89000000D02*
X108525000Y-96475000D01*
X108525000Y-96475000D02*
X106575000Y-96475000D01*
X116000000Y-80450000D02*
X116000000Y-89000000D01*
X119425000Y-77725000D02*
X118725000Y-77725000D01*
%TO.N,/GPIO14*%
X122175000Y-80379487D02*
X122136990Y-80417497D01*
X122175000Y-78775000D02*
X122175000Y-80379487D01*
%TO.N,/GPIO16*%
X123875000Y-80340461D02*
X123877785Y-80343246D01*
X123875000Y-78775000D02*
X123875000Y-80340461D01*
%TO.N,/GPIO2*%
X113425000Y-70075000D02*
X109885000Y-73615000D01*
X119425000Y-70075000D02*
X113425000Y-70075000D01*
X109885000Y-73615000D02*
X106575000Y-73615000D01*
%TO.N,/GPIO13*%
X121325000Y-78775000D02*
X121325000Y-80436547D01*
X121325000Y-80436547D02*
X121299120Y-80462427D01*
%TO.N,/GPIO3*%
X106575000Y-76155000D02*
X108845000Y-76155000D01*
X108845000Y-76155000D02*
X114075000Y-70925000D01*
X114075000Y-70925000D02*
X119425000Y-70925000D01*
%TO.N,/GPIO12*%
X120475000Y-78775000D02*
X120475000Y-80475000D01*
X120475000Y-80475000D02*
X120500000Y-80500000D01*
%TO.N,/U0TXD*%
X133425000Y-70925000D02*
X137425000Y-70925000D01*
X145115000Y-78615000D02*
X146075000Y-78615000D01*
X123025000Y-106275000D02*
X121837890Y-106275000D01*
X137425000Y-70925000D02*
X145115000Y-78615000D01*
X121837890Y-106275000D02*
X121779644Y-106216754D01*
%TO.N,/GPIO48*%
X143000000Y-116000000D02*
X143715000Y-116715000D01*
X143715000Y-116715000D02*
X146075000Y-116715000D01*
X143000000Y-102000000D02*
X143000000Y-116000000D01*
X117775000Y-89775000D02*
X117000000Y-89000000D01*
X118025000Y-89775000D02*
X117775000Y-89775000D01*
X132375000Y-79602930D02*
X133168266Y-80396196D01*
X132375000Y-78775000D02*
X132375000Y-79602930D01*
%TO.N,/GPIO41*%
X142500000Y-78804720D02*
X142500000Y-82000000D01*
X144195000Y-83695000D02*
X146075000Y-83695000D01*
X133425000Y-72625000D02*
X136320280Y-72625000D01*
X142500000Y-82000000D02*
X144195000Y-83695000D01*
X136320280Y-72625000D02*
X142500000Y-78804720D01*
%TO.N,/GPIO46*%
X141319513Y-68819513D02*
X143500000Y-71000000D01*
X143505000Y-70995000D02*
X146075000Y-70995000D01*
X133675000Y-66675000D02*
X135819513Y-68819513D01*
X143500000Y-71000000D02*
X143505000Y-70995000D01*
X133425000Y-66675000D02*
X133675000Y-66675000D01*
X135819513Y-68819513D02*
X141319513Y-68819513D01*
%TO.N,/GPIO34*%
X144477401Y-101475000D02*
X135641623Y-92639222D01*
X135641623Y-92639222D02*
X135641623Y-84141623D01*
X135641623Y-84141623D02*
X131529764Y-80029764D01*
X131529764Y-78779764D02*
X131525000Y-78775000D01*
X146075000Y-101475000D02*
X144477401Y-101475000D01*
X131529764Y-80029764D02*
X131529764Y-78779764D01*
%TO.N,/GPIO38*%
X133425000Y-75175000D02*
X135361879Y-75175000D01*
X135361879Y-75175000D02*
X139815775Y-79628896D01*
X139815775Y-87815775D02*
X143315000Y-91315000D01*
X143315000Y-91315000D02*
X146075000Y-91315000D01*
X139815775Y-79628896D02*
X139815775Y-87815775D01*
%TO.N,/GPIO33*%
X130675000Y-78775000D02*
X130675000Y-80318703D01*
X130675000Y-80318703D02*
X130684429Y-80328132D01*
%TO.N,/GPIO42*%
X133425000Y-71775000D02*
X136775000Y-71775000D01*
X143500000Y-78500000D02*
X143500000Y-80500000D01*
X136775000Y-71775000D02*
X143500000Y-78500000D01*
X143500000Y-80500000D02*
X144155000Y-81155000D01*
X144155000Y-81155000D02*
X146075000Y-81155000D01*
%TO.N,/GPIO26*%
X128975000Y-78775000D02*
X128975000Y-80199827D01*
X128975000Y-80199827D02*
X128920947Y-80253880D01*
%TO.N,/GPIO40*%
X135975000Y-73475000D02*
X141500000Y-79000000D01*
X144235000Y-86235000D02*
X146075000Y-86235000D01*
X141500000Y-79000000D02*
X141500000Y-83500000D01*
X141500000Y-83500000D02*
X144235000Y-86235000D01*
X133425000Y-73475000D02*
X135975000Y-73475000D01*
%TO.N,/GPIO45*%
X133425000Y-69225000D02*
X135225000Y-69225000D01*
X135225000Y-69225000D02*
X135500000Y-69500000D01*
X135500000Y-69500000D02*
X140500000Y-69500000D01*
X140500000Y-69500000D02*
X144535000Y-73535000D01*
X144535000Y-73535000D02*
X146075000Y-73535000D01*
%TO.N,/GPIO39*%
X144275000Y-88775000D02*
X146075000Y-88775000D01*
X135825000Y-74325000D02*
X140688235Y-79188235D01*
X140688235Y-85188235D02*
X144275000Y-88775000D01*
X140688235Y-79188235D02*
X140688235Y-85188235D01*
X133425000Y-74325000D02*
X135825000Y-74325000D01*
%TO.N,/GPIO47*%
X141750000Y-115679178D02*
X141826000Y-115755178D01*
X141750000Y-100013482D02*
X141750000Y-115679178D01*
X141826000Y-115755178D02*
X141826000Y-116326000D01*
X141826000Y-116326000D02*
X144755000Y-119255000D01*
X134500000Y-92763482D02*
X141750000Y-100013482D01*
X134500000Y-85064357D02*
X134500000Y-92763482D01*
X144755000Y-119255000D02*
X146075000Y-119255000D01*
X129825000Y-80389357D02*
X134500000Y-85064357D01*
X129825000Y-78775000D02*
X129825000Y-80389357D01*
%TO.N,/U0RXD*%
X123025000Y-108775000D02*
X121861533Y-108775000D01*
X133425000Y-70075000D02*
X138575000Y-70075000D01*
X121861533Y-108775000D02*
X121799843Y-108836690D01*
X144575000Y-76075000D02*
X146075000Y-76075000D01*
X138575000Y-70075000D02*
X144575000Y-76075000D01*
%TO.N,/GPIO36*%
X133425000Y-76875000D02*
X134522624Y-76875000D01*
X144395000Y-96395000D02*
X146075000Y-96395000D01*
X137740998Y-89740998D02*
X144395000Y-96395000D01*
X134522624Y-76875000D02*
X137740998Y-80093374D01*
X137740998Y-80093374D02*
X137740998Y-89740998D01*
%TO.N,/GPIO35*%
X144935000Y-98935000D02*
X146075000Y-98935000D01*
X134125000Y-77725000D02*
X136682908Y-80282908D01*
X136682908Y-80282908D02*
X136682908Y-90682908D01*
X136682908Y-90682908D02*
X144935000Y-98935000D01*
X133425000Y-77725000D02*
X134125000Y-77725000D01*
%TO.N,/GPIO21*%
X128125000Y-78775000D02*
X128125000Y-80249824D01*
X128125000Y-80249824D02*
X128120944Y-80253880D01*
%TO.N,/GPIO37*%
X135025000Y-76025000D02*
X138720560Y-79720560D01*
X143855000Y-93855000D02*
X146075000Y-93855000D01*
X138720560Y-88720560D02*
X143855000Y-93855000D01*
X138720560Y-79720560D02*
X138720560Y-88720560D01*
X133425000Y-76025000D02*
X135025000Y-76025000D01*
%TO.N,Net-(LED1-A)*%
X113075000Y-100275000D02*
X111075000Y-100275000D01*
%TO.N,/RGB_CTRL*%
X122175000Y-89775000D02*
X119575000Y-89775000D01*
%TO.N,Net-(Q1-C)*%
X134000000Y-98875000D02*
X134025000Y-98900000D01*
X134000000Y-96275000D02*
X134000000Y-98875000D01*
%TO.N,Net-(Q1-B)*%
X131500000Y-98275000D02*
X132125000Y-98900000D01*
X131500000Y-96275000D02*
X131500000Y-98275000D01*
%TO.N,/RTS*%
X128675000Y-107275000D02*
X128188490Y-107275000D01*
X130500000Y-103000000D02*
X130000000Y-103500000D01*
X127924000Y-107010510D02*
X127924000Y-105576000D01*
X128188490Y-107275000D02*
X127924000Y-107010510D01*
X133075000Y-100775000D02*
X130850000Y-103000000D01*
X130000000Y-103500000D02*
X124500000Y-103500000D01*
X127924000Y-105576000D02*
X130500000Y-103000000D01*
X124500000Y-103500000D02*
X123500000Y-102500000D01*
X123500000Y-96350000D02*
X125075000Y-94775000D01*
X130850000Y-103000000D02*
X130500000Y-103000000D01*
X123500000Y-102500000D02*
X123500000Y-96350000D01*
%TO.N,Net-(Q2-B)*%
X125075000Y-98350000D02*
X125625000Y-98900000D01*
X125075000Y-96325000D02*
X125075000Y-98350000D01*
%TO.N,/DTR*%
X126575000Y-100775000D02*
X127225000Y-100775000D01*
X128675000Y-109275000D02*
X127530110Y-109275000D01*
X126575000Y-102344855D02*
X126575000Y-100775000D01*
X130000000Y-95000000D02*
X130275000Y-94725000D01*
X127000000Y-102769855D02*
X126575000Y-102344855D01*
X130275000Y-94725000D02*
X131500000Y-94725000D01*
X127530110Y-109275000D02*
X127507947Y-109297163D01*
X130000000Y-98000000D02*
X130000000Y-95000000D01*
X127225000Y-100775000D02*
X130000000Y-98000000D01*
%TO.N,Net-(Q2-C)*%
X127525000Y-96825000D02*
X128075000Y-96275000D01*
X127525000Y-98900000D02*
X127525000Y-96825000D01*
%TO.N,Net-(U2-~{SUSPEND})*%
X134800000Y-107775000D02*
X135800000Y-106775000D01*
X133575000Y-107775000D02*
X134800000Y-107775000D01*
%TO.N,Net-(U2-~{RST})*%
X133575000Y-108775000D02*
X135800000Y-108775000D01*
%TO.N,Net-(U2-RXD)*%
X126775000Y-107775000D02*
X128675000Y-107775000D01*
X124575000Y-106275000D02*
X125275000Y-106275000D01*
X125275000Y-106275000D02*
X126775000Y-107775000D01*
%TO.N,Net-(U2-TXD)*%
X126725000Y-108775000D02*
X124575000Y-108775000D01*
X128675000Y-108275000D02*
X127225000Y-108275000D01*
X127225000Y-108275000D02*
X126725000Y-108775000D01*
%TO.N,5V*%
X125125000Y-113500000D02*
X125075000Y-113550000D01*
X137262625Y-111775000D02*
X137193017Y-111705392D01*
X108870000Y-114500000D02*
X114575000Y-114500000D01*
X139075000Y-111775000D02*
X137262625Y-111775000D01*
X114575000Y-114500000D02*
X117575000Y-114500000D01*
X117575000Y-114500000D02*
X121050000Y-114500000D01*
X125000000Y-113475000D02*
X125075000Y-113550000D01*
X115875000Y-110425000D02*
X115875000Y-113200000D01*
X140000000Y-109775000D02*
X140000000Y-110850000D01*
X121050000Y-114500000D02*
X122075000Y-113475000D01*
X126500000Y-113500000D02*
X125125000Y-113500000D01*
X115875000Y-113200000D02*
X114575000Y-114500000D01*
X106575000Y-116795000D02*
X108870000Y-114500000D01*
X122075000Y-113475000D02*
X125000000Y-113475000D01*
X140000000Y-110850000D02*
X139075000Y-111775000D01*
%TO.N,3.3V*%
X112850000Y-65275000D02*
X112850000Y-67275000D01*
X114625000Y-100275000D02*
X115800000Y-100275000D01*
X115300000Y-65275000D02*
X112850000Y-65275000D01*
X132625000Y-111355493D02*
X132665004Y-111395497D01*
X114625000Y-100275000D02*
X114625000Y-99614198D01*
X129275000Y-116775000D02*
X129275000Y-115613748D01*
X112850000Y-67275000D02*
X113809809Y-67275000D01*
X137350000Y-108775000D02*
X138704990Y-108775000D01*
X113575000Y-110425000D02*
X113575000Y-104125000D01*
X129275000Y-115613748D02*
X129252680Y-115591428D01*
X116425000Y-101275000D02*
X113575000Y-104125000D01*
X132625000Y-110225000D02*
X132625000Y-111355493D01*
X115800000Y-100275000D02*
X116800000Y-99275000D01*
X132125000Y-110225000D02*
X132625000Y-110225000D01*
X116800000Y-99275000D02*
X116800000Y-101275000D01*
X126779704Y-83050000D02*
X126784818Y-83044886D01*
X127075000Y-89775000D02*
X128874189Y-89775000D01*
X125575000Y-83050000D02*
X126779704Y-83050000D01*
X138704990Y-108775000D02*
X138724783Y-108794793D01*
X128874189Y-89775000D02*
X128888622Y-89789433D01*
X113809809Y-67275000D02*
X113849014Y-67235795D01*
X116800000Y-101275000D02*
X116425000Y-101275000D01*
X114625000Y-99614198D02*
X113795781Y-98784979D01*
%TO.N,ESP_3.3V*%
X140500000Y-65000000D02*
X138500000Y-65000000D01*
X117525000Y-67525000D02*
X117500000Y-67500000D01*
X116024000Y-64449000D02*
X116850000Y-65275000D01*
X142000000Y-66500000D02*
X140500000Y-65000000D01*
X119100000Y-67525000D02*
X119425000Y-67525000D01*
X106575000Y-65995000D02*
X108505000Y-65995000D01*
X119100000Y-67525000D02*
X117525000Y-67525000D01*
X110051000Y-64449000D02*
X116024000Y-64449000D01*
X108505000Y-65995000D02*
X110051000Y-64449000D01*
X116850000Y-65275000D02*
X119100000Y-67525000D01*
%TO.N,VBUS*%
X135350000Y-115075000D02*
X139075000Y-115075000D01*
X139075000Y-115075000D02*
X139075000Y-116995822D01*
X133600000Y-122500000D02*
X133875000Y-122775000D01*
X122075000Y-123475000D02*
X122075000Y-125775000D01*
X134500000Y-114225000D02*
X135350000Y-115075000D01*
X132900000Y-122500000D02*
X133600000Y-122500000D01*
X124075000Y-121475000D02*
X122075000Y-123475000D01*
X139075000Y-116995822D02*
X133875000Y-122195822D01*
X124075000Y-121475000D02*
X123374000Y-120774000D01*
X123374000Y-120774000D02*
X123374000Y-118074000D01*
X133875000Y-124361149D02*
X133875000Y-122775000D01*
X133375000Y-125600000D02*
X133375000Y-124861149D01*
X124475000Y-121475000D02*
X125500000Y-122500000D01*
X124075000Y-121475000D02*
X124475000Y-121475000D01*
X123374000Y-118074000D02*
X122075000Y-116775000D01*
X133375000Y-124861149D02*
X133875000Y-124361149D01*
X133875000Y-122195822D02*
X133875000Y-122775000D01*
%TD*%
%TA.AperFunction,Conductor*%
%TO.N,GND*%
G36*
X120420677Y-64544685D02*
G01*
X120441319Y-64561319D01*
X120455000Y-64575000D01*
X132395000Y-64575000D01*
X132408681Y-64561319D01*
X132470004Y-64527834D01*
X132496362Y-64525000D01*
X133301000Y-64525000D01*
X133368039Y-64544685D01*
X133413794Y-64597489D01*
X133425000Y-64649000D01*
X133425000Y-64901000D01*
X133405315Y-64968039D01*
X133352511Y-65013794D01*
X133301000Y-65025000D01*
X132575000Y-65025000D01*
X132575000Y-65376930D01*
X132567182Y-65420263D01*
X132530909Y-65517517D01*
X132524500Y-65577127D01*
X132524500Y-65577134D01*
X132524500Y-65577135D01*
X132524500Y-66072870D01*
X132524501Y-66072876D01*
X132530908Y-66132483D01*
X132558577Y-66206667D01*
X132563561Y-66276358D01*
X132558577Y-66293331D01*
X132530910Y-66367511D01*
X132530909Y-66367515D01*
X132530909Y-66367517D01*
X132524500Y-66427127D01*
X132524500Y-66427134D01*
X132524500Y-66427135D01*
X132524500Y-66922870D01*
X132524501Y-66922876D01*
X132530909Y-66982485D01*
X132558843Y-67057382D01*
X132563827Y-67127074D01*
X132558844Y-67144046D01*
X132531402Y-67217623D01*
X132531401Y-67217627D01*
X132525000Y-67277155D01*
X132525000Y-67325000D01*
X132776931Y-67325000D01*
X132820263Y-67332817D01*
X132917517Y-67369091D01*
X132977127Y-67375500D01*
X133301001Y-67375499D01*
X133368039Y-67395183D01*
X133375241Y-67400180D01*
X133575241Y-67549681D01*
X133593677Y-67574273D01*
X133613794Y-67597489D01*
X133614902Y-67602585D01*
X133617152Y-67605586D01*
X133617945Y-67616572D01*
X133625000Y-67649000D01*
X133625000Y-68251000D01*
X133605315Y-68318039D01*
X133552511Y-68363794D01*
X133501000Y-68375000D01*
X133425000Y-68375000D01*
X133425000Y-68400500D01*
X133405315Y-68467539D01*
X133352511Y-68513294D01*
X133301000Y-68524500D01*
X132977130Y-68524500D01*
X132977123Y-68524501D01*
X132917516Y-68530908D01*
X132820264Y-68567182D01*
X132776931Y-68575000D01*
X132525000Y-68575000D01*
X132525000Y-68622844D01*
X132531401Y-68682372D01*
X132531403Y-68682379D01*
X132558844Y-68755952D01*
X132563828Y-68825643D01*
X132558844Y-68842618D01*
X132543566Y-68883582D01*
X132530909Y-68917517D01*
X132524500Y-68977127D01*
X132524500Y-68977134D01*
X132524500Y-68977135D01*
X132524500Y-69472870D01*
X132524501Y-69472876D01*
X132530908Y-69532483D01*
X132558577Y-69606667D01*
X132563561Y-69676358D01*
X132558577Y-69693331D01*
X132530910Y-69767511D01*
X132530909Y-69767515D01*
X132530909Y-69767517D01*
X132524500Y-69827127D01*
X132524500Y-69827134D01*
X132524500Y-69827135D01*
X132524500Y-70322870D01*
X132524501Y-70322876D01*
X132530908Y-70382483D01*
X132558577Y-70456667D01*
X132563561Y-70526358D01*
X132558577Y-70543331D01*
X132530910Y-70617511D01*
X132530909Y-70617515D01*
X132530909Y-70617517D01*
X132524500Y-70677127D01*
X132524500Y-70677134D01*
X132524500Y-70677135D01*
X132524500Y-71172870D01*
X132524501Y-71172876D01*
X132530908Y-71232483D01*
X132558577Y-71306667D01*
X132563561Y-71376358D01*
X132558577Y-71393331D01*
X132530910Y-71467511D01*
X132530909Y-71467515D01*
X132530909Y-71467517D01*
X132524500Y-71527127D01*
X132524500Y-71527134D01*
X132524500Y-71527135D01*
X132524500Y-72022870D01*
X132524501Y-72022876D01*
X132530908Y-72082483D01*
X132558577Y-72156667D01*
X132563561Y-72226358D01*
X132558577Y-72243331D01*
X132530910Y-72317511D01*
X132530909Y-72317515D01*
X132530909Y-72317517D01*
X132524500Y-72377127D01*
X132524500Y-72377134D01*
X132524500Y-72377135D01*
X132524500Y-72872870D01*
X132524501Y-72872876D01*
X132530908Y-72932483D01*
X132558577Y-73006667D01*
X132563561Y-73076358D01*
X132558577Y-73093331D01*
X132530910Y-73167511D01*
X132530909Y-73167515D01*
X132530909Y-73167517D01*
X132524500Y-73227127D01*
X132524500Y-73227134D01*
X132524500Y-73227135D01*
X132524500Y-73722870D01*
X132524501Y-73722876D01*
X132530908Y-73782483D01*
X132558577Y-73856667D01*
X132563561Y-73926358D01*
X132558577Y-73943331D01*
X132530910Y-74017511D01*
X132530909Y-74017515D01*
X132530909Y-74017517D01*
X132524500Y-74077127D01*
X132524500Y-74077134D01*
X132524500Y-74077135D01*
X132524500Y-74572870D01*
X132524501Y-74572876D01*
X132530908Y-74632483D01*
X132558577Y-74706667D01*
X132563561Y-74776358D01*
X132558577Y-74793331D01*
X132530910Y-74867511D01*
X132530909Y-74867515D01*
X132530909Y-74867517D01*
X132524500Y-74927127D01*
X132524500Y-74927134D01*
X132524500Y-74927135D01*
X132524500Y-75422870D01*
X132524501Y-75422876D01*
X132530908Y-75482483D01*
X132558577Y-75556667D01*
X132563561Y-75626358D01*
X132558577Y-75643331D01*
X132530910Y-75717511D01*
X132530909Y-75717515D01*
X132530909Y-75717517D01*
X132524500Y-75777127D01*
X132524500Y-75777134D01*
X132524500Y-75777135D01*
X132524500Y-76272870D01*
X132524501Y-76272876D01*
X132530908Y-76332483D01*
X132558577Y-76406667D01*
X132563561Y-76476358D01*
X132558577Y-76493331D01*
X132530910Y-76567511D01*
X132530909Y-76567515D01*
X132530909Y-76567517D01*
X132524500Y-76627127D01*
X132524500Y-76627134D01*
X132524500Y-76627135D01*
X132524500Y-77122870D01*
X132524501Y-77122876D01*
X132530908Y-77182483D01*
X132558577Y-77256667D01*
X132563561Y-77326358D01*
X132558577Y-77343331D01*
X132530909Y-77417514D01*
X132530908Y-77417516D01*
X132524501Y-77477116D01*
X132524501Y-77477123D01*
X132524500Y-77477135D01*
X132524500Y-77750500D01*
X132504815Y-77817539D01*
X132452011Y-77863294D01*
X132400500Y-77874500D01*
X132127130Y-77874500D01*
X132127123Y-77874501D01*
X132067516Y-77880908D01*
X131993332Y-77908577D01*
X131923640Y-77913561D01*
X131906668Y-77908577D01*
X131832488Y-77880910D01*
X131832484Y-77880909D01*
X131832483Y-77880909D01*
X131772873Y-77874500D01*
X131772863Y-77874500D01*
X131277129Y-77874500D01*
X131277123Y-77874501D01*
X131217516Y-77880908D01*
X131143332Y-77908577D01*
X131073640Y-77913561D01*
X131056668Y-77908577D01*
X130982488Y-77880910D01*
X130982484Y-77880909D01*
X130982483Y-77880909D01*
X130922873Y-77874500D01*
X130922863Y-77874500D01*
X130427129Y-77874500D01*
X130427123Y-77874501D01*
X130367516Y-77880908D01*
X130293332Y-77908577D01*
X130223640Y-77913561D01*
X130206668Y-77908577D01*
X130132488Y-77880910D01*
X130132484Y-77880909D01*
X130132483Y-77880909D01*
X130072873Y-77874500D01*
X130072863Y-77874500D01*
X129577129Y-77874500D01*
X129577123Y-77874501D01*
X129517516Y-77880908D01*
X129443332Y-77908577D01*
X129373640Y-77913561D01*
X129356668Y-77908577D01*
X129282488Y-77880910D01*
X129282484Y-77880909D01*
X129282483Y-77880909D01*
X129222873Y-77874500D01*
X129222863Y-77874500D01*
X128727129Y-77874500D01*
X128727123Y-77874501D01*
X128667516Y-77880908D01*
X128593332Y-77908577D01*
X128523640Y-77913561D01*
X128506668Y-77908577D01*
X128432488Y-77880910D01*
X128432484Y-77880909D01*
X128432483Y-77880909D01*
X128372873Y-77874500D01*
X128372863Y-77874500D01*
X127877129Y-77874500D01*
X127877123Y-77874501D01*
X127817516Y-77880908D01*
X127743332Y-77908577D01*
X127673640Y-77913561D01*
X127656668Y-77908577D01*
X127582488Y-77880910D01*
X127582484Y-77880909D01*
X127582483Y-77880909D01*
X127522873Y-77874500D01*
X127522863Y-77874500D01*
X127027129Y-77874500D01*
X127027123Y-77874501D01*
X126967516Y-77880908D01*
X126893332Y-77908577D01*
X126823640Y-77913561D01*
X126806668Y-77908577D01*
X126732488Y-77880910D01*
X126732484Y-77880909D01*
X126732483Y-77880909D01*
X126672873Y-77874500D01*
X126672863Y-77874500D01*
X126177129Y-77874500D01*
X126177123Y-77874501D01*
X126117516Y-77880908D01*
X126043332Y-77908577D01*
X125973640Y-77913561D01*
X125956668Y-77908577D01*
X125882488Y-77880910D01*
X125882484Y-77880909D01*
X125882483Y-77880909D01*
X125822873Y-77874500D01*
X125822863Y-77874500D01*
X125327129Y-77874500D01*
X125327123Y-77874501D01*
X125267516Y-77880908D01*
X125193332Y-77908577D01*
X125123640Y-77913561D01*
X125106668Y-77908577D01*
X125032488Y-77880910D01*
X125032484Y-77880909D01*
X125032483Y-77880909D01*
X124972873Y-77874500D01*
X124972863Y-77874500D01*
X124477129Y-77874500D01*
X124477123Y-77874501D01*
X124417516Y-77880908D01*
X124343332Y-77908577D01*
X124273640Y-77913561D01*
X124256668Y-77908577D01*
X124182488Y-77880910D01*
X124182484Y-77880909D01*
X124182483Y-77880909D01*
X124122873Y-77874500D01*
X124122863Y-77874500D01*
X123627129Y-77874500D01*
X123627123Y-77874501D01*
X123567516Y-77880908D01*
X123493332Y-77908577D01*
X123423640Y-77913561D01*
X123406668Y-77908577D01*
X123332488Y-77880910D01*
X123332484Y-77880909D01*
X123332483Y-77880909D01*
X123272873Y-77874500D01*
X123272863Y-77874500D01*
X122777129Y-77874500D01*
X122777123Y-77874501D01*
X122717516Y-77880908D01*
X122643332Y-77908577D01*
X122573640Y-77913561D01*
X122556668Y-77908577D01*
X122482488Y-77880910D01*
X122482484Y-77880909D01*
X122482483Y-77880909D01*
X122422873Y-77874500D01*
X122422863Y-77874500D01*
X121927129Y-77874500D01*
X121927123Y-77874501D01*
X121867516Y-77880908D01*
X121793332Y-77908577D01*
X121723640Y-77913561D01*
X121706668Y-77908577D01*
X121632488Y-77880910D01*
X121632484Y-77880909D01*
X121632483Y-77880909D01*
X121572873Y-77874500D01*
X121572863Y-77874500D01*
X121077129Y-77874500D01*
X121077123Y-77874501D01*
X121017516Y-77880908D01*
X120943332Y-77908577D01*
X120873640Y-77913561D01*
X120856668Y-77908577D01*
X120782485Y-77880909D01*
X120782483Y-77880908D01*
X120722883Y-77874501D01*
X120722881Y-77874500D01*
X120722873Y-77874500D01*
X120722865Y-77874500D01*
X120449499Y-77874500D01*
X120382460Y-77854815D01*
X120336705Y-77802011D01*
X120325499Y-77750500D01*
X120325499Y-77477129D01*
X120325498Y-77477123D01*
X120325497Y-77477116D01*
X120319091Y-77417517D01*
X120291421Y-77343332D01*
X120286438Y-77273642D01*
X120291422Y-77256667D01*
X120319091Y-77182483D01*
X120325500Y-77122873D01*
X120325499Y-76627128D01*
X120319091Y-76567517D01*
X120291421Y-76493332D01*
X120286438Y-76423642D01*
X120291422Y-76406667D01*
X120319091Y-76332483D01*
X120325500Y-76272873D01*
X120325499Y-75777128D01*
X120319091Y-75717517D01*
X120291421Y-75643332D01*
X120286438Y-75573642D01*
X120291422Y-75556667D01*
X120319091Y-75482483D01*
X120325500Y-75422873D01*
X120325499Y-74927128D01*
X120319091Y-74867517D01*
X120291421Y-74793332D01*
X120286438Y-74723642D01*
X120291422Y-74706667D01*
X120319091Y-74632483D01*
X120325500Y-74572873D01*
X120325499Y-74077128D01*
X120319091Y-74017517D01*
X120291421Y-73943332D01*
X120286438Y-73873642D01*
X120291422Y-73856667D01*
X120319091Y-73782483D01*
X120325500Y-73722873D01*
X120325499Y-73227128D01*
X120319091Y-73167517D01*
X120291421Y-73093332D01*
X120286438Y-73023642D01*
X120291422Y-73006667D01*
X120319091Y-72932483D01*
X120325500Y-72872873D01*
X120325499Y-72377128D01*
X120319091Y-72317517D01*
X120291421Y-72243332D01*
X120286438Y-72173642D01*
X120291422Y-72156667D01*
X120319091Y-72082483D01*
X120325500Y-72022873D01*
X120325499Y-71527128D01*
X120319091Y-71467517D01*
X120291421Y-71393332D01*
X120286438Y-71323642D01*
X120291422Y-71306667D01*
X120319091Y-71232483D01*
X120325500Y-71172873D01*
X120325499Y-70677128D01*
X120319091Y-70617517D01*
X120291421Y-70543332D01*
X120286438Y-70473642D01*
X120291422Y-70456667D01*
X120319091Y-70382483D01*
X120325500Y-70322873D01*
X120325499Y-69827128D01*
X120319091Y-69767517D01*
X120291421Y-69693332D01*
X120286438Y-69623642D01*
X120291422Y-69606667D01*
X120319091Y-69532483D01*
X120325500Y-69472873D01*
X120325499Y-68977128D01*
X120319091Y-68917517D01*
X120291421Y-68843332D01*
X120286438Y-68773642D01*
X120291420Y-68756672D01*
X120319091Y-68682483D01*
X120325500Y-68622873D01*
X120325499Y-68127128D01*
X120319091Y-68067517D01*
X120291421Y-67993332D01*
X120286438Y-67923642D01*
X120291420Y-67906672D01*
X120319091Y-67832483D01*
X120325500Y-67772873D01*
X120325500Y-67772844D01*
X132525000Y-67772844D01*
X132531401Y-67832372D01*
X132531403Y-67832382D01*
X132559110Y-67906668D01*
X132564094Y-67976359D01*
X132559110Y-67993332D01*
X132531403Y-68067617D01*
X132531401Y-68067627D01*
X132525000Y-68127155D01*
X132525000Y-68175000D01*
X133225000Y-68175000D01*
X133225000Y-67725000D01*
X132525000Y-67725000D01*
X132525000Y-67772844D01*
X120325500Y-67772844D01*
X120325499Y-67505277D01*
X120325499Y-67277129D01*
X120325498Y-67277123D01*
X120320706Y-67232546D01*
X120319091Y-67217517D01*
X120291154Y-67142616D01*
X120286171Y-67072927D01*
X120291156Y-67055950D01*
X120318597Y-66982379D01*
X120318597Y-66982377D01*
X120324999Y-66922844D01*
X120325000Y-66922827D01*
X120325000Y-66875000D01*
X120073069Y-66875000D01*
X120029736Y-66867182D01*
X119932482Y-66830908D01*
X119932483Y-66830908D01*
X119872883Y-66824501D01*
X119872881Y-66824500D01*
X119872873Y-66824500D01*
X119872865Y-66824500D01*
X119549000Y-66824500D01*
X119481961Y-66804815D01*
X119474759Y-66799819D01*
X119274759Y-66650319D01*
X119256323Y-66625727D01*
X119236206Y-66602511D01*
X119235097Y-66597413D01*
X119232849Y-66594415D01*
X119232055Y-66583433D01*
X119225000Y-66551000D01*
X119225000Y-66475000D01*
X119625000Y-66475000D01*
X120325000Y-66475000D01*
X120325000Y-66427172D01*
X120324999Y-66427155D01*
X120318598Y-66367628D01*
X120290888Y-66293334D01*
X120285904Y-66223642D01*
X120290888Y-66206666D01*
X120318598Y-66132371D01*
X120324999Y-66072844D01*
X120325000Y-66072827D01*
X120325000Y-66025000D01*
X119625000Y-66025000D01*
X119625000Y-66475000D01*
X119225000Y-66475000D01*
X119225000Y-65805000D01*
X119211319Y-65791319D01*
X119177834Y-65729996D01*
X119175000Y-65703638D01*
X119175000Y-65675000D01*
X120675000Y-65675000D01*
X120722828Y-65675000D01*
X120722844Y-65674999D01*
X120782371Y-65668598D01*
X120856666Y-65640888D01*
X120926358Y-65635904D01*
X120943334Y-65640888D01*
X121017628Y-65668598D01*
X121017627Y-65668598D01*
X121077155Y-65674999D01*
X121077172Y-65675000D01*
X121125000Y-65675000D01*
X121525000Y-65675000D01*
X121572828Y-65675000D01*
X121572844Y-65674999D01*
X121632371Y-65668598D01*
X121706666Y-65640888D01*
X121776358Y-65635904D01*
X121793334Y-65640888D01*
X121867628Y-65668598D01*
X121867627Y-65668598D01*
X121927155Y-65674999D01*
X121927172Y-65675000D01*
X121975000Y-65675000D01*
X122375000Y-65675000D01*
X122422828Y-65675000D01*
X122422844Y-65674999D01*
X122482371Y-65668598D01*
X122556666Y-65640888D01*
X122626358Y-65635904D01*
X122643334Y-65640888D01*
X122717628Y-65668598D01*
X122717627Y-65668598D01*
X122777155Y-65674999D01*
X122777172Y-65675000D01*
X122825000Y-65675000D01*
X123225000Y-65675000D01*
X123272828Y-65675000D01*
X123272844Y-65674999D01*
X123332371Y-65668598D01*
X123406666Y-65640888D01*
X123476358Y-65635904D01*
X123493334Y-65640888D01*
X123567628Y-65668598D01*
X123567627Y-65668598D01*
X123627155Y-65674999D01*
X123627172Y-65675000D01*
X123675000Y-65675000D01*
X124075000Y-65675000D01*
X124122828Y-65675000D01*
X124122844Y-65674999D01*
X124182371Y-65668598D01*
X124256666Y-65640888D01*
X124326358Y-65635904D01*
X124343334Y-65640888D01*
X124417628Y-65668598D01*
X124417627Y-65668598D01*
X124477155Y-65674999D01*
X124477172Y-65675000D01*
X124525000Y-65675000D01*
X124925000Y-65675000D01*
X124972828Y-65675000D01*
X124972844Y-65674999D01*
X125032371Y-65668598D01*
X125106666Y-65640888D01*
X125176358Y-65635904D01*
X125193334Y-65640888D01*
X125267628Y-65668598D01*
X125267627Y-65668598D01*
X125327155Y-65674999D01*
X125327172Y-65675000D01*
X125375000Y-65675000D01*
X125775000Y-65675000D01*
X125822828Y-65675000D01*
X125822844Y-65674999D01*
X125882371Y-65668598D01*
X125956666Y-65640888D01*
X126026358Y-65635904D01*
X126043334Y-65640888D01*
X126117628Y-65668598D01*
X126117627Y-65668598D01*
X126177155Y-65674999D01*
X126177172Y-65675000D01*
X126225000Y-65675000D01*
X126625000Y-65675000D01*
X126672828Y-65675000D01*
X126672844Y-65674999D01*
X126732371Y-65668598D01*
X126806666Y-65640888D01*
X126876358Y-65635904D01*
X126893334Y-65640888D01*
X126967628Y-65668598D01*
X126967627Y-65668598D01*
X127027155Y-65674999D01*
X127027172Y-65675000D01*
X127075000Y-65675000D01*
X127475000Y-65675000D01*
X127522828Y-65675000D01*
X127522844Y-65674999D01*
X127582371Y-65668598D01*
X127656666Y-65640888D01*
X127726358Y-65635904D01*
X127743334Y-65640888D01*
X127817628Y-65668598D01*
X127817627Y-65668598D01*
X127877155Y-65674999D01*
X127877172Y-65675000D01*
X127925000Y-65675000D01*
X128325000Y-65675000D01*
X128372828Y-65675000D01*
X128372844Y-65674999D01*
X128432371Y-65668598D01*
X128506666Y-65640888D01*
X128576358Y-65635904D01*
X128593334Y-65640888D01*
X128667628Y-65668598D01*
X128667627Y-65668598D01*
X128727155Y-65674999D01*
X128727172Y-65675000D01*
X128775000Y-65675000D01*
X129175000Y-65675000D01*
X129222828Y-65675000D01*
X129222844Y-65674999D01*
X129282371Y-65668598D01*
X129356666Y-65640888D01*
X129426358Y-65635904D01*
X129443334Y-65640888D01*
X129517628Y-65668598D01*
X129517627Y-65668598D01*
X129577155Y-65674999D01*
X129577172Y-65675000D01*
X129625000Y-65675000D01*
X130025000Y-65675000D01*
X130072828Y-65675000D01*
X130072844Y-65674999D01*
X130132371Y-65668598D01*
X130206666Y-65640888D01*
X130276358Y-65635904D01*
X130293334Y-65640888D01*
X130367628Y-65668598D01*
X130367627Y-65668598D01*
X130427155Y-65674999D01*
X130427172Y-65675000D01*
X130475000Y-65675000D01*
X130875000Y-65675000D01*
X130922828Y-65675000D01*
X130922844Y-65674999D01*
X130982371Y-65668598D01*
X131056666Y-65640888D01*
X131126358Y-65635904D01*
X131143334Y-65640888D01*
X131217628Y-65668598D01*
X131217627Y-65668598D01*
X131277155Y-65674999D01*
X131277172Y-65675000D01*
X131325000Y-65675000D01*
X131725000Y-65675000D01*
X131772828Y-65675000D01*
X131772844Y-65674999D01*
X131832371Y-65668598D01*
X131906666Y-65640888D01*
X131976358Y-65635904D01*
X131993334Y-65640888D01*
X132067628Y-65668598D01*
X132067627Y-65668598D01*
X132127155Y-65674999D01*
X132127172Y-65675000D01*
X132175000Y-65675000D01*
X132175000Y-64975000D01*
X131725000Y-64975000D01*
X131725000Y-65675000D01*
X131325000Y-65675000D01*
X131325000Y-64975000D01*
X130875000Y-64975000D01*
X130875000Y-65675000D01*
X130475000Y-65675000D01*
X130475000Y-64975000D01*
X130025000Y-64975000D01*
X130025000Y-65675000D01*
X129625000Y-65675000D01*
X129625000Y-64975000D01*
X129175000Y-64975000D01*
X129175000Y-65675000D01*
X128775000Y-65675000D01*
X128775000Y-64975000D01*
X128325000Y-64975000D01*
X128325000Y-65675000D01*
X127925000Y-65675000D01*
X127925000Y-64975000D01*
X127475000Y-64975000D01*
X127475000Y-65675000D01*
X127075000Y-65675000D01*
X127075000Y-64975000D01*
X126625000Y-64975000D01*
X126625000Y-65675000D01*
X126225000Y-65675000D01*
X126225000Y-64975000D01*
X125775000Y-64975000D01*
X125775000Y-65675000D01*
X125375000Y-65675000D01*
X125375000Y-64975000D01*
X124925000Y-64975000D01*
X124925000Y-65675000D01*
X124525000Y-65675000D01*
X124525000Y-64975000D01*
X124075000Y-64975000D01*
X124075000Y-65675000D01*
X123675000Y-65675000D01*
X123675000Y-64975000D01*
X123225000Y-64975000D01*
X123225000Y-65675000D01*
X122825000Y-65675000D01*
X122825000Y-64975000D01*
X122375000Y-64975000D01*
X122375000Y-65675000D01*
X121975000Y-65675000D01*
X121975000Y-64975000D01*
X121525000Y-64975000D01*
X121525000Y-65675000D01*
X121125000Y-65675000D01*
X121125000Y-64975000D01*
X120675000Y-64975000D01*
X120675000Y-65675000D01*
X119175000Y-65675000D01*
X119175000Y-65625000D01*
X119675000Y-65625000D01*
X120275000Y-65625000D01*
X120275000Y-65025000D01*
X119675000Y-65025000D01*
X119675000Y-65625000D01*
X119175000Y-65625000D01*
X119175000Y-64899000D01*
X119194685Y-64831961D01*
X119247489Y-64786206D01*
X119299000Y-64775000D01*
X119425000Y-64775000D01*
X119425000Y-64649000D01*
X119444685Y-64581961D01*
X119497489Y-64536206D01*
X119549000Y-64525000D01*
X120353638Y-64525000D01*
X120420677Y-64544685D01*
G37*
%TD.AperFunction*%
%TD*%
M02*
